<svg width="30" height="30" viewBox="0 0 30 30" fill="none" xmlns="http://www.w3.org/2000/svg">
<circle cx="15" cy="15" r="14.5" fill="white" stroke="#D9D9D9"/>
<path d="M14.4119 22C13.8596 22 13.4119 21.5523 13.4119 21V9C13.4119 8.44772 13.8596 8 14.4119 8H15.5882C16.1404 8 16.5882 8.44772 16.5882 9V21C16.5882 21.5523 16.1404 22 15.5882 22H14.4119ZM9 16.5882C8.44772 16.5882 8 16.1404 8 15.5882V14.4118C8 13.8596 8.44772 13.4118 9 13.4118H21C21.5523 13.4118 22 13.8596 22 14.4118V15.5882C22 16.1404 21.5523 16.5882 21 16.5882H9Z" fill="#D9D9D9"/>
</svg>
