<svg width="26" height="16" viewBox="0 0 26 16" fill="none" xmlns="http://www.w3.org/2000/svg">
<path d="M1.00591 7.82849C0.13595 8.18746 -0.264663 9.20325 0.187997 9.90239L3.78983 15.4655C4.11433 15.9667 4.78348 16.1388 5.40714 15.8815L6.67865 15.3568C6.79381 15.3093 6.90075 15.2503 6.99857 15.182C7.01082 15.1735 7.02674 15.1773 7.03079 15.1899C7.03418 15.2005 7.04619 15.2052 7.05762 15.2005L24.9945 7.79939C25.7383 7.49247 26.1623 6.68629 25.9416 5.99872C25.4265 4.39441 23.602 3.67441 21.8664 4.39055L6.69176 10.6519C6.27599 10.8235 5.82989 10.7087 5.61356 10.3746L3.89474 7.71982C3.57023 7.21861 2.90109 7.04651 2.27743 7.30384L1.00591 7.82849Z" fill="white"/>
<path d="M7.95832 1.77896C7.80743 1.54591 7.94097 1.20732 8.23096 1.08766L10.7712 0.0395008C10.9791 -0.0462769 11.2022 0.0110923 11.3103 0.17816L15.1523 6.11216C15.3032 6.34521 15.1696 6.68381 14.8796 6.80346L12.3394 7.85162C12.1315 7.9374 11.9084 7.88003 11.8003 7.71296L7.95832 1.77896Z" fill="white"/>
</svg>
