<svg width="22" height="22" viewBox="0 0 22 22" fill="none" xmlns="http://www.w3.org/2000/svg">
<path fill-rule="evenodd" clip-rule="evenodd" d="M17.5639 1.03806C18.5152 0.0867791 20.0575 0.0867794 21.0088 1.03806C21.96 1.98933 21.96 3.53166 21.0088 4.48294L16.9897 8.50198L19.9888 17.4993C20.0861 17.7911 20.0102 18.1128 19.7927 18.3302L18.5863 19.5366C18.2128 19.9102 17.5877 19.8332 17.3159 19.3802L13.1142 12.3775L8.95167 16.54C8.8568 16.6349 8.75605 16.7203 8.6506 16.7963L9.86713 19.4726C10.0072 19.7808 9.94143 20.1434 9.70209 20.3828L8.63189 21.453C8.23101 21.8539 7.55314 21.7309 7.31855 21.2148L5.2915 16.7553L0.83198 14.7283C0.315875 14.4937 0.192956 13.8158 0.593828 13.4149L1.66404 12.3447C1.90337 12.1054 2.26605 12.0396 2.57418 12.1797L5.25056 13.3962C5.32651 13.2908 5.41192 13.19 5.50679 13.0951L9.66935 8.93259L2.66658 4.73092C2.21361 4.45915 2.13666 3.83404 2.51018 3.46052L3.71657 2.25413C3.93404 2.03666 4.25572 1.96072 4.54749 2.05798L13.5448 5.0571L17.5639 1.03806Z" fill="#A3A3A3"/>
</svg>
