<svg width="10" height="6" viewBox="0 0 10 6" fill="none" xmlns="http://www.w3.org/2000/svg">
<path d="M0.854502 2.52316C0.546464 2.63528 0.404613 2.95255 0.564893 3.17092L1.84024 4.90848C1.95514 5.06502 2.19207 5.11877 2.4129 5.0384L2.86312 4.87453C2.9039 4.85969 2.94176 4.84125 2.9764 4.81993C2.98073 4.81726 2.98637 4.81845 2.98781 4.82239C2.98901 4.82568 2.99326 4.82717 2.99731 4.82569L9.34843 2.51407C9.61181 2.41821 9.76195 2.16641 9.68379 1.95166C9.50141 1.45058 8.85538 1.2257 8.24083 1.44937L2.86776 3.40501C2.72055 3.45859 2.56259 3.42276 2.48599 3.3184L1.87738 2.48922C1.76248 2.33268 1.52555 2.27892 1.30472 2.3593L0.854502 2.52316Z" fill="#D0D6DA"/>
<path d="M3.31623 0.633684C3.2628 0.560895 3.31009 0.455139 3.41277 0.417767L4.31223 0.0903893C4.38584 0.063598 4.46482 0.0815164 4.50312 0.133697L5.86349 1.98709C5.91691 2.05988 5.86963 2.16564 5.76695 2.20301L4.86749 2.53039C4.79388 2.55718 4.7149 2.53926 4.6766 2.48708L3.31623 0.633684Z" fill="#D0D6DA"/>
</svg>
