<svg width="80" height="91" viewBox="0 0 80 91" fill="none" xmlns="http://www.w3.org/2000/svg">
<path fill-rule="evenodd" clip-rule="evenodd" d="M16.3099 41.8298C15.7308 41.8298 15.22 41.4448 15.0808 40.8827C14.4512 38.3392 14.1172 35.6792 14.1172 32.9412C14.1172 14.7483 28.8655 0 47.0584 0C65.2513 0 79.9995 14.7483 79.9995 32.9412C79.9995 49.9577 67.0969 63.9606 50.5413 65.7004C49.7893 65.7794 49.1498 65.1777 49.1498 64.4215C49.1498 63.7322 49.6853 63.1636 50.3706 63.0892C65.5615 61.4391 77.3852 48.5709 77.3852 32.9412C77.3852 16.1922 63.8074 2.61438 47.0584 2.61438C30.3093 2.61438 16.7316 16.1922 16.7316 32.9412C16.7316 35.4242 17.03 37.8375 17.5929 40.1472C17.7983 40.9903 17.1776 41.8298 16.3099 41.8298Z" fill="url(#paint0_linear_4358_16441)"/>
<path d="M25.2003 64.6296H16.8616L12.5996 47.5815H15.5645L25.2003 64.6296Z" fill="url(#paint1_linear_4358_16441)"/>
<path d="M25.2003 76.6746H16.8616L12.5996 90.7578H15.5645L25.2003 76.6746Z" fill="url(#paint2_linear_4358_16441)"/>
<path fill-rule="evenodd" clip-rule="evenodd" d="M0 58.5147C0 58.1053 0.331856 57.7734 0.74122 57.7734C4.01613 57.7734 6.67098 60.4283 6.67098 63.7032V65.1856C6.67098 66.209 7.50062 67.0387 8.52402 67.0387H37.8022C39.498 67.0387 41.0275 67.7505 42.1083 68.8917H31.6871C30.9708 68.8917 30.39 69.4725 30.39 70.1889C30.39 70.9052 30.9708 71.486 31.6871 71.486H43.5451C43.6671 71.9598 43.732 72.4566 43.732 72.9684C43.732 73.7872 43.0682 74.4509 42.2495 74.4509H1.85305C0.829636 74.4509 0 73.6212 0 72.5978L0 58.5147ZM18.5305 70.1889C18.5305 69.4725 19.1112 68.8917 19.8276 68.8917H22.7925C23.5089 68.8917 24.0896 69.4725 24.0896 70.1889C24.0896 70.9052 23.5089 71.486 22.7925 71.486H19.8276C19.1112 71.486 18.5305 70.9052 18.5305 70.1889ZM11.3033 68.8917C10.5869 68.8917 10.0061 69.4725 10.0061 70.1889C10.0061 70.9053 10.5869 71.486 11.3033 71.486H14.2682C14.9845 71.486 15.5653 70.9053 15.5653 70.1889C15.5653 69.4725 14.9845 68.8917 14.2682 68.8917H11.3033Z" fill="url(#paint3_linear_4358_16441)"/>
<path d="M43.0658 39.1175V38.5209C43.0658 37.1537 43.1736 36.0641 43.389 35.2521C43.6044 34.44 43.9234 33.7896 44.346 33.3007C44.7686 32.8036 45.2865 32.3561 45.8996 31.9584C46.43 31.6104 46.9023 31.2748 47.3166 30.9516C47.7391 30.6285 48.0706 30.2846 48.3109 29.92C48.5594 29.5554 48.6837 29.1412 48.6837 28.6771C48.6837 28.2628 48.5843 27.8983 48.3854 27.5834C48.1866 27.2685 47.9173 27.0241 47.5776 26.8501C47.2378 26.6761 46.8608 26.5891 46.4465 26.5891C45.9991 26.5891 45.5848 26.6926 45.2036 26.8998C44.8308 27.1069 44.5283 27.3928 44.2963 27.7574C44.0726 28.122 43.9607 28.5446 43.9607 29.0251H37.5971C37.6137 27.2022 38.028 25.7232 38.84 24.588C39.652 23.4445 40.7292 22.6077 42.0715 22.0773C43.4139 21.5388 44.8888 21.2695 46.4962 21.2695C48.2694 21.2695 49.8521 21.5305 51.2441 22.0525C52.6362 22.5662 53.734 23.3451 54.5378 24.3891C55.3415 25.4249 55.7434 26.7216 55.7434 28.2794C55.7434 29.282 55.5694 30.1645 55.2214 30.9268C54.8817 31.6808 54.4052 32.3478 53.792 32.9278C53.1872 33.4996 52.4787 34.0216 51.6667 34.4939C51.0701 34.8419 50.5688 35.2023 50.1628 35.5752C49.7568 35.9398 49.4502 36.3582 49.243 36.8305C49.0359 37.2946 48.9323 37.858 48.9323 38.5209V39.1175H43.0658ZM46.0985 47.4697C45.1373 47.4697 44.3129 47.1342 43.6251 46.463C42.9457 45.7836 42.6101 44.9591 42.6184 43.9896C42.6101 43.045 42.9457 42.2371 43.6251 41.566C44.3129 40.8948 45.1373 40.5592 46.0985 40.5592C47.01 40.5592 47.8137 40.8948 48.5097 41.566C49.214 42.2371 49.5703 43.045 49.5786 43.9896C49.5703 44.6359 49.4005 45.2242 49.069 45.7545C48.7459 46.2766 48.3233 46.695 47.8013 47.0099C47.2793 47.3165 46.7117 47.4697 46.0985 47.4697Z" fill="url(#paint4_linear_4358_16441)"/>
<defs>
<linearGradient id="paint0_linear_4358_16441" x1="14.1172" y1="0" x2="79.8243" y2="65.8821" gradientUnits="userSpaceOnUse">
<stop stop-color="#D6EBFF"/>
<stop offset="1" stop-color="#C2C7FF"/>
</linearGradient>
<linearGradient id="paint1_linear_4358_16441" x1="12.5996" y1="47.5815" x2="28.8974" y2="59.6277" gradientUnits="userSpaceOnUse">
<stop stop-color="#D6EBFF"/>
<stop offset="1" stop-color="#C2C7FF"/>
</linearGradient>
<linearGradient id="paint2_linear_4358_16441" x1="12.5996" y1="90.7578" x2="26.5961" y2="78.2346" gradientUnits="userSpaceOnUse">
<stop stop-color="#D6EBFF"/>
<stop offset="1" stop-color="#C2C7FF"/>
</linearGradient>
<linearGradient id="paint3_linear_4358_16441" x1="0" y1="57.7734" x2="11.105" y2="86.8933" gradientUnits="userSpaceOnUse">
<stop stop-color="#D6EBFF"/>
<stop offset="1" stop-color="#C2C7FF"/>
</linearGradient>
<linearGradient id="paint4_linear_4358_16441" x1="36.6016" y1="13.072" x2="69.0593" y2="29.5117" gradientUnits="userSpaceOnUse">
<stop stop-color="#D6EBFF"/>
<stop offset="1" stop-color="#C2C7FF"/>
</linearGradient>
</defs>
</svg>
