<svg width="13" height="12" viewBox="0 0 13 12" fill="none" xmlns="http://www.w3.org/2000/svg">
<path d="M1.19531 9.26923C1.19531 8.01597 2.21128 7 3.46454 7H6.23377C7.48704 7 8.50301 8.01597 8.50301 9.26923V10.1923C8.50301 10.426 8.31359 10.6154 8.07993 10.6154H1.61839C1.38473 10.6154 1.19531 10.426 1.19531 10.1923V9.26923Z" stroke="#363636" stroke-linejoin="round"/>
<path d="M4.84946 5.154C5.8903 5.154 6.73407 4.31023 6.73407 3.26938C6.73407 2.22854 5.8903 1.38477 4.84946 1.38477C3.80861 1.38477 2.96484 2.22854 2.96484 3.26938C2.96484 4.31023 3.80861 5.154 4.84946 5.154Z" stroke="#363636"/>
<path d="M9.99616 7.42325V2.80786H10.7794V7.42325H9.99616ZM8.08008 5.50716V4.72395H12.6955V5.50716H8.08008Z" fill="#363636"/>
</svg>
