<svg width="12" height="13" viewBox="0 0 12 13" fill="none" xmlns="http://www.w3.org/2000/svg">
<path fill-rule="evenodd" clip-rule="evenodd" d="M8.0508 0.902588C8.32694 0.902588 8.5508 1.12645 8.5508 1.40259V2.16506H9.81346C10.8525 2.16506 11.6948 3.00736 11.6948 4.0464V10.2158C11.6948 11.2549 10.8525 12.0972 9.81346 12.0972H1.88135C0.842307 12.0972 0 11.2549 0 10.2158V4.0464C0 3.00736 0.842307 2.16506 1.88135 2.16506H3.14414V1.40259C3.14414 1.12645 3.36799 0.902588 3.64414 0.902588C3.92028 0.902588 4.14414 1.12645 4.14414 1.40259V2.16506H7.5508V1.40259C7.5508 1.12645 7.77465 0.902588 8.0508 0.902588ZM1 4.0464C1 3.55965 1.39459 3.16506 1.88135 3.16506H9.81346C10.3002 3.16506 10.6948 3.55965 10.6948 4.0464V4.86853H1V4.0464ZM1 5.86853V10.2158C1 10.7026 1.39459 11.0972 1.88135 11.0972H9.81346C10.3002 11.0972 10.6948 10.7026 10.6948 10.2158V5.86853H1Z" fill="#363636"/>
</svg>
