<svg width="10" height="10" viewBox="0 0 10 10" fill="none" xmlns="http://www.w3.org/2000/svg">
<mask id="path-1-inside-1_1209_21" fill="white">
<path fill-rule="evenodd" clip-rule="evenodd" d="M0.64933 0C0.290715 0 0 0.290715 0 0.64933V6.34398V6.4933V8.65285C0 9.08003 0.501059 9.31048 0.825396 9.03248L3.03022 7.14263H9.09063C9.44924 7.14263 9.73996 6.85192 9.73996 6.4933V0.64933C9.73996 0.290715 9.44924 0 9.09063 0H0.64933Z"/>
</mask>
<path d="M0.825396 9.03248L1.47619 9.79174H1.47619L0.825396 9.03248ZM3.03022 7.14263V6.14263H2.66029L2.37942 6.38338L3.03022 7.14263ZM1 0.64933C1 0.843 0.843 1 0.64933 1V-1C-0.261569 -1 -1 -0.26157 -1 0.64933H1ZM1 6.34398V0.64933H-1V6.34398H1ZM1 6.4933V6.34398H-1V6.4933H1ZM1 8.65285V6.4933H-1V8.65285H1ZM0.174604 8.27322C0.498943 7.99522 1 8.22568 1 8.65285H-1C-1 9.93438 0.503175 10.6257 1.47619 9.79174L0.174604 8.27322ZM2.37942 6.38338L0.174604 8.27322L1.47619 9.79174L3.68101 7.90189L2.37942 6.38338ZM9.09063 6.14263H3.03022V8.14264H9.09063V6.14263ZM8.73996 6.4933C8.73996 6.29963 8.89696 6.14263 9.09063 6.14263V8.14264C10.0015 8.14264 10.74 7.4042 10.74 6.4933H8.73996ZM8.73996 0.64933V6.4933H10.74V0.64933H8.73996ZM9.09063 1C8.89696 1 8.73996 0.843001 8.73996 0.64933H10.74C10.74 -0.26157 10.0015 -1 9.09063 -1V1ZM0.64933 1H9.09063V-1H0.64933V1Z" fill="white" mask="url(#path-1-inside-1_1209_21)"/>
</svg>
