<svg width="19" height="18" viewBox="0 0 19 18" fill="none" xmlns="http://www.w3.org/2000/svg">
<path fill-rule="evenodd" clip-rule="evenodd" d="M13.0798 0C13.5284 0 13.8921 0.359945 13.8921 0.80396V2.02995H15.9435C17.6315 2.02995 19 3.38431 19 5.055V14.9749C19 16.6456 17.6315 18 15.9435 18H3.05653C1.36846 18 0 16.6456 0 14.9749V5.055C0 3.38431 1.36846 2.02995 3.05653 2.02995H5.10813V0.80396C5.10813 0.359945 5.47182 0 5.92046 0C6.36909 0 6.73278 0.359945 6.73278 0.80396V2.02995H12.2674V0.80396C12.2674 0.359945 12.6311 0 13.0798 0ZM1.62465 5.055C1.62465 4.27234 2.26573 3.63787 3.05653 3.63787H15.9435C16.7343 3.63787 17.3753 4.27234 17.3753 5.055V6.37691H1.62465V5.055ZM1.62465 7.98484V14.9749C1.62465 15.7576 2.26573 16.3921 3.05653 16.3921H15.9435C16.7343 16.3921 17.3753 15.7576 17.3753 14.9749V7.98484H1.62465Z" fill="#5C5C5C"/>
</svg>
