<svg width="12" height="12" viewBox="0 0 12 12" fill="none" xmlns="http://www.w3.org/2000/svg">
<path fill-rule="evenodd" clip-rule="evenodd" d="M8.20338 0C8.47953 0 8.70338 0.223858 8.70338 0.5V1.26247H9.96605C11.0051 1.26247 11.8474 2.10478 11.8474 3.14381V9.31324C11.8474 10.3523 11.0051 11.1946 9.96605 11.1946H2.03393C0.994894 11.1946 0.152588 10.3523 0.152588 9.31324V3.14381C0.152588 2.10478 0.994895 1.26247 2.03393 1.26247H3.29672V0.5C3.29672 0.223858 3.52058 0 3.79672 0C4.07287 0 4.29672 0.223858 4.29672 0.5V1.26247H7.70338V0.5C7.70338 0.223858 7.92724 0 8.20338 0ZM1.15259 3.14381C1.15259 2.65706 1.54718 2.26247 2.03393 2.26247H9.96605C10.4528 2.26247 10.8474 2.65706 10.8474 3.14381V3.96594H1.15259V3.14381ZM1.15259 4.96594V9.31324C1.15259 9.79999 1.54718 10.1946 2.03393 10.1946H9.96605C10.4528 10.1946 10.8474 9.79999 10.8474 9.31324V4.96594H1.15259Z" fill="white"/>
</svg>
