<svg width="23" height="21" viewBox="0 0 23 21" fill="none" xmlns="http://www.w3.org/2000/svg">
<ellipse cx="11.4999" cy="11.6875" rx="4.66667" ry="4.75" stroke="#7A7A7A"/>
<path d="M15.5522 2.68622L15.077 2.84183L15.5522 2.68622ZM7.44779 2.68622L6.97262 2.53061L7.44779 2.68622ZM15.2256 1.68878L15.7007 1.53317L15.2256 1.68878ZM8.72477 1.5H14.2752V0.5H8.72477V1.5ZM7.92296 2.84183L8.2496 1.84439L7.29927 1.53317L6.97262 2.53061L7.92296 2.84183ZM2 3.875H6.49745V2.875H2V3.875ZM1.5 19V4.375H0.5V19H1.5ZM21 19.5H2V20.5H21V19.5ZM21.5 4.375V19H22.5V4.375H21.5ZM16.5026 3.875H21V2.875H16.5026V3.875ZM14.7504 1.84439L15.077 2.84183L16.0274 2.53061L15.7007 1.53317L14.7504 1.84439ZM16.5026 2.875C16.2864 2.875 16.0947 2.73606 16.0274 2.53061L15.077 2.84183C15.2789 3.45818 15.854 3.875 16.5026 3.875V2.875ZM22.5 4.375C22.5 3.54657 21.8284 2.875 21 2.875V3.875C21.2761 3.875 21.5 4.09886 21.5 4.375H22.5ZM21 20.5C21.8284 20.5 22.5 19.8284 22.5 19H21.5C21.5 19.2761 21.2761 19.5 21 19.5V20.5ZM0.5 19C0.5 19.8284 1.17157 20.5 2 20.5V19.5C1.72386 19.5 1.5 19.2761 1.5 19H0.5ZM2 2.875C1.17157 2.875 0.5 3.54657 0.5 4.375H1.5C1.5 4.09886 1.72386 3.875 2 3.875V2.875ZM6.97262 2.53061C6.90534 2.73606 6.71364 2.875 6.49745 2.875V3.875C7.14601 3.875 7.72111 3.45818 7.92296 2.84183L6.97262 2.53061ZM14.2752 1.5C14.4914 1.5 14.6831 1.63894 14.7504 1.84439L15.7007 1.53317C15.4989 0.916819 14.9238 0.5 14.2752 0.5V1.5ZM8.72477 0.5C8.07621 0.5 7.50111 0.916818 7.29927 1.53317L8.2496 1.84439C8.31689 1.63894 8.50859 1.5 8.72477 1.5V0.5Z" fill="#7A7A7A"/>
</svg>
