<svg width="390" height="539" viewBox="0 0 390 539" fill="none" xmlns="http://www.w3.org/2000/svg">
<g filter="url(#filter0_f_2706_8014)">
<path fill-rule="evenodd" clip-rule="evenodd" d="M271.5 487C377.815 487 464 400.815 464 294.5C464 188.185 377.815 102 271.5 102C174.341 102 93.9936 173.98 80.8754 267.523C76.9631 267.177 73.0022 267 69 267C-4.45387 267 -64 326.546 -64 400C-64 473.454 -4.45387 533 69 533C118.351 533 161.424 506.121 184.378 466.203C210.538 479.503 240.143 487 271.5 487Z" fill="url(#paint0_linear_2706_8014)" fill-opacity="0.8"/>
</g>
<path d="M202.102 232.624V224.866M202.102 220.143V214.746M202.102 211.373V208" stroke="white" stroke-width="2" stroke-linecap="round"/>
<path d="M201.984 244.398V252.15" stroke="white" stroke-width="2" stroke-linecap="round"/>
<path d="M201.984 256.867L201.984 262.259" stroke="white" stroke-width="2" stroke-linecap="round"/>
<path d="M201.984 265.63L201.984 269" stroke="white" stroke-width="2" stroke-linecap="round"/>
<path d="M197.81 234.833L192.329 229.352" stroke="white" stroke-width="2" stroke-linecap="round"/>
<path d="M188.993 226.016L185.18 222.203" stroke="white" stroke-width="2" stroke-linecap="round"/>
<path d="M182.797 219.82L180.414 217.437" stroke="white" stroke-width="2" stroke-linecap="round"/>
<path d="M197.603 239.005L189.852 239.005" stroke="white" stroke-width="2" stroke-linecap="round"/>
<path d="M185.133 239.005L179.74 239.005" stroke="white" stroke-width="2" stroke-linecap="round"/>
<path d="M176.37 239.006L173 239.006" stroke="white" stroke-width="2" stroke-linecap="round"/>
<path d="M206.028 234.833L211.509 229.352" stroke="white" stroke-width="2" stroke-linecap="round"/>
<path d="M214.846 226.015L218.659 222.202" stroke="white" stroke-width="2" stroke-linecap="round"/>
<path d="M221.041 219.819L223.424 217.436" stroke="white" stroke-width="2" stroke-linecap="round"/>
<path d="M197.81 243.05L192.329 248.531" stroke="white" stroke-width="2" stroke-linecap="round"/>
<path d="M188.994 251.867L185.181 255.68" stroke="white" stroke-width="2" stroke-linecap="round"/>
<path d="M182.797 258.063L180.414 260.446" stroke="white" stroke-width="2" stroke-linecap="round"/>
<path d="M206.028 243.05L211.509 248.531" stroke="white" stroke-width="2" stroke-linecap="round"/>
<path d="M214.846 251.867L218.659 255.68" stroke="white" stroke-width="2" stroke-linecap="round"/>
<path d="M221.042 258.063L223.425 260.446" stroke="white" stroke-width="2" stroke-linecap="round"/>
<path d="M206.237 239.005L213.989 239.005" stroke="white" stroke-width="2" stroke-linecap="round"/>
<path d="M218.707 239.005L224.099 239.005" stroke="white" stroke-width="2" stroke-linecap="round"/>
<path d="M227.47 239.005L230.84 239.005" stroke="white" stroke-width="2" stroke-linecap="round"/>
<path d="M98.1016 180.624V172.866M98.1016 168.143V162.746M98.1016 159.373V156" stroke="white" stroke-width="2" stroke-linecap="round"/>
<path d="M97.9844 192.398V200.15" stroke="white" stroke-width="2" stroke-linecap="round"/>
<path d="M97.9844 204.867L97.9844 210.259" stroke="white" stroke-width="2" stroke-linecap="round"/>
<path d="M97.9844 213.63L97.9844 217" stroke="white" stroke-width="2" stroke-linecap="round"/>
<path d="M93.8102 182.833L88.3291 177.352" stroke="white" stroke-width="2" stroke-linecap="round"/>
<path d="M84.9926 174.016L81.1797 170.203" stroke="white" stroke-width="2" stroke-linecap="round"/>
<path d="M78.7971 167.82L76.4141 165.437" stroke="white" stroke-width="2" stroke-linecap="round"/>
<path d="M93.603 187.005L85.8516 187.005" stroke="white" stroke-width="2" stroke-linecap="round"/>
<path d="M81.1325 187.005L75.7402 187.005" stroke="white" stroke-width="2" stroke-linecap="round"/>
<path d="M72.3702 187.006L69 187.006" stroke="white" stroke-width="2" stroke-linecap="round"/>
<path d="M102.028 182.833L107.509 177.352" stroke="white" stroke-width="2" stroke-linecap="round"/>
<path d="M110.846 174.015L114.659 170.202" stroke="white" stroke-width="2" stroke-linecap="round"/>
<path d="M117.041 167.819L119.424 165.436" stroke="white" stroke-width="2" stroke-linecap="round"/>
<path d="M93.8102 191.05L88.3291 196.531" stroke="white" stroke-width="2" stroke-linecap="round"/>
<path d="M84.9936 199.867L81.1807 203.68" stroke="white" stroke-width="2" stroke-linecap="round"/>
<path d="M78.7971 206.063L76.4141 208.446" stroke="white" stroke-width="2" stroke-linecap="round"/>
<path d="M102.028 191.05L107.509 196.531" stroke="white" stroke-width="2" stroke-linecap="round"/>
<path d="M110.846 199.867L114.659 203.68" stroke="white" stroke-width="2" stroke-linecap="round"/>
<path d="M117.042 206.063L119.425 208.446" stroke="white" stroke-width="2" stroke-linecap="round"/>
<path d="M102.237 187.005L109.989 187.005" stroke="white" stroke-width="2" stroke-linecap="round"/>
<path d="M114.707 187.005L120.099 187.005" stroke="white" stroke-width="2" stroke-linecap="round"/>
<path d="M123.47 187.005L126.84 187.005" stroke="white" stroke-width="2" stroke-linecap="round"/>
<path d="M241.478 369.264L244.26 366.482M245.953 364.789L247.889 362.854M249.098 361.644L250.308 360.435" stroke="white" stroke-width="2" stroke-linecap="round"/>
<path d="M237.215 373.444L234.435 376.224" stroke="white" stroke-width="2" stroke-linecap="round"/>
<path d="M232.744 377.915L230.811 379.849" stroke="white" stroke-width="2" stroke-linecap="round"/>
<path d="M229.602 381.057L228.393 382.265" stroke="white" stroke-width="2" stroke-linecap="round"/>
<path d="M237.577 369.94L234.798 367.16" stroke="white" stroke-width="2" stroke-linecap="round"/>
<path d="M233.105 365.468L231.172 363.535" stroke="white" stroke-width="2" stroke-linecap="round"/>
<path d="M229.963 362.326L228.755 361.118" stroke="white" stroke-width="2" stroke-linecap="round"/>
<path d="M240.674 373.035L243.453 375.815" stroke="white" stroke-width="2" stroke-linecap="round"/>
<path d="M245.145 377.506L247.078 379.44" stroke="white" stroke-width="2" stroke-linecap="round"/>
<path d="M248.287 380.648L249.496 381.857" stroke="white" stroke-width="2" stroke-linecap="round"/>
<mask id="path-56-inside-1_2706_8014" fill="white">
<path fill-rule="evenodd" clip-rule="evenodd" d="M108.539 410.192C148.112 410.192 180.191 378.112 180.191 338.539C180.191 298.967 148.112 266.887 108.539 266.887C68.9666 266.887 36.8867 298.967 36.8867 338.539C36.8867 378.112 68.9666 410.192 108.539 410.192ZM108.539 404.909C145.194 404.909 174.908 375.194 174.908 338.539C174.908 301.885 145.194 272.17 108.539 272.17C71.8844 272.17 42.1698 301.885 42.1698 338.539C42.1698 375.194 71.8844 404.909 108.539 404.909Z"/>
</mask>
<path fill-rule="evenodd" clip-rule="evenodd" d="M108.539 410.192C148.112 410.192 180.191 378.112 180.191 338.539C180.191 298.967 148.112 266.887 108.539 266.887C68.9666 266.887 36.8867 298.967 36.8867 338.539C36.8867 378.112 68.9666 410.192 108.539 410.192ZM108.539 404.909C145.194 404.909 174.908 375.194 174.908 338.539C174.908 301.885 145.194 272.17 108.539 272.17C71.8844 272.17 42.1698 301.885 42.1698 338.539C42.1698 375.194 71.8844 404.909 108.539 404.909Z" fill="white"/>
<path d="M179.191 338.539C179.191 377.56 147.559 409.192 108.539 409.192V411.192C148.664 411.192 181.191 378.664 181.191 338.539H179.191ZM108.539 267.887C147.559 267.887 179.191 299.519 179.191 338.539H181.191C181.191 298.415 148.664 265.887 108.539 265.887V267.887ZM37.8867 338.539C37.8867 299.519 69.5189 267.887 108.539 267.887V265.887C68.4143 265.887 35.8867 298.415 35.8867 338.539H37.8867ZM108.539 409.192C69.5189 409.192 37.8867 377.56 37.8867 338.539H35.8867C35.8867 378.664 68.4143 411.192 108.539 411.192V409.192ZM173.908 338.539C173.908 374.642 144.642 403.909 108.539 403.909V405.909C145.746 405.909 175.908 375.746 175.908 338.539H173.908ZM108.539 273.17C144.642 273.17 173.908 302.437 173.908 338.539H175.908C175.908 301.332 145.746 271.17 108.539 271.17V273.17ZM43.1698 338.539C43.1698 302.437 72.4367 273.17 108.539 273.17V271.17C71.3321 271.17 41.1698 301.332 41.1698 338.539H43.1698ZM108.539 403.909C72.4367 403.909 43.1698 374.642 43.1698 338.539H41.1698C41.1698 375.746 71.3321 405.909 108.539 405.909V403.909Z" fill="white" mask="url(#path-56-inside-1_2706_8014)"/>
<circle cx="108.539" cy="338.539" r="5.77371" fill="white" stroke="white"/>
<path d="M69.2461 445.567L108.321 338.209" stroke="white" stroke-width="8" stroke-linecap="round"/>
<path d="M148.605 445.567L109.53 338.209" stroke="white" stroke-width="8" stroke-linecap="round"/>
<path d="M108.869 268.868L108.869 407.55" stroke="white" stroke-width="2" stroke-linecap="round"/>
<circle cx="108.54" cy="261.934" r="6.4341" fill="white" stroke="white"/>
<circle cx="108.54" cy="415.145" r="6.4341" fill="white" stroke="white"/>
<path d="M108.87 268.868L108.87 407.55" stroke="white" stroke-width="2" stroke-linecap="round"/>
<circle cx="185.145" cy="338.539" r="6.4341" transform="rotate(90 185.145 338.539)" fill="white" stroke="white"/>
<circle cx="31.9341" cy="338.539" r="6.4341" transform="rotate(90 31.9341 338.539)" fill="white" stroke="white"/>
<path d="M178.211 338.869H39.5289" stroke="white" stroke-width="2" stroke-linecap="round"/>
<circle cx="174.881" cy="376.842" r="6.4341" transform="rotate(120 174.881 376.842)" fill="white" stroke="white"/>
<circle cx="42.1968" cy="300.237" r="6.4341" transform="rotate(120 42.1968 300.237)" fill="white" stroke="white"/>
<path d="M168.711 373.661L48.6088 304.32" stroke="white" stroke-width="2" stroke-linecap="round"/>
<circle cx="146.841" cy="404.882" r="6.4341" transform="rotate(150 146.841 404.882)" fill="white" stroke="white"/>
<circle cx="70.2358" cy="272.198" r="6.4341" transform="rotate(150 70.2358 272.198)" fill="white" stroke="white"/>
<path d="M143.088 399.042L73.7468 278.94" stroke="white" stroke-width="2" stroke-linecap="round"/>
<circle cx="174.881" cy="300.237" r="6.4341" transform="rotate(60 174.881 300.237)" fill="white" stroke="white"/>
<circle cx="42.1963" cy="376.842" r="6.4341" transform="rotate(60 42.1963 376.842)" fill="white" stroke="white"/>
<path d="M169.041 303.99L48.9388 373.331" stroke="white" stroke-width="2" stroke-linecap="round"/>
<circle cx="146.842" cy="272.197" r="6.4341" transform="rotate(30 146.842 272.197)" fill="white" stroke="white"/>
<circle cx="70.2363" cy="404.882" r="6.4341" transform="rotate(30 70.2363 404.882)" fill="white" stroke="white"/>
<path d="M143.661 278.367L74.3201 398.47" stroke="white" stroke-width="2" stroke-linecap="round"/>
<rect x="281.7" y="125.656" width="61.6128" height="17.8353" rx="3" fill="white"/>
<path d="M290.003 112.488C286.939 115.552 289.109 120.792 293.442 120.792H331.569C335.902 120.792 338.073 115.552 335.008 112.488L315.945 93.4247C314.045 91.5251 310.966 91.5251 309.066 93.4247L290.003 112.488Z" fill="white"/>
<path fill-rule="evenodd" clip-rule="evenodd" d="M340.881 148.356C342.412 148.356 343.853 149.077 344.772 150.302L356.932 166.516C357.564 167.358 357.905 168.382 357.905 169.435V182.406C357.905 185.092 355.727 187.27 353.041 187.27H271.972C269.285 187.27 267.107 185.092 267.107 182.406V169.435C267.107 168.382 267.449 167.358 268.08 166.516L280.241 150.302C281.159 149.077 282.601 148.356 284.132 148.356H340.881ZM331.152 156.463C328.914 156.463 327.099 158.278 327.099 160.517V173.488C327.099 175.727 328.914 177.541 331.152 177.541C333.391 177.541 335.206 175.727 335.206 173.488V160.517C335.206 158.278 333.391 156.463 331.152 156.463ZM309.264 160.517C309.264 158.278 311.078 156.463 313.317 156.463C315.556 156.463 317.371 158.278 317.371 160.517V173.488C317.371 175.727 315.556 177.541 313.317 177.541C311.078 177.541 309.264 175.727 309.264 173.488V160.517ZM295.482 156.463C293.243 156.463 291.428 158.278 291.428 160.517V173.488C291.428 175.727 293.243 177.541 295.482 177.541C297.72 177.541 299.535 175.727 299.535 173.488V160.517C299.535 158.278 297.72 156.463 295.482 156.463Z" fill="white"/>
<path fill-rule="evenodd" clip-rule="evenodd" d="M263.864 193.755C261.178 193.755 259 195.932 259 198.619V295.902C259 298.589 261.178 300.766 263.864 300.766H361.148C363.834 300.766 366.012 298.589 366.012 295.902V198.619C366.012 195.932 363.834 193.755 361.148 193.755H263.864ZM311.695 286.174C332.739 286.174 349.798 269.115 349.798 248.071C349.798 227.028 332.739 209.969 311.695 209.969C290.652 209.969 273.593 227.028 273.593 248.071C273.593 269.115 290.652 286.174 311.695 286.174Z" fill="white"/>
<path fill-rule="evenodd" clip-rule="evenodd" d="M311.696 281.31C330.053 281.31 344.934 266.429 344.934 248.072C344.934 229.715 330.053 214.833 311.696 214.833C293.338 214.833 278.457 229.715 278.457 248.072C278.457 266.429 293.338 281.31 311.696 281.31ZM314.938 221.319C314.938 219.976 313.849 218.887 312.506 218.887C311.163 218.887 310.074 219.976 310.074 221.319V248.072C310.074 248.21 310.086 248.346 310.108 248.477C310.086 248.609 310.074 248.745 310.074 248.883C310.074 250.226 311.163 251.315 312.506 251.315H331.963C333.306 251.315 334.395 250.226 334.395 248.883C334.395 247.539 333.306 246.451 331.963 246.451H314.938V221.319Z" fill="white"/>
<rect x="267.107" y="448.315" width="90.7978" height="9.72834" rx="3" fill="white"/>
<path d="M267.107 402.916C267.107 400.23 269.285 398.052 271.972 398.052H353.041C355.727 398.052 357.905 400.23 357.905 402.916V436.965C357.905 439.652 355.727 441.83 353.041 441.83H348.177V421.562C348.177 419.323 346.362 417.509 344.123 417.509C341.885 417.509 340.07 419.323 340.07 421.562V441.83H327.099V421.562C327.099 419.323 325.284 417.509 323.045 417.509C320.807 417.509 318.992 419.323 318.992 421.562V441.83H306.021V421.562C306.021 419.323 304.206 417.509 301.967 417.509C299.729 417.509 297.914 419.323 297.914 421.562V441.83H284.943V421.562C284.943 419.323 283.128 417.509 280.889 417.509C278.651 417.509 276.836 419.323 276.836 421.562V441.83H271.972C269.285 441.83 267.107 439.652 267.107 436.965V402.916Z" fill="white"/>
<path d="M267.107 354.274C267.107 351.588 269.285 349.41 271.972 349.41H353.041C355.727 349.41 357.905 351.588 357.905 354.274V386.702C357.905 389.388 355.727 391.566 353.041 391.566H348.177V372.199C348.177 369.961 346.362 368.146 344.123 368.146C341.885 368.146 340.07 369.961 340.07 372.199V391.566H327.099V372.199C327.099 369.961 325.284 368.146 323.045 368.146C320.807 368.146 318.992 369.961 318.992 372.199V391.566H306.021V372.199C306.021 369.961 304.206 368.146 301.967 368.146C299.729 368.146 297.914 369.961 297.914 372.199V391.566H284.943V372.199C284.943 369.961 283.128 368.146 280.889 368.146C278.651 368.146 276.836 369.961 276.836 372.199V391.566H271.972C269.285 391.566 267.107 389.388 267.107 386.702V354.274Z" fill="white"/>
<path d="M267.107 312.118C267.107 309.431 269.285 307.253 271.972 307.253H353.041C355.727 307.253 357.905 309.431 357.905 312.118V338.06C357.905 340.746 355.727 342.924 353.041 342.924H348.176C348.177 342.894 348.177 342.864 348.177 342.834V327.16C348.177 324.922 346.362 323.107 344.123 323.107C341.885 323.107 340.07 324.922 340.07 327.16V342.834L340.07 342.877L340.071 342.924H327.098C327.099 342.894 327.099 342.864 327.099 342.834V327.16C327.099 324.922 325.284 323.107 323.045 323.107C320.807 323.107 318.992 324.922 318.992 327.16V342.834C318.992 342.85 318.992 342.865 318.992 342.881C318.992 342.895 318.993 342.91 318.993 342.924H306.02C306.02 342.907 306.02 342.89 306.021 342.873C306.021 342.86 306.021 342.847 306.021 342.834V327.16C306.021 324.922 304.206 323.107 301.967 323.107C299.729 323.107 297.914 324.922 297.914 327.16V342.834C297.914 342.864 297.914 342.894 297.915 342.924H284.942C284.942 342.894 284.943 342.864 284.943 342.834V327.16C284.943 324.922 283.128 323.107 280.889 323.107C278.651 323.107 276.836 324.922 276.836 327.16V342.834C276.836 342.864 276.836 342.894 276.837 342.924H271.972C269.285 342.924 267.107 340.746 267.107 338.06V312.118Z" fill="white"/>
<ellipse cx="187.836" cy="434.935" rx="5.07467" ry="5.06387" fill="white"/>
<path fill-rule="evenodd" clip-rule="evenodd" d="M175 400.383C175 399.067 176.069 398 177.388 398H252.613C253.931 398 255.001 399.067 255.001 400.383V415.277C255.001 415.287 255.001 415.297 255 415.307V422.723L255 422.723L255.001 422.723V430.234C255.001 432.995 252.762 435.234 250.001 435.234H239.471C239.476 435.135 239.478 435.036 239.478 434.936C239.478 431.645 236.805 428.978 233.508 428.978C230.211 428.978 227.538 431.645 227.538 434.936C227.538 435.036 227.54 435.135 227.545 435.234H193.8C193.805 435.135 193.808 435.036 193.808 434.936C193.808 431.645 191.135 428.978 187.837 428.978C184.54 428.978 181.867 431.645 181.867 434.936C181.867 435.036 181.87 435.135 181.875 435.234H180C177.239 435.234 175 432.995 175 430.234V424.812C175 423.658 175.935 422.723 177.089 422.723C178.243 422.723 179.179 421.788 179.179 420.634V419.447C179.179 417.637 177.705 416.17 175.896 416.17C175.401 416.17 175 415.77 175 415.277V400.383ZM191.716 403.064H184.253C182.934 403.064 181.865 404.131 181.865 405.447V409.915C181.865 410.408 182.266 410.808 182.761 410.808H191.716V403.064ZM203.358 403.064H193.507V410.808H203.358V403.064ZM215 403.064H205.149V410.808H215V403.064ZM226.642 403.064H216.791V410.808H226.642V403.064ZM238.283 403.064H228.433V410.808H238.283V403.064ZM240.075 410.808H249.03C249.524 410.808 249.925 410.408 249.925 409.915V405.447C249.925 404.131 248.856 403.064 247.537 403.064H240.075V410.808ZM189.328 417.659H184.253C182.934 417.659 181.865 418.726 181.865 420.042V424.51C181.865 425.004 182.266 425.404 182.761 425.404H189.328V417.659ZM203.358 417.659H193.507V425.404H203.358V417.659ZM215 417.659H205.149V425.404H215V417.659ZM226.642 417.659H216.791V425.404H226.642V417.659ZM228.433 425.404H237.388C237.883 425.404 238.283 425.004 238.283 424.51V420.042C238.283 418.726 237.214 417.659 235.895 417.659H228.433V425.404ZM189.925 418.553C189.925 418.059 190.326 417.659 190.821 417.659H192.015C192.51 417.659 192.911 418.059 192.911 418.553V426C192.911 426.493 192.51 426.893 192.015 426.893H190.821C190.326 426.893 189.925 426.493 189.925 426V418.553ZM246.046 415.871C245.552 415.871 245.151 416.271 245.151 416.765V430.765C245.151 431.259 245.552 431.659 246.046 431.659H250.524C251.018 431.659 251.419 431.259 251.419 430.765V416.765C251.419 416.271 251.018 415.871 250.524 415.871H246.046Z" fill="white"/>
<ellipse cx="233.508" cy="434.935" rx="5.07467" ry="5.06387" fill="white"/>
<defs>
<filter id="filter0_f_2706_8014" x="-165.4" y="0.599998" width="730.8" height="633.8" filterUnits="userSpaceOnUse" color-interpolation-filters="sRGB">
<feFlood flood-opacity="0" result="BackgroundImageFix"/>
<feBlend mode="normal" in="SourceGraphic" in2="BackgroundImageFix" result="shape"/>
<feGaussianBlur stdDeviation="50.7" result="effect1_foregroundBlur_2706_8014"/>
</filter>
<linearGradient id="paint0_linear_2706_8014" x1="79" y1="102" x2="464" y2="487" gradientUnits="userSpaceOnUse">
<stop stop-color="#CEC2FF" stop-opacity="0.2"/>
<stop offset="0.896351" stop-color="#AD99FF" stop-opacity="0.2"/>
</linearGradient>
</defs>
</svg>
