<svg xmlns="http://www.w3.org/2000/svg" width="10" height="10" viewBox="0 0 10 10" fill="none">
  <mask id="path-1-inside-1_1325_4283" fill="white">
    <path fill-rule="evenodd" clip-rule="evenodd" d="M0.64933 0.0344238C0.290715 0.0344238 0 0.335163 0 0.706145V6.57992V6.75164V8.99865C0 9.42978 0.509139 9.65879 0.831724 9.37276L3.03021 7.42336H9.09063C9.44924 7.42336 9.73996 7.12262 9.73996 6.75164V0.706145C9.73996 0.335164 9.44924 0.0344238 9.09063 0.0344238H0.64933Z"/>
  </mask>
  <path d="M0.831724 9.37276L1.49517 10.121H1.49517L0.831724 9.37276ZM3.03021 7.42336V6.42336H2.65072L2.36677 6.67513L3.03021 7.42336ZM1 0.706145C1 0.855223 0.874684 1.03442 0.64933 1.03442V-0.965576C-0.293254 -0.965576 -1 -0.184896 -1 0.706145H1ZM1 6.57992V0.706145H-1V6.57992H1ZM1 6.75164V6.57992H-1V6.75164H1ZM1 8.99865V6.75164H-1V8.99865H1ZM0.168276 8.62454C0.490862 8.3385 1 8.56751 1 8.99865H-1C-1 10.292 0.527417 10.9791 1.49517 10.121L0.168276 8.62454ZM2.36677 6.67513L0.168276 8.62454L1.49517 10.121L3.69366 8.17158L2.36677 6.67513ZM9.09063 6.42336H3.03021V8.42336H9.09063V6.42336ZM8.73996 6.75164C8.73996 6.60256 8.86527 6.42336 9.09063 6.42336V8.42336C10.0332 8.42336 10.74 7.64268 10.74 6.75164H8.73996ZM8.73996 0.706145V6.75164H10.74V0.706145H8.73996ZM9.09063 1.03442C8.86527 1.03442 8.73996 0.855223 8.73996 0.706145H10.74C10.74 -0.184896 10.0332 -0.965576 9.09063 -0.965576V1.03442ZM0.64933 1.03442H9.09063V-0.965576H0.64933V1.03442Z" fill="#92A5BC" mask="url(#path-1-inside-1_1325_4283)"/>
</svg>