<svg width="12" height="12" viewBox="0 0 12 12" fill="none" xmlns="http://www.w3.org/2000/svg">
<path d="M8.00856 5.91156C8.00856 7.03228 7.09176 7.9408 5.96082 7.9408C4.82989 7.9408 3.91309 7.03228 3.91309 5.91156C3.91309 4.79085 4.82989 3.88232 5.96082 3.88232C7.09176 3.88232 8.00856 4.79085 8.00856 5.91156Z" fill="#7A7A7A" fill-opacity="0.8"/>
<path fill-rule="evenodd" clip-rule="evenodd" d="M5.96045 0C6.23659 0 6.46045 0.223858 6.46045 0.5V1.17641C6.46045 1.18503 6.46023 1.1936 6.4598 1.20212C8.69837 1.43239 10.4778 3.19429 10.7124 5.41197C10.7211 5.41153 10.7298 5.4113 10.7385 5.4113H11.4211C11.6972 5.4113 11.9211 5.63516 11.9211 5.9113C11.9211 6.18745 11.6972 6.4113 11.4211 6.4113H10.7385C10.7298 6.4113 10.7211 6.41108 10.7125 6.41064C10.478 8.62849 8.6985 10.3906 6.45981 10.6208C6.46023 10.6293 6.46045 10.6378 6.46045 10.6463V11.3227C6.46045 11.5989 6.23659 11.8227 5.96045 11.8227C5.68431 11.8227 5.46045 11.5989 5.46045 11.3227V10.6463C5.46045 10.6378 5.46067 10.6293 5.46109 10.6208C3.2226 10.3903 1.44331 8.62834 1.20885 6.41063C1.20015 6.41108 1.19139 6.4113 1.18258 6.4113H0.5C0.223858 6.4113 0 6.18745 0 5.9113C0 5.63516 0.223858 5.4113 0.5 5.4113H1.18258C1.1914 5.4113 1.20017 5.41154 1.20889 5.41199C1.4435 3.19444 3.22273 1.43262 5.4611 1.20216C5.46067 1.19363 5.46045 1.18505 5.46045 1.17641V0.5C5.46045 0.223858 5.68431 0 5.96045 0ZM5.96067 9.64638C8.0558 9.64638 9.73872 7.96567 9.73872 5.91148C9.73872 3.8573 8.0558 2.17659 5.96067 2.17659C3.86553 2.17659 2.18262 3.8573 2.18262 5.91148C2.18262 7.96567 3.86553 9.64638 5.96067 9.64638Z" fill="#7A7A7A" fill-opacity="0.8"/>
</svg>
