<svg width="44" height="48" viewBox="0 0 44 48" fill="none" xmlns="http://www.w3.org/2000/svg">
<circle cx="18" cy="18" r="18" fill="url(#paint0_linear_1181_1120)"/>
<path fill-rule="evenodd" clip-rule="evenodd" d="M29 19.8477V15.7427H35V19.8477H29ZM25 19.8477V15.7427C25 13.5335 26.7909 11.7427 29 11.7427H35C37.2091 11.7427 39 13.5335 39 15.7427V19.8477H41.8182C43.0232 19.8477 44 20.6844 44 21.7165V44.143C44 45.1751 43.0232 46.0119 41.8182 46.0119L41 46.0119C41 46.9752 40.1046 47.7561 39 47.7561C37.8954 47.7561 37 46.9752 37 46.0119H27C27 46.9752 26.1046 47.7561 25 47.7561C23.8954 47.7561 23 46.9752 23 46.0119L22.1818 46.0119C20.9768 46.0119 20 45.1751 20 44.143V21.7165C20 20.6844 20.9768 19.8477 22.1818 19.8477H25ZM38 23.6444C38.5523 23.6444 39 24.0921 39 24.6444V41.6512C39 42.2034 38.5523 42.6512 38 42.6512C37.4477 42.6512 37 42.2034 37 41.6512V24.6444C37 24.0921 37.4477 23.6444 38 23.6444ZM27 24.6444C27 24.0921 26.5523 23.6444 26 23.6444C25.4477 23.6444 25 24.0921 25 24.6444V41.6512C25 42.2034 25.4477 42.6512 26 42.6512C26.5523 42.6512 27 42.2034 27 41.6512V24.6444ZM32 23.6444C32.5523 23.6444 33 24.0921 33 24.6444V41.6512C33 42.2034 32.5523 42.6512 32 42.6512C31.4477 42.6512 31 42.2034 31 41.6512V24.6444C31 24.0921 31.4477 23.6444 32 23.6444Z" fill="#7A7A7A"/>
<defs>
<linearGradient id="paint0_linear_1181_1120" x1="0" y1="0" x2="36" y2="36" gradientUnits="userSpaceOnUse">
<stop stop-color="#D6EBFF"/>
<stop offset="1" stop-color="#C2C7FF"/>
</linearGradient>
</defs>
</svg>
