<svg width="18" height="18" viewBox="0 0 18 18" fill="none" xmlns="http://www.w3.org/2000/svg">
<path d="M12 9C12 10.6569 10.6569 12 9 12C7.34315 12 6 10.6569 6 9C6 7.34315 7.34315 6 9 6C10.6569 6 12 7.34315 12 9Z" fill="#7A7A7A"/>
<path fill-rule="evenodd" clip-rule="evenodd" d="M9 0.5C9.27614 0.5 9.5 0.723858 9.5 1V2C9.5 2.00588 9.4999 2.01173 9.4997 2.01756C12.9674 2.26215 15.7379 5.03257 15.9824 8.5003C15.9883 8.5001 15.9941 8.5 16 8.5H17C17.2761 8.5 17.5 8.72386 17.5 9C17.5 9.27614 17.2761 9.5 17 9.5H16C15.9982 9.5 15.9964 9.49999 15.9946 9.49997C15.9905 9.49993 15.9865 9.49984 15.9824 9.4997C15.7379 12.9674 12.9674 15.7379 9.4997 15.9824L9.49997 15.9946L9.5 16V17C9.5 17.2761 9.27614 17.5 9 17.5C8.72386 17.5 8.5 17.2761 8.5 17V16C8.5 15.9977 8.50002 15.9954 8.50005 15.9931C8.5001 15.9895 8.50018 15.986 8.5003 15.9824C5.03257 15.7379 2.26215 12.9674 2.01756 9.4997C2.01173 9.4999 2.00588 9.5 2 9.5H1C0.723858 9.5 0.5 9.27614 0.5 9C0.5 8.72386 0.723858 8.5 1 8.5H2C2.00588 8.5 2.01173 8.5001 2.01756 8.5003C2.26215 5.03257 5.03257 2.26215 8.5003 2.01756C8.5001 2.01173 8.5 2.00588 8.5 2V1C8.5 0.723858 8.72386 0.5 9 0.5ZM9 15C12.3137 15 15 12.3137 15 9C15 5.68629 12.3137 3 9 3C5.68629 3 3 5.68629 3 9C3 12.3137 5.68629 15 9 15Z" fill="#7A7A7A"/>
</svg>
