<svg width="87" height="86" viewBox="0 0 87 86" fill="none" xmlns="http://www.w3.org/2000/svg">
<g id="Group 142">
<path id="Union" d="M48.4066 27.9719C49.6481 25.8216 52.1851 24.9621 54.0731 26.0522C55.9612 27.1422 56.4853 29.7691 55.2438 31.9194L51.6418 38.1583L59.7257 47.7352C60.2078 48.3064 60.2501 49.189 59.83 49.9165L58.9063 51.5166C58.3236 52.5257 57.0939 52.8534 56.2926 52.2129L47.5581 45.2316L40.604 57.2764L43.217 60.4157C43.7221 61.0225 43.7639 61.9539 43.3205 62.7219C42.7558 63.6999 41.6019 64.0909 40.7432 63.5951L27.7366 56.0857C26.8779 55.5899 26.6395 54.3952 27.2041 53.4171C27.6475 52.6491 28.4751 52.2196 29.2532 52.3536L33.8706 53.1489L40.7208 41.2841L30.3076 37.2104C29.3522 36.8367 29.0211 35.6079 29.6038 34.5987L30.5275 32.9987C30.9476 32.2712 31.733 31.8665 32.4688 31.9984L44.8045 34.2109L48.4066 27.9719Z" fill="url(#paint0_linear_4221_13513)"/>
<circle id="Ellipse 164" cx="43.5066" cy="42.5713" r="29.6644" transform="rotate(30 43.5066 42.5713)" stroke="url(#paint1_linear_4221_13513)" stroke-width="3"/>
</g>
<defs>
<linearGradient id="paint0_linear_4221_13513" x1="39.4219" y1="17.5933" x2="56.2521" y2="65.9641" gradientUnits="userSpaceOnUse">
<stop stop-color="#D6EBFF"/>
<stop offset="1" stop-color="#C2C7FF"/>
</linearGradient>
<linearGradient id="paint1_linear_4221_13513" x1="12.3422" y1="11.407" x2="74.6709" y2="73.7357" gradientUnits="userSpaceOnUse">
<stop stop-color="#D6EBFF"/>
<stop offset="1" stop-color="#C2C7FF"/>
</linearGradient>
</defs>
</svg>
