<svg width="68" height="65" viewBox="0 0 68 65" fill="none" xmlns="http://www.w3.org/2000/svg">
<g id="Group 142">
<path id="Union" d="M33.4488 16.071C33.4488 13.5881 35.2162 11.5752 37.3963 11.5752C39.5765 11.5752 41.3438 13.5881 41.3438 16.071V23.2751L53.1331 27.527C53.8363 27.7806 54.3141 28.5238 54.3141 29.3639V31.2114C54.3141 32.3767 53.413 33.2753 52.3988 33.1213L41.3438 31.4426V45.3507L45.1764 46.7629C45.9172 47.0359 46.4192 47.8216 46.4192 48.7085C46.4192 49.8378 45.6153 50.7533 44.6237 50.7533H29.605C28.6134 50.7533 27.8096 49.8378 27.8096 48.7085C27.8096 47.8216 28.3115 47.0359 29.0523 46.7629L33.4488 45.1429V31.4426L22.3939 33.1213C21.3797 33.2753 20.4785 32.3767 20.4785 31.2114V29.3639C20.4785 28.5238 20.9564 27.7806 21.6596 27.527L33.4488 23.2751V16.071Z" fill="url(#paint0_linear_4223_14631)"/>
<circle id="Ellipse 164" cx="36.5062" cy="31.1644" r="29.6644" stroke="url(#paint1_linear_4223_14631)" stroke-width="3"/>
<g id="Group 141">
<circle id="Ellipse 165" cx="12.9118" cy="53.8698" r="9.34931" fill="white"/>
<path id="Subtract" fill-rule="evenodd" clip-rule="evenodd" d="M12.0205 65.0001C18.6593 65.0001 24.0411 59.6183 24.0411 52.9795C24.0411 46.3408 18.6593 40.959 12.0205 40.959C5.38178 40.959 0 46.3408 0 52.9795C0 59.6183 5.38178 65.0001 12.0205 65.0001ZM19.3141 50.0333C19.8999 49.4475 19.8999 48.4977 19.3141 47.9119C18.7283 47.3262 17.7786 47.3262 17.1928 47.9119L10.6849 54.4198L7.29354 51.0284C6.70775 50.4426 5.758 50.4426 5.17222 51.0284C4.58643 51.6142 4.58643 52.5639 5.17222 53.1497L8.91716 56.8946C9.89348 57.871 11.4764 57.871 12.4527 56.8946L19.3141 50.0333Z" fill="url(#paint2_linear_4223_14631)"/>
</g>
</g>
<defs>
<linearGradient id="paint0_linear_4223_14631" x1="20.4785" y1="11.5752" x2="59.2393" y2="45.0504" gradientUnits="userSpaceOnUse">
<stop stop-color="#D6EBFF"/>
<stop offset="1" stop-color="#C2C7FF"/>
</linearGradient>
<linearGradient id="paint1_linear_4223_14631" x1="5.3418" y1="0" x2="67.6706" y2="62.3288" gradientUnits="userSpaceOnUse">
<stop stop-color="#D6EBFF"/>
<stop offset="1" stop-color="#C2C7FF"/>
</linearGradient>
<linearGradient id="paint2_linear_4223_14631" x1="0" y1="40.959" x2="24.0411" y2="65.0001" gradientUnits="userSpaceOnUse">
<stop stop-color="#D6EBFF"/>
<stop offset="1" stop-color="#C2C7FF"/>
</linearGradient>
</defs>
</svg>
