<svg width="12" height="13" viewBox="0 0 12 13" fill="none" xmlns="http://www.w3.org/2000/svg">
<path d="M5.85734 1.24807C5.90224 1.10988 6.09776 1.10988 6.14266 1.24807L7.24403 4.63774C7.33105 4.90556 7.58062 5.08688 7.86222 5.08688H11.4263C11.5716 5.08688 11.632 5.27282 11.5145 5.35823L8.63107 7.45316C8.40325 7.61868 8.30792 7.91207 8.39494 8.17989L9.49631 11.5696C9.54121 11.7077 9.38304 11.8227 9.26548 11.7373L6.38206 9.64233C6.15424 9.47681 5.84576 9.47681 5.61794 9.64233L2.73452 11.7373C2.61696 11.8227 2.45879 11.7078 2.50369 11.5696L3.60506 8.17989C3.69208 7.91207 3.59675 7.61868 3.36893 7.45316L0.48551 5.35823C0.367953 5.27282 0.428368 5.08688 0.573677 5.08688H4.13778C4.41938 5.08688 4.66895 4.90556 4.75597 4.63774L5.85734 1.24807Z" stroke="#D9D9D9" stroke-width="0.5"/>
</svg>
