<svg width="46" height="46" viewBox="0 0 46 46" fill="none" xmlns="http://www.w3.org/2000/svg">
<circle cx="23" cy="23" r="22.5" fill="#C2C7FF" stroke="#D9D9D9"/>
<circle cx="23.2308" cy="22.7681" r="16.7474" stroke="white" stroke-width="2"/>
<path fill-rule="evenodd" clip-rule="evenodd" d="M20.8916 7.02075C13.973 8.03965 8.50281 13.5095 7.4834 20.4279H20.8916V7.02075ZM7.48353 25.1097C8.5033 32.0276 13.9733 37.4971 20.8916 38.5159V25.1097H7.48353ZM25.5734 38.5154C32.49 37.4953 37.9585 32.0265 38.9781 25.1097H25.5734V38.5154ZM38.9782 20.4279C37.959 13.5106 32.4904 8.04141 25.5734 7.02124V20.4279H38.9782Z" fill="#C2C7FF"/>
<path d="M20.8908 7.02185C20.2535 7.11578 19.6285 7.24748 19.0181 7.4146V18.5555H7.87712C7.71 19.1659 7.5783 19.791 7.48438 20.4283H20.8908V7.02185Z" fill="white"/>
<path d="M7.48438 25.1101C7.5783 25.7474 7.71 26.3725 7.87712 26.9829H19.0181V38.1238C19.6285 38.2909 20.2535 38.4226 20.8908 38.5165V25.1101H7.48438Z" fill="white"/>
<path d="M25.5726 38.5165C26.21 38.4226 26.835 38.2909 27.4454 38.1238V26.9829H38.5863C38.7535 26.3725 38.8851 25.7474 38.9791 25.1101H25.5726V38.5165Z" fill="white"/>
<path d="M38.9791 20.4283C38.8851 19.791 38.7535 19.1659 38.5863 18.5555H27.4454V7.4146C26.835 7.24748 26.21 7.11578 25.5726 7.02185V20.4283H38.9791Z" fill="white"/>
<path fill-rule="evenodd" clip-rule="evenodd" d="M18.8669 25.1089L11.0117 32.9641C11.4125 33.444 11.841 33.9 12.2947 34.3295L20.8965 25.7278V25.1089H18.8669ZM34.798 11.8262L26.1972 20.427H25.5783V18.3975L33.4326 10.5432C33.9125 10.944 34.3685 11.3725 34.798 11.8262Z" fill="white"/>
<path fill-rule="evenodd" clip-rule="evenodd" d="M20.8964 19.8069L12.2947 11.2053C11.841 11.6349 11.4125 12.0908 11.0117 12.5707L18.8681 20.4271H20.8964V19.8069ZM33.4326 34.9917L25.5782 27.1372V25.109H26.1984L34.7981 33.7086C34.3685 34.1624 33.9126 34.5909 33.4326 34.9917Z" fill="white"/>
</svg>
