<svg width="153" height="174" viewBox="0 0 153 174" fill="none" xmlns="http://www.w3.org/2000/svg">
<path fill-rule="evenodd" clip-rule="evenodd" d="M31.1936 80C30.0861 80 29.1092 79.2637 28.8431 78.1887C27.6389 73.3242 27 68.2367 27 63C27 28.2061 55.2061 0 90 0C124.794 0 153 28.2061 153 63C153 95.544 128.324 122.325 96.6613 125.652C95.223 125.803 94 124.652 94 123.206C94 121.888 95.0241 120.8 96.3348 120.658C125.387 117.502 148 92.8919 148 63C148 30.9675 122.033 5 90 5C57.9675 5 32 30.9675 32 63C32 67.7489 32.5707 72.3646 33.6474 76.7821C34.0404 78.3944 32.8531 80 31.1936 80Z" fill="#BBDEFF"/>
<path d="M48.1966 123.604H32.2488L24.0977 91H29.768L48.1966 123.604Z" fill="#BBDEFF"/>
<path d="M48.1966 146.64H32.2488L24.0977 173.574H29.768L48.1966 146.64Z" fill="#BBDEFF"/>
<path fill-rule="evenodd" clip-rule="evenodd" d="M0 111.91C0 111.127 0.634674 110.492 1.41758 110.492C7.68085 110.492 12.7582 115.569 12.7582 121.833V124.668C12.7582 126.625 14.3449 128.212 16.3022 128.212H72.2967C75.5399 128.212 78.4652 129.573 80.5321 131.756H60.6016C59.2316 131.756 58.1209 132.866 58.1209 134.236C58.1209 135.607 59.2316 136.717 60.6016 136.717H83.2801C83.5133 137.623 83.6374 138.573 83.6374 139.552C83.6374 141.118 82.368 142.388 80.8022 142.388H3.54396C1.58668 142.388 0 140.801 0 138.844L0 111.91ZM35.4396 134.236C35.4396 132.866 36.5502 131.756 37.9203 131.756H43.5907C44.9607 131.756 46.0714 132.866 46.0714 134.236C46.0714 135.607 44.9607 136.717 43.5907 136.717H37.9203C36.5502 136.717 35.4396 135.607 35.4396 134.236ZM21.6181 131.756C20.248 131.756 19.1374 132.866 19.1374 134.236C19.1374 135.607 20.248 136.717 21.6181 136.717H27.2885C28.6586 136.717 29.7692 135.607 29.7692 134.236C29.7692 132.866 28.6586 131.756 27.2885 131.756H21.6181Z" fill="#BBDEFF"/>
<path d="M82.6761 72.4545V71.3636C82.6761 68.8636 82.8731 66.8712 83.267 65.3864C83.661 63.9015 84.2443 62.7121 85.017 61.8182C85.7898 60.9091 86.7367 60.0909 87.858 59.3636C88.8277 58.7273 89.6913 58.1136 90.4489 57.5227C91.2216 56.9318 91.8277 56.303 92.267 55.6364C92.7216 54.9697 92.9489 54.2121 92.9489 53.3636C92.9489 52.6061 92.767 51.9394 92.4034 51.3636C92.0398 50.7879 91.5473 50.3409 90.9261 50.0227C90.3049 49.7045 89.6155 49.5455 88.858 49.5455C88.0398 49.5455 87.2822 49.7348 86.5852 50.1136C85.9034 50.4924 85.3504 51.0151 84.9261 51.6818C84.517 52.3485 84.3125 53.1212 84.3125 54H72.6761C72.7064 50.6667 73.464 47.9621 74.9489 45.8864C76.4337 43.7955 78.4034 42.2652 80.858 41.2955C83.3125 40.3106 86.0095 39.8182 88.9489 39.8182C92.1913 39.8182 95.0852 40.2955 97.6307 41.25C100.176 42.1894 102.184 43.6136 103.653 45.5227C105.123 47.4167 105.858 49.7879 105.858 52.6364C105.858 54.4697 105.54 56.0833 104.903 57.4773C104.282 58.8561 103.411 60.0758 102.29 61.1364C101.184 62.1818 99.8883 63.1364 98.4034 64C97.3125 64.6364 96.3958 65.2955 95.6534 65.9773C94.911 66.6439 94.3504 67.4091 93.9716 68.2727C93.5928 69.1212 93.4034 70.1515 93.4034 71.3636V72.4545H82.6761ZM88.2216 87.7273C86.464 87.7273 84.9564 87.1136 83.6989 85.8864C82.4564 84.6439 81.8428 83.1364 81.858 81.3636C81.8428 79.6364 82.4564 78.1591 83.6989 76.9318C84.9564 75.7045 86.464 75.0909 88.2216 75.0909C89.8883 75.0909 91.358 75.7045 92.6307 76.9318C93.9186 78.1591 94.5701 79.6364 94.5852 81.3636C94.5701 82.5455 94.2595 83.6212 93.6534 84.5909C93.0625 85.5455 92.2898 86.3106 91.3352 86.8864C90.3807 87.447 89.3428 87.7273 88.2216 87.7273Z" fill="url(#paint0_linear_4358_16097)"/>
<defs>
<linearGradient id="paint0_linear_4358_16097" x1="70" y1="25" x2="132.075" y2="56.4408" gradientUnits="userSpaceOnUse">
<stop stop-color="#C2C7FF"/>
<stop offset="1" stop-color="#AD99FF"/>
</linearGradient>
</defs>
</svg>
