<svg width="12" height="13" viewBox="0 0 12 13" fill="none" xmlns="http://www.w3.org/2000/svg">
<path d="M5.61958 1.17082C5.73932 0.802296 6.26068 0.802296 6.38042 1.17082L7.48179 4.56049C7.53534 4.7253 7.68892 4.83688 7.86222 4.83688H11.4263C11.8138 4.83688 11.9749 5.33273 11.6614 5.56049L8.77801 7.65542C8.63782 7.75728 8.57915 7.93782 8.6327 8.10263L9.73407 11.4923C9.85382 11.8608 9.43202 12.1673 9.11854 11.9395L6.23511 9.84458C6.09492 9.74273 5.90508 9.74273 5.76489 9.84458L2.88146 11.9395C2.56798 12.1673 2.14618 11.8608 2.26593 11.4923L3.3673 8.10263C3.42085 7.93782 3.36218 7.75728 3.22199 7.65542L0.338563 5.56049C0.0250777 5.33273 0.186188 4.83688 0.573677 4.83688H4.13778C4.31108 4.83688 4.46466 4.7253 4.51821 4.56049L5.61958 1.17082Z" fill="url(#paint0_linear_1073_5356)"/>
<defs>
<linearGradient id="paint0_linear_1073_5356" x1="-1" y1="0" x2="13" y2="14" gradientUnits="userSpaceOnUse">
<stop stop-color="#C2C7FF"/>
<stop offset="1" stop-color="#AD99FF"/>
</linearGradient>
</defs>
</svg>
