<svg width="11" height="10" viewBox="0 0 11 10" fill="none" xmlns="http://www.w3.org/2000/svg">
<path d="M0.5 7.76917C0.5 6.64336 1.41265 5.73071 2.53846 5.73071H5.07692C6.20273 5.73071 7.11538 6.64336 7.11538 7.76917V8.61533C7.11538 8.8065 6.96041 8.96148 6.76923 8.96148H0.846154C0.654978 8.96148 0.5 8.8065 0.5 8.61533V7.76917Z" stroke="#7A7A7A" stroke-linejoin="round"/>
<path d="M3.8078 4.03846C4.78492 4.03846 5.57704 3.24635 5.57704 2.26923C5.57704 1.29211 4.78492 0.5 3.8078 0.5C2.83069 0.5 2.03857 1.29211 2.03857 2.26923C2.03857 3.24635 2.83069 4.03846 3.8078 4.03846Z" stroke="#7A7A7A"/>
<path d="M8.52545 6.07696V1.84619H9.2434V6.07696H8.52545ZM6.76904 4.32055V3.6026H10.9998V4.32055H6.76904Z" fill="#7A7A7A"/>
</svg>
