<svg width="11" height="10" viewBox="0 0 11 10" fill="none" xmlns="http://www.w3.org/2000/svg">
<path fill-rule="evenodd" clip-rule="evenodd" d="M7.11731 0C7.39345 0 7.61731 0.223858 7.61731 0.5V1.0292H8.64661C9.6212 1.0292 10.4113 1.81926 10.4113 2.79386V8.14648C10.4113 9.12108 9.6212 9.91114 8.64661 9.91114H1.76466C0.790065 9.91114 0 9.12108 0 8.14648V2.79386C0 1.81926 0.790066 1.0292 1.76466 1.0292H2.79403V0.5C2.79403 0.223858 3.01789 0 3.29403 0C3.57017 0 3.79403 0.223858 3.79403 0.5V1.0292H6.61731V0.5C6.61731 0.223858 6.84117 0 7.11731 0ZM1 2.79386C1 2.37155 1.34235 2.0292 1.76466 2.0292H8.64661C9.06892 2.0292 9.41127 2.37155 9.41127 2.79386V3.44089H1V2.79386ZM1 4.44089V8.14648C1 8.56879 1.34235 8.91114 1.76466 8.91114H8.64661C9.06892 8.91114 9.41127 8.56879 9.41127 8.14648V4.44089H1Z" fill="#7A7A7A"/>
</svg>
