<svg width="13" height="12" viewBox="0 0 13 12" fill="none" xmlns="http://www.w3.org/2000/svg">
<path fill-rule="evenodd" clip-rule="evenodd" d="M2.70833 12V9.93199C2.70833 8.71304 3.67838 7.72488 4.875 7.72488H8.125C9.32162 7.72488 10.2917 8.71304 10.2917 9.93199V12C11.9319 10.798 13 8.83674 13 6.62133C13 2.96447 10.0899 0 6.5 0C2.91015 0 0 2.96447 0 6.62133C0 8.83674 1.06809 10.798 2.70833 12ZM8.66667 4.966C8.66667 6.18495 7.69662 7.17311 6.5 7.17311C5.30338 7.17311 4.33333 6.18495 4.33333 4.966C4.33333 3.74704 5.30338 2.75889 6.5 2.75889C7.69662 2.75889 8.66667 3.74704 8.66667 4.966Z" fill="#7A7A7A"/>
</svg>
