<svg width="10" height="10" viewBox="0 0 10 10" fill="none" xmlns="http://www.w3.org/2000/svg">
<mask id="path-1-inside-1_1374_2910" fill="white">
<path fill-rule="evenodd" clip-rule="evenodd" d="M0.64933 0.482666C0.290715 0.482666 0 0.783406 0 1.15439V7.02816V7.19988V9.44689C0 9.87802 0.509139 10.107 0.831724 9.821L3.03021 7.8716H9.09063C9.44924 7.8716 9.73996 7.57086 9.73996 7.19988V1.15439C9.73996 0.783406 9.44924 0.482666 9.09063 0.482666H0.64933Z"/>
</mask>
<path d="M0.831724 9.821L1.49517 10.5692L1.49517 10.5692L0.831724 9.821ZM3.03021 7.8716V6.8716H2.65072L2.36677 7.12338L3.03021 7.8716ZM1 1.15439C1 1.30346 0.874684 1.48267 0.64933 1.48267V-0.517334C-0.293254 -0.517334 -1 0.263346 -1 1.15439H1ZM1 7.02816V1.15439H-1V7.02816H1ZM1 7.19988V7.02816H-1V7.19988H1ZM1 9.44689V7.19988H-1V9.44689H1ZM0.168276 9.07278C0.490862 8.78674 1 9.01575 1 9.44689H-1C-1 10.7403 0.527417 11.4273 1.49517 10.5692L0.168276 9.07278ZM2.36677 7.12338L0.168276 9.07278L1.49517 10.5692L3.69366 8.61982L2.36677 7.12338ZM9.09063 6.8716H3.03021V8.8716H9.09063V6.8716ZM8.73996 7.19988C8.73996 7.0508 8.86527 6.8716 9.09063 6.8716V8.8716C10.0332 8.8716 10.74 8.09092 10.74 7.19988H8.73996ZM8.73996 1.15439V7.19988H10.74V1.15439H8.73996ZM9.09063 1.48267C8.86527 1.48267 8.73996 1.30347 8.73996 1.15439H10.74C10.74 0.263346 10.0332 -0.517334 9.09063 -0.517334V1.48267ZM0.64933 1.48267H9.09063V-0.517334H0.64933V1.48267Z" fill="#92A5BC" mask="url(#path-1-inside-1_1374_2910)"/>
</svg>
