<svg width="48" height="48" viewBox="0 0 48 48" fill="none" xmlns="http://www.w3.org/2000/svg">
<circle cx="18" cy="18" r="18" fill="url(#paint0_linear_1191_1148)"/>
<path fill-rule="evenodd" clip-rule="evenodd" d="M16.8333 18C15.8208 18 15 18.8674 15 19.9375V40.2812C15 41.3513 15.8208 42.2187 16.8333 42.2187H24.7622C25.142 42.2187 25.4889 42.4338 25.6579 42.7739L27.8544 47.1966C28.222 47.9369 29.278 47.9369 29.6456 47.1966L31.8421 42.7739C32.0111 42.4338 32.358 42.2187 32.7378 42.2187H46.1667C47.1792 42.2187 48 41.3513 48 40.2812V19.9375C48 18.8674 47.1792 18 46.1667 18H16.8333ZM31 27C32.1046 27 33 27.8954 33 29V36C33 37.1046 32.1046 38 31 38C29.8954 38 29 37.1046 29 36V29C29 27.8954 29.8954 27 31 27ZM31 26C32.1046 26 33 25.1046 33 24C33 22.8954 32.1046 22 31 22C29.8954 22 29 22.8954 29 24C29 25.1046 29.8954 26 31 26Z" fill="#7A7A7A"/>
<defs>
<linearGradient id="paint0_linear_1191_1148" x1="0" y1="0" x2="36" y2="36" gradientUnits="userSpaceOnUse">
<stop stop-color="#D6EBFF"/>
<stop offset="1" stop-color="#C2C7FF"/>
</linearGradient>
</defs>
</svg>
