<svg xmlns="http://www.w3.org/2000/svg" width="17" height="18" viewBox="0 0 17 18" fill="none">
  <path d="M11.5 9C11.5 10.6569 10.1569 12 8.5 12C6.84315 12 5.5 10.6569 5.5 9C5.5 7.34315 6.84315 6 8.5 6C10.1569 6 11.5 7.34315 11.5 9Z" fill="#868EE8"/>
  <path fill-rule="evenodd" clip-rule="evenodd" d="M8.5 0.5C8.77614 0.5 9 0.723858 9 1V2C9 2.00588 8.9999 2.01173 8.9997 2.01756C12.4674 2.26215 15.2379 5.03257 15.4824 8.5003C15.4883 8.5001 15.4941 8.5 15.5 8.5H16.5C16.7761 8.5 17 8.72386 17 9C17 9.27614 16.7761 9.5 16.5 9.5H15.5C15.4982 9.5 15.4964 9.49999 15.4946 9.49997C15.4905 9.49993 15.4865 9.49984 15.4824 9.4997C15.2379 12.9674 12.4674 15.7379 8.9997 15.9824L8.99997 15.9946L9 16V17C9 17.2761 8.77614 17.5 8.5 17.5C8.22386 17.5 8 17.2761 8 17V16C8 15.9977 8.00002 15.9954 8.00005 15.9931C8.0001 15.9895 8.00018 15.986 8.0003 15.9824C4.53257 15.7379 1.76215 12.9674 1.51756 9.4997C1.51173 9.4999 1.50588 9.5 1.5 9.5H0.5C0.223858 9.5 0 9.27614 0 9C0 8.72386 0.223858 8.5 0.5 8.5H1.5C1.50588 8.5 1.51173 8.5001 1.51756 8.5003C1.76215 5.03257 4.53257 2.26215 8.0003 2.01756C8.0001 2.01173 8 2.00588 8 2V1C8 0.723858 8.22386 0.5 8.5 0.5ZM8.5 15C11.8137 15 14.5 12.3137 14.5 9C14.5 5.68629 11.8137 3 8.5 3C5.18629 3 2.5 5.68629 2.5 9C2.5 12.3137 5.18629 15 8.5 15Z" fill="#868EE8"/>
</svg>