<svg width="45" height="48" viewBox="0 0 45 48" fill="none" xmlns="http://www.w3.org/2000/svg">
<circle cx="18" cy="18" r="18" fill="url(#paint0_linear_1181_1282)"/>
<path d="M12 17C12 16.4477 11.5523 16 11 16H9C8.44772 16 8 16.4477 8 17V41C8 41.5523 8.44771 42 9 42H44C44.5523 42 45 41.5523 45 41V17C45 16.4477 44.5523 16 44 16H42C41.4477 16 41 16.4477 41 17V37C41 37.5523 40.5523 38 40 38H13C12.4477 38 12 37.5523 12 37V17Z" fill="#7A7A7A"/>
<path fill-rule="evenodd" clip-rule="evenodd" d="M14 13C14 12.4477 14.4477 12 15 12H38C38.5523 12 39 12.4477 39 13V19C39 19.5523 38.5523 20 38 20H15C14.4477 20 14 19.5523 14 19V13ZM20 16C20 17.1046 19.1046 18 18 18C16.8954 18 16 17.1046 16 16C16 14.8954 16.8954 14 18 14C19.1046 14 20 14.8954 20 16ZM23 18C24.1046 18 25 17.1046 25 16C25 14.8954 24.1046 14 23 14C21.8954 14 21 14.8954 21 16C21 17.1046 21.8954 18 23 18Z" fill="#7A7A7A"/>
<path fill-rule="evenodd" clip-rule="evenodd" d="M15 22C14.4477 22 14 22.4477 14 23V35C14 35.5523 14.4477 36 15 36H38C38.5523 36 39 35.5523 39 35V23C39 22.4477 38.5523 22 38 22H15ZM18 24.5C17.4477 24.5 17 24.9477 17 25.5C17 26.0523 17.4477 26.5 18 26.5H24.5C25.0523 26.5 25.5 26.0523 25.5 25.5C25.5 24.9477 25.0523 24.5 24.5 24.5H18ZM17 30C17 29.4477 17.4477 29 18 29H24.5C25.0523 29 25.5 29.4477 25.5 30C25.5 30.5523 25.0523 31 24.5 31H18C17.4477 31 17 30.5523 17 30ZM32 32C34.2091 32 36 30.2091 36 28C36 25.7909 34.2091 24 32 24C29.7909 24 28 25.7909 28 28C28 30.2091 29.7909 32 32 32Z" fill="#7A7A7A"/>
<path fill-rule="evenodd" clip-rule="evenodd" d="M22 44C21.4477 44 21 44.4477 21 45V46H17C16.4477 46 16 46.4477 16 47C16 47.5523 16.4477 48 17 48H36C36.5523 48 37 47.5523 37 47C37 46.4477 36.5523 46 36 46H32V45C32 44.4477 31.5523 44 31 44H22Z" fill="#7A7A7A"/>
<defs>
<linearGradient id="paint0_linear_1181_1282" x1="0" y1="0" x2="36" y2="36" gradientUnits="userSpaceOnUse">
<stop stop-color="#D6EBFF"/>
<stop offset="1" stop-color="#C2C7FF"/>
</linearGradient>
</defs>
</svg>
