<svg xmlns="http://www.w3.org/2000/svg" width="16" height="16" viewBox="0 0 16 16" fill="none">
  <rect width="16" height="16" rx="8" fill="#D9D9D9"/>
  <path fill-rule="evenodd" clip-rule="evenodd" d="M11.134 3.60708C10.8054 3.2718 10.2727 3.2718 9.94412 3.60708L4.83184 8.8237C4.72037 8.93744 4.64246 9.08086 4.60698 9.23759L4.14292 11.288C4.00298 11.9063 4.5461 12.4605 5.15204 12.3177L7.16143 11.8442C7.31503 11.808 7.45557 11.7285 7.56704 11.6147L12.6793 6.3981C13.0079 6.06282 13.0079 5.51922 12.6793 5.18394L11.134 3.60708ZM9.69538 6.00354L10.5391 5.14264L11.1745 5.79102L10.3308 6.65192L9.69538 6.00354ZM8.87494 6.84073L6.01217 9.76192L5.82135 10.605L6.64758 10.4103L9.51035 7.48911L8.87494 6.84073Z" fill="white"/>
</svg>