<svg width="91" height="91" viewBox="0 0 91 91" fill="none" xmlns="http://www.w3.org/2000/svg">
<rect x="0.75" y="0.75" width="89.5" height="89.5" rx="10.25" fill="url(#paint0_linear_3826_2623)"/>
<rect x="0.75" y="0.75" width="89.5" height="89.5" rx="10.25" stroke="#D9D9D9" stroke-width="0.5"/>
<path fill-rule="evenodd" clip-rule="evenodd" d="M67.8333 51.6667C65.6242 51.6667 63.8333 53.4576 63.8333 55.6667V58.7542H61.8182C60.814 58.7542 60 59.4515 60 60.3116V79.0003C60 79.8605 60.814 80.5577 61.8182 80.5577L62.5 80.5577C62.5 81.3605 63.2462 82.0113 64.1667 82.0113C65.0871 82.0113 65.8333 81.3605 65.8333 80.5577H74.1667C74.1667 81.3605 74.9129 82.0113 75.8333 82.0113C76.7538 82.0113 77.5 81.3605 77.5 80.5577L78.1818 80.5577C79.186 80.5577 80 79.8605 80 79.0003V60.3116C80 59.4515 79.186 58.7542 78.1818 58.7542H76.1667V55.6667C76.1667 53.4576 74.3758 51.6667 72.1667 51.6667H67.8333ZM72.1667 58.7542V55.6667L67.8333 55.6667V58.7542H72.1667ZM75 61.7516C75.5523 61.7516 76 62.1993 76 62.7516V76.9239C76 77.4762 75.5523 77.9239 75 77.9239C74.4477 77.9239 74 77.4762 74 76.9239V62.7516C74 62.1993 74.4477 61.7516 75 61.7516ZM66 62.7516C66 62.1993 65.5523 61.7516 65 61.7516C64.4477 61.7516 64 62.1993 64 62.7516V76.9239C64 77.4762 64.4477 77.9239 65 77.9239C65.5523 77.9239 66 77.4762 66 76.9239V62.7516ZM70 61.7516C70.5523 61.7516 71 62.1993 71 62.7516V76.9239C71 77.4762 70.5523 77.9239 70 77.9239C69.4477 77.9239 69 77.4762 69 76.9239V62.7516C69 62.1993 69.4477 61.7516 70 61.7516Z" fill="white"/>
<defs>
<linearGradient id="paint0_linear_3826_2623" x1="1" y1="1" x2="90" y2="90" gradientUnits="userSpaceOnUse">
<stop stop-color="#D6EBFF"/>
<stop offset="1" stop-color="#C2C7FF"/>
</linearGradient>
</defs>
</svg>
