<svg width="91" height="91" viewBox="0 0 91 91" fill="none" xmlns="http://www.w3.org/2000/svg">
<rect x="0.75" y="0.75" width="89.5" height="89.5" rx="10.25" fill="url(#paint0_linear_3826_2621)"/>
<rect x="0.75" y="0.75" width="89.5" height="89.5" rx="10.25" stroke="#D9D9D9" stroke-width="0.5"/>
<path fill-rule="evenodd" clip-rule="evenodd" d="M54.5 55C53.6716 55 53 55.7289 53 56.6281V73.7226C53 74.6217 53.6716 75.3506 54.5 75.3506H60.9873C61.298 75.3506 61.5819 75.5314 61.7201 75.8172L63.5172 79.5335C63.818 80.1555 64.682 80.1555 64.9828 79.5335L66.7799 75.8172C66.9181 75.5314 67.202 75.3506 67.5127 75.3506H78.5C79.3284 75.3506 80 74.6217 80 73.7226V56.6281C80 55.7289 79.3284 55 78.5 55H54.5ZM66.0909 62.5626C66.9946 62.5626 67.7273 63.315 67.7273 64.2431V70.1251C67.7273 71.0533 66.9946 71.8057 66.0909 71.8057C65.1872 71.8057 64.4545 71.0533 64.4545 70.1251V64.2431C64.4545 63.315 65.1872 62.5626 66.0909 62.5626ZM66.0909 61.7223C66.9946 61.7223 67.7273 60.9699 67.7273 60.0417C67.7273 59.1136 66.9946 58.3611 66.0909 58.3611C65.1872 58.3611 64.4545 59.1136 64.4545 60.0417C64.4545 60.9699 65.1872 61.7223 66.0909 61.7223Z" fill="white"/>
<defs>
<linearGradient id="paint0_linear_3826_2621" x1="1" y1="1" x2="90" y2="90" gradientUnits="userSpaceOnUse">
<stop stop-color="#D6EBFF"/>
<stop offset="1" stop-color="#C2C7FF"/>
</linearGradient>
</defs>
</svg>
