<svg width="191" height="87" viewBox="0 0 191 87" fill="none" xmlns="http://www.w3.org/2000/svg">
<rect x="0.75" y="86.25" width="85.5" height="189.5" rx="10.25" transform="rotate(-90 0.75 86.25)" fill="url(#paint0_linear_3826_2588)" stroke="#D9D9D9" stroke-width="0.5"/>
<path d="M140 44C140 43.4477 139.552 43 139 43H137C136.448 43 136 43.4477 136 44V68C136 68.5523 136.448 69 137 69H172C172.552 69 173 68.5523 173 68V44C173 43.4477 172.552 43 172 43H170C169.448 43 169 43.4477 169 44V64C169 64.5523 168.552 65 168 65H141C140.448 65 140 64.5523 140 64V44Z" fill="white"/>
<path fill-rule="evenodd" clip-rule="evenodd" d="M142 40C142 39.4477 142.448 39 143 39H166C166.552 39 167 39.4477 167 40V46C167 46.5523 166.552 47 166 47H143C142.448 47 142 46.5523 142 46V40ZM148 43C148 44.1046 147.105 45 146 45C144.895 45 144 44.1046 144 43C144 41.8954 144.895 41 146 41C147.105 41 148 41.8954 148 43ZM151 45C152.105 45 153 44.1046 153 43C153 41.8954 152.105 41 151 41C149.895 41 149 41.8954 149 43C149 44.1046 149.895 45 151 45Z" fill="white"/>
<path fill-rule="evenodd" clip-rule="evenodd" d="M143 49C142.448 49 142 49.4477 142 50V62C142 62.5523 142.448 63 143 63H166C166.552 63 167 62.5523 167 62V50C167 49.4477 166.552 49 166 49H143ZM146 51.5C145.448 51.5 145 51.9477 145 52.5C145 53.0523 145.448 53.5 146 53.5H152.5C153.052 53.5 153.5 53.0523 153.5 52.5C153.5 51.9477 153.052 51.5 152.5 51.5H146ZM145 57C145 56.4477 145.448 56 146 56H152.5C153.052 56 153.5 56.4477 153.5 57C153.5 57.5523 153.052 58 152.5 58H146C145.448 58 145 57.5523 145 57ZM160 59C162.209 59 164 57.2091 164 55C164 52.7909 162.209 51 160 51C157.791 51 156 52.7909 156 55C156 57.2091 157.791 59 160 59Z" fill="white"/>
<path fill-rule="evenodd" clip-rule="evenodd" d="M150 71C149.448 71 149 71.4477 149 72V73H145C144.448 73 144 73.4477 144 74C144 74.5523 144.448 75 145 75H164C164.552 75 165 74.5523 165 74C165 73.4477 164.552 73 164 73H160V72C160 71.4477 159.552 71 159 71H150Z" fill="white"/>
<circle cx="141.5" cy="43.5" r="21.5" fill="url(#paint1_linear_3826_2588)" fill-opacity="0.3"/>
<defs>
<linearGradient id="paint0_linear_3826_2588" x1="1" y1="86" x2="142.4" y2="149.593" gradientUnits="userSpaceOnUse">
<stop stop-color="#C2C7FF"/>
<stop offset="1" stop-color="#AD99FF"/>
</linearGradient>
<linearGradient id="paint1_linear_3826_2588" x1="120" y1="22" x2="163" y2="65" gradientUnits="userSpaceOnUse">
<stop stop-color="white"/>
<stop offset="1" stop-color="white" stop-opacity="0"/>
</linearGradient>
</defs>
</svg>
