<svg width="91" height="91" viewBox="0 0 91 91" fill="none" xmlns="http://www.w3.org/2000/svg">
<rect x="0.75" y="0.75" width="89.5" height="89.5" rx="10.25" fill="url(#paint0_linear_3826_2622)"/>
<rect x="0.75" y="0.75" width="89.5" height="89.5" rx="10.25" stroke="#D9D9D9" stroke-width="0.5"/>
<path fill-rule="evenodd" clip-rule="evenodd" d="M74.4465 54.1213C73.2749 52.9497 71.3754 52.9497 70.2039 54.1213L54.0126 70.3126C53.5373 70.7879 53.2354 71.409 53.1553 72.0765L52.5358 77.2395C52.3041 79.1697 53.9415 80.8072 55.8718 80.5755L61.0348 79.956C61.7022 79.8759 62.3234 79.574 62.7987 79.0986L78.99 62.9074C80.1615 61.7358 80.1615 59.8363 78.99 58.6648L74.4465 54.1213ZM65.6604 61.4932L55.4268 71.7268C55.2684 71.8852 55.1678 72.0923 55.1411 72.3147L54.5215 77.4777C54.4443 78.1212 54.9901 78.667 55.6335 78.5898L60.7965 77.9702C61.019 77.9435 61.2261 77.8429 61.3845 77.6844L71.6181 67.4508L65.6604 61.4932Z" fill="white"/>
<defs>
<linearGradient id="paint0_linear_3826_2622" x1="1" y1="1" x2="90" y2="90" gradientUnits="userSpaceOnUse">
<stop stop-color="#D6EBFF"/>
<stop offset="1" stop-color="#C2C7FF"/>
</linearGradient>
</defs>
</svg>
