<svg width="91" height="186" viewBox="0 0 91 186" fill="none" xmlns="http://www.w3.org/2000/svg">
<rect x="90.25" y="185.25" width="89.5" height="184.5" rx="10.25" transform="rotate(-180 90.25 185.25)" fill="url(#paint0_linear_3826_2624)" stroke="#D9D9D9" stroke-width="0.5"/>
<circle cx="45.5" cy="140.5" r="21.5" fill="url(#paint1_linear_3826_2624)" fill-opacity="0.3"/>
<path d="M78 148V173H53" stroke="white" stroke-width="4" stroke-linecap="round" stroke-linejoin="round"/>
<path fill-rule="evenodd" clip-rule="evenodd" d="M70.8261 141C71.4744 141 72 141.526 72 142.174V166.826C72 167.474 71.4744 168 70.8261 168H46.1739C45.5256 168 45 167.474 45 166.826V142.174C45 141.526 45.5256 141 46.1739 141H70.8261ZM66 148C66.5523 148 67 148.448 67 149C67 149.552 66.5523 150 66 150H51C50.4477 150 50 149.552 50 149C50 148.448 50.4477 148 51 148H66ZM67 154C67 153.448 66.5523 153 66 153H51C50.4477 153 50 153.448 50 154C50 154.552 50.4477 155 51 155H66C66.5523 155 67 154.552 67 154ZM66 158C66.5523 158 67 158.448 67 159C67 159.552 66.5523 160 66 160H56C55.4477 160 55 159.552 55 159C55 158.448 55.4477 158 56 158H66Z" fill="white"/>
<defs>
<linearGradient id="paint0_linear_3826_2624" x1="90" y1="185" x2="234.251" y2="254.774" gradientUnits="userSpaceOnUse">
<stop stop-color="#C2C7FF"/>
<stop offset="1" stop-color="#AD99FF"/>
</linearGradient>
<linearGradient id="paint1_linear_3826_2624" x1="24" y1="119" x2="67" y2="162" gradientUnits="userSpaceOnUse">
<stop stop-color="white"/>
<stop offset="1" stop-color="white" stop-opacity="0"/>
</linearGradient>
</defs>
</svg>
