<svg width="49" height="30" viewBox="0 0 49 30" fill="none" xmlns="http://www.w3.org/2000/svg">
<path d="M28.2486 15.0003C28.2486 18.2517 27.6198 20.9912 26.3627 23.2202C25.105 25.4493 23.4082 27.1366 21.2716 28.2821C19.1351 29.4276 16.7526 30 14.1243 30C11.496 30 9.08723 29.4227 6.9555 28.2675C4.82376 27.1122 3.13112 25.4207 1.87895 23.1917C0.626085 20.9626 0 18.2322 0 15.0003C0 11.7685 0.626085 9.00954 1.87895 6.78048C3.13181 4.55143 4.82376 2.86414 6.9555 1.71862C9.08792 0.573106 11.4773 0 14.1243 0C16.7713 0 19.1351 0.573106 21.2716 1.71793C23.4082 2.86344 25.105 4.55073 26.3627 6.77979C27.6198 9.00884 28.2486 11.749 28.2486 14.9997V15.0003ZM20.1372 15.0003C20.1372 13.2518 19.908 11.7755 19.4495 10.5729C18.991 9.37026 18.3151 8.45802 17.4216 7.83547C16.5282 7.21292 15.4291 6.90165 14.1243 6.90165C12.8195 6.90165 11.7204 7.21292 10.827 7.83547C9.93355 8.45802 9.25761 9.37095 8.79912 10.5729C8.34064 11.7755 8.1114 13.2511 8.1114 15.0003C8.1114 16.7496 8.34064 18.2252 8.79912 19.4278C9.25761 20.6304 9.93355 21.5427 10.827 22.1652C11.7204 22.7878 12.8195 23.099 14.1243 23.099C15.4291 23.099 16.5282 22.7878 17.4216 22.1652C18.3151 21.5427 18.991 20.6304 19.4495 19.4278C19.908 18.2252 20.1372 16.7496 20.1372 15.0003Z" fill="url(#paint0_linear_3421_12644)"/>
<path d="M48.8235 19.2245C48.8215 14.0575 44.6556 9.86957 39.5161 9.86957C34.3765 9.86957 30.2107 14.0575 30.2086 19.2245V30H36.8462V19.5532C36.8476 19.4459 36.8531 19.3422 36.8614 19.2405H36.8628C36.8628 19.2349 36.8628 19.2294 36.8628 19.2238C36.8628 17.7482 38.0527 16.5519 39.5202 16.5519C40.9878 16.5519 42.1776 17.7482 42.1776 19.2238C42.1776 19.2294 42.1776 19.2349 42.1776 19.2405H42.179C42.1845 19.3422 42.1873 19.4459 42.1866 19.5532V30H48.8242V19.2245H48.8235Z" fill="url(#paint1_linear_3421_12644)"/>
<defs>
<linearGradient id="paint0_linear_3421_12644" x1="0" y1="0" x2="29.9458" y2="28.1976" gradientUnits="userSpaceOnUse">
<stop stop-color="#D6EBFF"/>
<stop offset="1" stop-color="#C2C7FF"/>
</linearGradient>
<linearGradient id="paint1_linear_3421_12644" x1="30.2086" y1="9.86957" x2="50.2776" y2="28.4284" gradientUnits="userSpaceOnUse">
<stop stop-color="#D6EBFF"/>
<stop offset="1" stop-color="#C2C7FF"/>
</linearGradient>
</defs>
</svg>
