<svg width="264" height="395" viewBox="0 0 264 395" fill="none" xmlns="http://www.w3.org/2000/svg">
<path fill-rule="evenodd" clip-rule="evenodd" d="M163.42 380C177.431 364.918 186 344.71 186 322.5C186 275.832 148.168 238 101.5 238C54.8319 238 17 275.832 17 322.5C17 344.71 25.5685 364.918 39.5802 380H163.42Z" fill="#EEEEEE" fill-opacity="0.8"/>
<path d="M11.28 34.32H62.8V42.8H11.28V34.32ZM11.28 14.4H21.92V38.16H11.28V14.4ZM3.28 50.96H70.24V59.52H3.28V50.96ZM18.48 54H29.12V85.12H18.48V54ZM44.32 54H54.96V85.12H44.32V54ZM93.4337 36.08H104.074V49.76H93.4337V36.08ZM119.514 36.08H130.074V49.76H119.514V36.08ZM111.914 12.32C128.234 12.32 138.714 17.84 138.714 26.8C138.714 35.84 128.234 41.36 111.914 41.36C95.5938 41.36 85.1137 35.84 85.1137 26.8C85.1137 17.84 95.5938 12.32 111.914 12.32ZM111.914 20.56C101.754 20.56 96.0737 22.56 96.0737 26.8C96.0737 31.04 101.754 33.12 111.914 33.12C121.994 33.12 127.754 31.04 127.754 26.8C127.754 22.56 121.994 20.56 111.914 20.56ZM78.3937 47.44H145.354V55.84H78.3937V47.44ZM85.8337 60.88H137.274V85.12H126.634V69.28H85.8337V60.88ZM169.592 70.0455L169.365 73.2273C169.175 75.9545 168.721 78.5682 168.001 81.0682C167.3 83.5682 166.552 85.7841 165.757 87.7159C164.98 89.6477 164.365 91.1439 163.91 92.2045H154.251C154.554 91.1439 154.98 89.6098 155.53 87.6023C156.098 85.6136 156.609 83.3598 157.064 80.8409C157.537 78.3409 157.774 75.803 157.774 73.2273V70.0455H169.592Z" fill="url(#paint0_linear_2287_6584)"/>
<path d="M12.64 107.24H15.32V125.82H12.64V107.24ZM14.72 114.1H18V116.28H14.72V114.1ZM1.52 119.16H3.08C6.2 119.16 8.66 119.06 11.38 118.58L11.64 120.78C8.84 121.28 6.3 121.36 3.08 121.36H1.52V119.16ZM1.52 108.96H10.16V111.1H4.16V120.22H1.52V108.96ZM33.3584 109.54H36.5584V111.7H33.3584V109.54ZM33.3584 113.56H36.5584V115.72H33.3584V113.56ZM24.7584 108.26C27.6184 108.26 29.7984 110.14 29.7984 112.76C29.7984 115.36 27.6184 117.24 24.7584 117.24C21.8984 117.24 19.7184 115.36 19.7184 112.76C19.7184 110.14 21.8984 108.26 24.7584 108.26ZM24.7584 110.48C23.3584 110.48 22.3184 111.34 22.3184 112.76C22.3184 114.2 23.3584 115.02 24.7584 115.02C26.1584 115.02 27.1984 114.2 27.1984 112.76C27.1984 111.34 26.1584 110.48 24.7584 110.48ZM31.5184 107.26H34.1784V118.06H31.5184V107.26ZM28.1384 118.46C31.9584 118.46 34.3984 119.84 34.3984 122.12C34.3984 124.42 31.9584 125.78 28.1384 125.78C24.2984 125.78 21.8584 124.42 21.8584 122.12C21.8584 119.84 24.2984 118.46 28.1384 118.46ZM28.1384 120.56C25.7784 120.56 24.4984 121.06 24.4984 122.12C24.4984 123.2 25.7784 123.7 28.1384 123.7C30.4984 123.7 31.7584 123.2 31.7584 122.12C31.7584 121.06 30.4984 120.56 28.1384 120.56ZM42.6969 108.22H44.9169V109.88C44.9169 113.6 43.2569 116.86 39.6169 118.08L38.2369 115.94C41.3969 114.92 42.6969 112.42 42.6969 109.88V108.22ZM43.2569 108.22H45.3969V109.76C45.3969 112.22 46.5969 114.5 49.5369 115.44L48.1569 117.52C44.7369 116.34 43.2569 113.36 43.2569 109.76V108.22ZM51.2369 107.26H53.8969V118.1H51.2369V107.26ZM47.6169 118.58C51.5369 118.58 53.9569 119.92 53.9569 122.18C53.9569 124.46 51.5369 125.78 47.6169 125.78C43.6969 125.78 41.2769 124.46 41.2769 122.18C41.2769 119.92 43.6969 118.58 47.6169 118.58ZM47.6169 120.64C45.2169 120.64 43.9369 121.14 43.9369 122.18C43.9369 123.22 45.2169 123.74 47.6169 123.74C50.0369 123.74 51.3169 123.22 51.3169 122.18C51.3169 121.14 50.0369 120.64 47.6169 120.64ZM47.8569 110.62H51.6169V112.78H47.8569V110.62ZM57.9753 109.1H65.9553V111.2H57.9753V109.1ZM60.3553 114.4H62.9753V120.68H60.3553V114.4ZM64.8953 109.1H67.5153V110.6C67.5153 112.4 67.5153 114.64 67.0153 117.72L64.4153 117.48C64.8953 114.52 64.8953 112.38 64.8953 110.6V109.1ZM69.0953 107.26H71.7553V125.78H69.0953V107.26ZM70.9753 114.7H74.2353V116.9H70.9753V114.7ZM57.2753 122.04L57.0353 119.9C60.2953 119.9 64.6153 119.84 68.2553 119.38L68.3953 121.32C64.6553 121.96 60.4953 122.04 57.2753 122.04ZM88.7547 114.08H91.7947V116.22H88.7547V114.08ZM94.7347 107.26H97.2747V125.78H94.7347V107.26ZM90.9547 107.54H93.4547V124.94H90.9547V107.54ZM85.5147 108.56C87.9747 108.56 89.5547 111.1 89.5547 115.28C89.5547 119.48 87.9747 122.02 85.5147 122.02C83.0747 122.02 81.5147 119.48 81.5147 115.28C81.5147 111.1 83.0747 108.56 85.5147 108.56ZM85.5147 111.06C84.5147 111.06 83.9347 112.46 83.9347 115.28C83.9347 118.12 84.5147 119.5 85.5147 119.5C86.5547 119.5 87.1347 118.12 87.1347 115.28C87.1347 112.46 86.5547 111.06 85.5147 111.06ZM113.053 107.26H115.713V125.84H113.053V107.26ZM108.073 112.98H113.813V115.12H108.073V112.98ZM101.113 109.24H103.753V120.74H101.113V109.24ZM101.113 119.28H102.673C105.313 119.28 108.053 119.1 110.933 118.52L111.213 120.72C108.233 121.32 105.393 121.48 102.673 121.48H101.113V119.28ZM123.412 110.18H125.532V112.26C125.532 116.54 123.792 120.72 120.312 122.3L118.812 120.2C121.912 118.82 123.412 115.4 123.412 112.26V110.18ZM124.012 110.18H126.112V112.26C126.112 115.26 127.592 118.46 130.692 119.74L129.252 121.84C125.732 120.32 124.012 116.38 124.012 112.26V110.18ZM119.552 109.04H129.932V111.22H119.552V109.04ZM131.652 107.26H134.332V125.78H131.652V107.26ZM149.59 107.24H152.27V125.76H149.59V107.24ZM151.57 114.32H154.83V116.5H151.57V114.32ZM144.73 109.16H147.33C147.33 114.72 145.21 119.48 139.05 122.58L137.57 120.56C142.43 118.04 144.73 114.64 144.73 109.62V109.16ZM138.59 109.16H146.09V111.3H138.59V109.16ZM165.089 118.62H177.409V125.58H165.089V118.62ZM174.809 120.7H167.709V123.48H174.809V120.7ZM162.929 108.24H165.569V115.92H162.929V108.24ZM162.929 114.96H164.469C167.089 114.96 169.789 114.8 172.609 114.24L172.889 116.44C169.989 117.02 167.189 117.18 164.469 117.18H162.929V114.96ZM174.749 107.26H177.409V117.82H174.749V107.26ZM170.269 110.34H175.329V112.48H170.269V110.34ZM193.428 107.26H196.108V125.78H193.428V107.26ZM185.268 112.06H187.368V113.02C187.368 116.94 185.628 120.88 182.208 122.36L180.788 120.32C183.828 118.96 185.268 115.82 185.268 113.02V112.06ZM185.848 112.06H187.928V113.02C187.928 115.68 189.388 118.72 192.448 120.02L191.028 122.06C187.608 120.64 185.848 116.82 185.848 113.02V112.06ZM181.408 110.28H191.708V112.38H181.408V110.28ZM185.268 107.68H187.928V111.36H185.268V107.68ZM201.586 112.26H214.426V114.36H201.586V112.26ZM199.506 116.28H216.286V118.4H199.506V116.28ZM201.586 107.92H204.226V113.3H201.586V107.92ZM201.406 123.26H214.526V125.38H201.406V123.26ZM201.406 119.88H204.066V123.82H201.406V119.88ZM225.626 115.52H238.646V117.64H225.626V115.52ZM223.686 121.52H240.446V123.7H223.686V121.52ZM230.706 116.48H233.366V122.22H230.706V116.48ZM225.626 108.52H238.506V110.66H228.286V116.44H225.626V108.52ZM246.984 108.68H249.144V111.38C249.144 116.14 247.504 120.44 243.824 122.14L242.244 119.94C245.464 118.54 246.984 114.98 246.984 111.38V108.68ZM247.504 108.68H249.664V111.38C249.664 114.8 251.124 118.2 254.284 119.56L252.724 121.7C249.144 120.06 247.504 115.94 247.504 111.38V108.68ZM255.164 107.24H257.844V125.82H255.164V107.24Z" fill="#D0D6DA"/>
<circle cx="209.5" cy="237.5" r="13.5" fill="#F1F1F1"/>
<rect x="28" y="380" width="233" height="12" rx="6" fill="#F1F1F1" stroke="white" stroke-width="6"/>
<path d="M25.2226 204.924C23.7876 204.924 22.729 206.265 23.0614 207.661L25.7062 218.769C25.9445 219.77 26.8387 220.476 27.8675 220.476H29.9649C30.1548 220.476 30.3382 220.452 30.5126 220.408C30.5345 220.403 30.5559 220.419 30.5559 220.442C30.5559 220.461 30.5712 220.476 30.59 220.476H60.1777C61.4047 220.476 62.3993 219.481 62.3993 218.254C62.3993 215.391 60.0785 213.07 57.2155 213.07H32.1842C31.4984 213.07 30.9023 212.6 30.7434 211.932L29.4813 206.631C29.243 205.631 28.3488 204.924 27.3201 204.924H25.2226Z" fill="#D0D6DA"/>
<path d="M38.1785 199.912C38.0677 199.447 38.4205 199 38.8989 199H43.0892C43.4321 199 43.7302 199.235 43.8096 199.569L46.6307 211.418C46.7415 211.883 46.3887 212.33 45.9103 212.33H41.72C41.3771 212.33 41.079 212.094 40.9996 211.761L38.1785 199.912Z" fill="#D0D6DA"/>
<path d="M15 225L38 225" stroke="#F1F1F1" stroke-width="2" stroke-linecap="round" stroke-linejoin="round"/>
<rect x="37" y="364" width="9" height="13" rx="2" fill="#D0D6DA"/>
<rect x="157" y="364" width="9" height="13" rx="2" fill="#D0D6DA"/>
<path d="M22.9801 271C21.7007 271 20.7575 272.486 21.0553 274.032L37.6318 360.113C37.8449 361.22 38.641 362 39.5567 362H43.4433C44.359 362 45.1551 361.22 45.3682 360.113L61.9447 274.032C62.2425 272.486 61.2993 271 60.0199 271H22.9801Z" fill="white"/>
<path d="M142.98 271C141.701 271 140.758 272.486 141.055 274.032L157.632 360.113C157.845 361.22 158.641 362 159.557 362H163.443C164.359 362 165.155 361.22 165.368 360.113L181.945 274.032C182.242 272.486 181.299 271 180.02 271H142.98Z" fill="white"/>
<rect x="73" y="343" width="57" height="16" rx="2" fill="#BBDEFF"/>
<rect x="88" y="333" width="9" height="11" fill="#BBDEFF"/>
<rect x="107" y="333" width="9" height="11" fill="#BBDEFF"/>
<rect x="60" y="249" width="6" height="14" rx="1" fill="#BBDEFF"/>
<rect x="61" y="231" width="4" height="7" rx="1" fill="#BBDEFF"/>
<rect x="55" y="240" width="16" height="6" rx="1" fill="#BBDEFF"/>
<path d="M102 230C99.7906 230 97.9997 231.791 97.9997 234V240H93.9997C93.8886 240 93.7786 240.005 93.6698 240.013L89.6566 236C88.0945 234.438 85.5618 234.438 83.9997 236C82.4376 237.562 82.4376 240.095 83.9997 241.657L89.6566 247.314C89.7664 247.424 89.881 247.526 89.9997 247.62V259C89.9997 261.209 91.7906 263 93.9997 263H110C112.209 263 114 261.209 114 259V247.846C114.232 247.695 114.453 247.518 114.656 247.314L120.313 241.657C121.875 240.095 121.875 237.562 120.313 236C118.751 234.438 116.218 234.438 114.656 236L110.61 240.046C110.411 240.016 110.207 240 110 240H106V234C106 231.791 104.209 230 102 230Z" fill="#BBDEFF" stroke="white" stroke-width="4"/>
<path fill-rule="evenodd" clip-rule="evenodd" d="M65.5666 254.933C64.2348 254.094 62.5 255.051 62.5 256.625V259.208C62.5 259.717 62.6938 260.207 63.0419 260.577L83.4581 282.325C83.8062 282.696 84 283.185 84 283.694V323.228L120 309.654V286.64C120 285.315 121.266 284.356 122.541 284.715L133.459 287.785C134.734 288.144 136 287.185 136 285.86V282.387C136 281.822 135.761 281.284 135.343 280.905L120.572 267.518C120.204 267.185 119.725 267 119.229 267H85.2847C84.9072 267 84.5374 266.893 84.2181 266.692L65.5666 254.933ZM120 314.998L84 328.572V333C84 334.105 84.8954 335 86 335H118C119.105 335 120 334.105 120 333V314.998Z" fill="#BBDEFF"/>
<path fill-rule="evenodd" clip-rule="evenodd" d="M65 356C63.8954 356 63 356.895 63 358V375C63 376.105 63.8954 377 65 377H138C139.105 377 140 376.105 140 375V358C140 356.895 139.105 356 138 356H65ZM72 364C72 362.895 72.8954 362 74 362H78C79.1046 362 80 362.895 80 364V368C80 369.105 79.1046 370 78 370H74C72.8954 370 72 369.105 72 368V364ZM85 364C85 362.895 85.8954 362 87 362H91C92.1046 362 93 362.895 93 364V368C93 369.105 92.1046 370 91 370H87C85.8954 370 85 369.105 85 368V364ZM98 364C98 362.895 98.8954 362 100 362H104C105.105 362 106 362.895 106 364V368C106 369.105 105.105 370 104 370H100C98.8954 370 98 369.105 98 368V364ZM126 362C124.895 362 124 362.895 124 364V368C124 369.105 124.895 370 126 370H130C131.105 370 132 369.105 132 368V364C132 362.895 131.105 362 130 362H126ZM113 362C111.895 362 111 362.895 111 364V368C111 369.105 111.895 370 113 370H117C118.105 370 119 369.105 119 368V364C119 362.895 118.105 362 117 362H113Z" fill="#BBDEFF"/>
<rect x="109.268" y="297.445" width="36" height="21" rx="4" transform="rotate(-60 109.268 297.445)" fill="#BBDEFF" stroke="white" stroke-width="4"/>
<path d="M174.969 354.68C174.498 353.376 175.463 352 176.85 352H258.15C259.537 352 260.502 353.376 260.031 354.68L252.438 375.68C252.152 376.472 251.4 377 250.557 377H184.443C183.6 377 182.848 376.472 182.562 375.68L174.969 354.68Z" fill="#BBDEFF"/>
<rect x="184" y="340" width="67" height="10" rx="2" fill="#BBDEFF"/>
<path fill-rule="evenodd" clip-rule="evenodd" d="M199 314C197.895 314 197 314.895 197 316V319H205V316C205 314.895 204.105 314 203 314H199ZM205 323V331C205 332.105 205.895 333 207 333C208.105 333 209 332.105 209 331V323H217V331C217 332.105 217.895 333 219 333H246C247.105 333 248 333.895 248 335V336C248 337.105 247.105 338 246 338H189C187.895 338 187 337.105 187 336V335C187 333.895 187.895 333 189 333H195C196.105 333 197 332.105 197 331V323H205ZM217 319H209V316C209 314.895 209.895 314 211 314H215C216.105 314 217 314.895 217 316V319Z" fill="#BBDEFF"/>
<path fill-rule="evenodd" clip-rule="evenodd" d="M229.5 370C233.09 370 236 367.09 236 363.5C236 359.91 233.09 357 229.5 357C225.91 357 223 359.91 223 363.5C223 367.09 225.91 370 229.5 370ZM229.5 368C231.985 368 234 365.985 234 363.5C234 361.015 231.985 359 229.5 359C227.015 359 225 361.015 225 363.5C225 365.985 227.015 368 229.5 368Z" fill="white"/>
<path fill-rule="evenodd" clip-rule="evenodd" d="M210.5 370C214.09 370 217 367.09 217 363.5C217 359.91 214.09 357 210.5 357C206.91 357 204 359.91 204 363.5C204 367.09 206.91 370 210.5 370ZM210.5 368C212.985 368 215 365.985 215 363.5C215 361.015 212.985 359 210.5 359C208.015 359 206 361.015 206 363.5C206 365.985 208.015 368 210.5 368Z" fill="white"/>
<path fill-rule="evenodd" clip-rule="evenodd" d="M191.5 370C195.09 370 198 367.09 198 363.5C198 359.91 195.09 357 191.5 357C187.91 357 185 359.91 185 363.5C185 367.09 187.91 370 191.5 370ZM191.5 368C193.985 368 196 365.985 196 363.5C196 361.015 193.985 359 191.5 359C189.015 359 187 361.015 187 363.5C187 365.985 189.015 368 191.5 368Z" fill="white"/>
<path d="M206.352 295.587C206.136 295.471 206 295.245 206 295C206 292.239 203.761 290 201 290C198.239 290 196 292.239 196 295C196 296.911 197.072 298.572 198.648 299.413C198.864 299.529 199 299.755 199 300C199 301.207 198.426 302.547 197.552 303.379C196.596 304.29 196 305.575 196 307C196 309.761 198.239 312 201 312C203.761 312 206 309.761 206 307C206 305.793 206.574 304.453 207.448 303.621C208.404 302.71 209 301.425 209 300C209 298.089 207.928 296.428 206.352 295.587Z" fill="#F1F1F1"/>
<circle cx="205" cy="282" r="3" fill="#F1F1F1"/>
<path fill-rule="evenodd" clip-rule="evenodd" d="M216.8 311.4C218.102 310.422 219 308.628 219 307C219 305.343 217.657 304 216 304C215.325 304 214.701 304.223 214.2 304.6C212.898 305.578 212 307.372 212 309C212 310.657 213.343 312 215 312C215.675 312 216.299 311.777 216.8 311.4Z" fill="#F1F1F1"/>
<defs>
<linearGradient id="paint0_linear_2287_6584" x1="0" y1="0" x2="82.0099" y2="148.801" gradientUnits="userSpaceOnUse">
<stop stop-color="#D6EBFF"/>
<stop offset="1" stop-color="#C2C7FF"/>
</linearGradient>
</defs>
</svg>
