<svg width="239" height="200" viewBox="0 0 239 200" fill="none" xmlns="http://www.w3.org/2000/svg">
<path fill-rule="evenodd" clip-rule="evenodd" d="M239 97C239 150.572 195.572 194 142 194C88.4284 194 45 150.572 45 97C45 43.4284 88.4284 0 142 0C165.673 0 187.366 8.48037 204.205 22.5689C201.56 25.1726 199.463 28.3309 198.102 31.8554C191.073 32.5677 185.241 37.3335 182.981 43.7788C182.649 43.7511 182.313 43.737 181.974 43.737C175.361 43.737 170 49.0978 170 55.7107C170 59.8579 172.108 63.5127 175.312 65.6616C176 66.8698 177.3 67.6844 178.79 67.6844H234.491C237.42 76.9333 239 86.7822 239 97ZM99.3947 36.8685C99.3947 37.2323 99.411 37.5922 99.4431 37.9476L99.3949 37.9474C96.4155 37.9474 94.0001 40.3628 94.0001 43.3422C94.0001 46.3097 96.3961 48.7176 99.3591 48.7369L99.3943 48.737H129.605L129.639 48.7369C132.603 48.7188 135 46.3105 135 43.3422C135 40.3628 132.585 37.9474 129.605 37.9474C129.452 37.9474 129.301 37.9538 129.151 37.9663C128.133 35.0624 125.506 32.9152 122.339 32.5943C120.623 28.1515 116.311 25 111.263 25C104.708 25 99.3947 30.3137 99.3947 36.8685Z" fill="#EEEEEE"/>
<path fill-rule="evenodd" clip-rule="evenodd" d="M115 80C115 78.3431 116.343 77 118 77H169C170.657 77 172 78.3431 172 80V106H196C202.627 106 208 111.373 208 118V182C208 188.627 202.627 194 196 194H90C83.3726 194 78 188.627 78 182V118C78 111.373 83.3726 106 90 106H115V80ZM122.703 106H164.298V87.2034C164.298 85.5465 162.955 84.2034 161.298 84.2034H125.703C124.046 84.2034 122.703 85.5465 122.703 87.2034V106Z" fill="url(#paint0_linear_1259_5235)"/>
<rect x="186" y="106" width="9" height="88" fill="white"/>
<path fill-rule="evenodd" clip-rule="evenodd" d="M159 115.5V106H156V115.5H156.034L149.296 124.234C149.104 124.483 149 124.789 149 125.104V148.078C149 148.863 149.634 149.5 150.417 149.5H164.583C165.366 149.5 166 148.863 166 148.078V125.104C166 124.789 165.896 124.483 165.704 124.234L158.966 115.5H159Z" fill="white"/>
<mask id="path-5-outside-1_1259_5235" maskUnits="userSpaceOnUse" x="0" y="15" width="100" height="185" fill="black">
<rect fill="white" y="15" width="100" height="185"/>
<path fill-rule="evenodd" clip-rule="evenodd" d="M29 24C29 22.3431 30.3431 21 32 21H67C68.6569 21 70 22.3431 70 24V64H82C88.6274 64 94 69.3726 94 76V182C94 188.627 88.6274 194 82 194H18C11.3726 194 6 188.627 6 182V76C6 69.3726 11.3726 64 18 64H29V24ZM34.5405 64H64.4595V29.5405C64.4595 27.8837 63.1163 26.5405 61.4595 26.5405H37.5405C35.8837 26.5405 34.5405 27.8837 34.5405 29.5405V64Z"/>
</mask>
<path fill-rule="evenodd" clip-rule="evenodd" d="M29 24C29 22.3431 30.3431 21 32 21H67C68.6569 21 70 22.3431 70 24V64H82C88.6274 64 94 69.3726 94 76V182C94 188.627 88.6274 194 82 194H18C11.3726 194 6 188.627 6 182V76C6 69.3726 11.3726 64 18 64H29V24ZM34.5405 64H64.4595V29.5405C64.4595 27.8837 63.1163 26.5405 61.4595 26.5405H37.5405C35.8837 26.5405 34.5405 27.8837 34.5405 29.5405V64Z" fill="url(#paint1_linear_1259_5235)"/>
<path d="M70 64H64V70H70V64ZM29 64V70H35V64H29ZM34.5405 64H28.5405V70H34.5405V64ZM64.4595 64V70H70.4595V64H64.4595ZM32 15C27.0294 15 23 19.0294 23 24H35C35 25.6569 33.6568 27 32 27V15ZM67 15H32V27H67V15ZM76 24C76 19.0294 71.9706 15 67 15V27C65.3431 27 64 25.6569 64 24H76ZM76 64V24H64V64H76ZM70 70H82V58H70V70ZM82 70C85.3137 70 88 72.6863 88 76H100C100 66.0589 91.9411 58 82 58V70ZM88 76V182H100V76H88ZM88 182C88 185.314 85.3137 188 82 188V200C91.9411 200 100 191.941 100 182H88ZM82 188H18V200H82V188ZM18 188C14.6863 188 12 185.314 12 182H0C0 191.941 8.05887 200 18 200V188ZM12 182V76H0V182H12ZM12 76C12 72.6863 14.6863 70 18 70V58C8.05888 58 0 66.0589 0 76H12ZM18 70H29V58H18V70ZM23 24V64H35V24H23ZM34.5405 70H64.4595V58H34.5405V70ZM58.4595 29.5405V64H70.4595V29.5405H58.4595ZM61.4595 32.5405C59.8026 32.5405 58.4595 31.1974 58.4595 29.5405H70.4595C70.4595 24.57 66.43 20.5405 61.4595 20.5405V32.5405ZM37.5405 32.5405H61.4595V20.5405H37.5405V32.5405ZM40.5405 29.5405C40.5405 31.1974 39.1974 32.5405 37.5405 32.5405V20.5405C32.57 20.5405 28.5405 24.57 28.5405 29.5405H40.5405ZM40.5405 64V29.5405H28.5405V64H40.5405Z" fill="white" mask="url(#path-5-outside-1_1259_5235)"/>
<rect x="18" y="64" width="9" height="130" fill="white"/>
<rect x="73" y="64" width="9" height="130" fill="white"/>
<path fill-rule="evenodd" clip-rule="evenodd" d="M54 73V63.5H51V73H51.0338L44.2965 81.734C44.1043 81.9831 44 82.2893 44 82.6043V105.578C44 106.363 44.6343 107 45.4167 107H59.5833C60.3657 107 61 106.363 61 105.578V82.6043C61 82.2893 60.8957 81.9831 60.7035 81.734L53.9662 73H54Z" fill="white"/>
<defs>
<linearGradient id="paint0_linear_1259_5235" x1="78" y1="77" x2="194.354" y2="206.282" gradientUnits="userSpaceOnUse">
<stop stop-color="#D6EBFF"/>
<stop offset="1" stop-color="#C2C7FF"/>
</linearGradient>
<linearGradient id="paint1_linear_1259_5235" x1="6" y1="21" x2="145.822" y2="92.1232" gradientUnits="userSpaceOnUse">
<stop stop-color="#D6EBFF"/>
<stop offset="1" stop-color="#C2C7FF"/>
</linearGradient>
</defs>
</svg>
