<svg width="20" height="24" viewBox="0 0 20 24" fill="none" xmlns="http://www.w3.org/2000/svg">
<g id="Group 25">
<path id="Union" fill-rule="evenodd" clip-rule="evenodd" d="M10 0C11.1046 0 12 0.895431 12 2V3.28988C14.8915 4.15043 17 6.82898 17 10V18H18.5C19.0523 18 19.5 18.4477 19.5 19C19.5 19.5523 19.0523 20 18.5 20H17H15H5H3H1C0.447715 20 0 19.5523 0 19C0 18.4477 0.447715 18 1 18H3V10C3 6.82898 5.10851 4.15043 8 3.28988V2C8 0.895431 8.89543 0 10 0ZM15 16V18H13H7H5V16V10C5 7.23858 7.23858 5 10 5C12.7614 5 15 7.23858 15 10V16Z" fill="#7A7A7A"/>
<path id="Subtract" d="M7 21C7 22.6569 8.34315 24 10 24C11.6569 24 13 22.6569 13 21H7Z" fill="#7A7A7A"/>
</g>
</svg>
