<svg width="60" height="34" viewBox="0 0 60 34" fill="none" xmlns="http://www.w3.org/2000/svg">
<g id="On">
<path d="M0 16.9736C0 14.2239 0.400626 11.7916 1.20188 9.67651C2.03652 7.56143 3.15493 5.79886 4.55712 4.3888C5.9927 2.94349 7.66197 1.8507 9.56495 1.11042C11.5013 0.370139 13.5879 0 15.8247 0C18.0616 0 20.1315 0.370139 22.0344 1.11042C23.9708 1.8507 25.6568 2.94349 27.0923 4.3888C28.5279 5.79886 29.6463 7.56143 30.4476 9.67651C31.2822 11.7916 31.6995 14.2239 31.6995 16.9736C31.6995 19.7232 31.2989 22.1731 30.4977 24.3235C29.6964 26.4386 28.578 28.2188 27.1424 29.6641C25.7402 31.0741 24.0709 32.1493 22.1346 32.8896C20.1982 33.6299 18.0949 34 15.8247 34C13.5545 34 11.4512 33.6299 9.51487 32.8896C7.57851 32.114 5.90923 31.0036 4.50704 29.5583C3.10485 28.113 2.00313 26.3328 1.20188 24.2177C0.400626 22.1026 0 19.6879 0 16.9736ZM9.01408 16.9736C9.01408 20.1814 9.63172 22.5785 10.867 24.1649C12.1022 25.7512 13.7548 26.5443 15.8247 26.5443C17.928 26.5443 19.5973 25.7512 20.8326 24.1649C22.0678 22.5785 22.6854 20.1814 22.6854 16.9736C22.6854 13.8009 22.0678 11.4215 20.8326 9.83515C19.6307 8.24883 17.9781 7.45568 15.8748 7.45568C13.8049 7.45568 12.1356 8.24883 10.867 9.83515C9.63172 11.3862 9.01408 13.7657 9.01408 16.9736Z" fill="#6EBAFF" fill-opacity="0.47"/>
<path d="M51.4867 16.7621C51.4867 15.6693 51.1862 14.8761 50.5853 14.3826C50.0177 13.8538 49.2332 13.5894 48.2316 13.5894C47.5639 13.5894 46.8962 13.6776 46.2285 13.8538C45.5942 14.0301 45.0433 14.2945 44.5759 14.647V32.9953C44.242 33.1011 43.7079 33.2068 42.9734 33.3126C42.2723 33.4184 41.5378 33.4712 40.77 33.4712C40.0355 33.4712 39.3678 33.4184 38.7668 33.3126C38.1993 33.2068 37.7152 32.9953 37.3146 32.6781C36.9139 32.3608 36.5968 31.9378 36.3631 31.409C36.1628 30.845 36.0626 30.1223 36.0626 29.2411V13.3779C36.0626 12.4261 36.2462 11.6506 36.6135 11.0513C37.0141 10.452 37.5483 9.90565 38.216 9.41213C39.3511 8.5661 40.77 7.87869 42.4726 7.34992C44.2087 6.82115 46.1283 6.55676 48.2316 6.55676C52.0042 6.55676 54.9087 7.43805 56.9452 9.20062C58.9817 10.9279 60 13.3427 60 16.4448V32.9953C59.6661 33.1011 59.132 33.2068 58.3975 33.3126C57.6964 33.4184 56.9619 33.4712 56.1941 33.4712C55.4596 33.4712 54.7919 33.4184 54.1909 33.3126C53.6234 33.2068 53.1393 32.9953 52.7387 32.6781C52.338 32.3608 52.0209 31.9378 51.7872 31.409C51.5868 30.845 51.4867 30.1223 51.4867 29.2411V16.7621Z" fill="#6EBAFF" fill-opacity="0.47"/>
</g>
</svg>
