<svg width="30" height="31" viewBox="0 0 30 31" fill="none" xmlns="http://www.w3.org/2000/svg">
<path fill-rule="evenodd" clip-rule="evenodd" d="M24.4445 1.30011C23.2848 0.116763 21.4046 0.116761 20.2449 1.30011L2.27222 19.6396C1.83627 20.0845 1.54682 20.6567 1.44402 21.277L0.527386 26.8085C0.186678 28.8645 1.93558 30.6491 3.95047 30.3015L9.3713 29.3661C9.9792 29.2612 10.54 28.9659 10.976 28.521L28.9487 10.1815C30.1084 8.99815 30.1084 7.07957 28.9487 5.89622L24.4445 1.30011ZM14.9701 9.53945L3.67207 21.068C3.52676 21.2163 3.43028 21.4071 3.39601 21.6139L2.47937 27.1453C2.3658 27.8307 2.94877 28.4255 3.6204 28.3096L9.04123 27.3743C9.24386 27.3393 9.43081 27.2409 9.57612 27.0926L20.8741 15.564L14.9701 9.53945Z" fill="white"/>
</svg>
