<svg width="22" height="20" viewBox="0 0 22 20" fill="none" xmlns="http://www.w3.org/2000/svg">
<path fill-rule="evenodd" clip-rule="evenodd" d="M4.38596 20V16.5533C4.38596 14.5217 5.9569 12.8748 7.89474 12.8748H13.1579C15.0957 12.8748 16.6667 14.5217 16.6667 16.5533V20C19.3229 17.9967 21.0526 14.7279 21.0526 11.0355C21.0526 4.94078 16.3398 0 10.5263 0C4.71279 0 0 4.94078 0 11.0355C0 14.7279 1.7297 17.9967 4.38596 20ZM14.0351 8.27666C14.0351 10.3082 12.4642 11.9552 10.5263 11.9552C8.58847 11.9552 7.01754 10.3082 7.01754 8.27666C7.01754 6.24507 8.58847 4.59814 10.5263 4.59814C12.4642 4.59814 14.0351 6.24507 14.0351 8.27666Z" fill="#5C5C5C"/>
</svg>
