<svg width="68" height="65" viewBox="0 0 68 65" fill="none" xmlns="http://www.w3.org/2000/svg">
<path d="M33.4498 16.0713C33.4498 13.5883 35.2172 11.5754 37.3973 11.5754C39.5774 11.5754 41.3448 13.5883 41.3448 16.0713V23.2754L53.1341 27.5272C53.8372 27.7808 54.3151 28.5241 54.3151 29.3641V31.2117C54.3151 32.377 53.4139 33.2756 52.3997 33.1216L41.3448 31.4428V45.351L45.1774 46.7632C45.9182 47.0361 46.4201 47.8219 46.4201 48.7087C46.4201 49.838 45.6163 50.7535 44.6247 50.7535H29.606C28.6144 50.7535 27.8105 49.838 27.8105 48.7087C27.8105 47.8219 28.3124 47.0361 29.0533 46.7632L33.4498 45.1432V31.4428L22.3949 33.1216C21.3807 33.2756 20.4795 32.377 20.4795 31.2117V29.3641C20.4795 28.5241 20.9574 27.7808 21.6605 27.5272L33.4498 23.2754V16.0713Z" fill="url(#paint0_linear_1104_6563)"/>
<circle cx="36.5072" cy="31.1644" r="29.6644" stroke="url(#paint1_linear_1104_6563)" stroke-width="3"/>
<circle cx="12.9108" cy="53.8698" r="9.34931" fill="white"/>
<path fill-rule="evenodd" clip-rule="evenodd" d="M12.0205 65.0001C18.6593 65.0001 24.0411 59.6183 24.0411 52.9795C24.0411 46.3408 18.6593 40.959 12.0205 40.959C5.38178 40.959 0 46.3408 0 52.9795C0 59.6183 5.38178 65.0001 12.0205 65.0001ZM19.3141 50.0333C19.8999 49.4475 19.8999 48.4977 19.3141 47.9119C18.7283 47.3262 17.7786 47.3262 17.1928 47.9119L10.6849 54.4198L7.29354 51.0284C6.70775 50.4426 5.758 50.4426 5.17222 51.0284C4.58643 51.6142 4.58643 52.5639 5.17222 53.1497L8.91716 56.8946C9.89348 57.871 11.4764 57.871 12.4527 56.8946L19.3141 50.0333Z" fill="url(#paint2_linear_1104_6563)"/>
<defs>
<linearGradient id="paint0_linear_1104_6563" x1="20.4795" y1="11.5754" x2="59.2403" y2="45.0507" gradientUnits="userSpaceOnUse">
<stop stop-color="#D6EBFF"/>
<stop offset="1" stop-color="#C2C7FF"/>
</linearGradient>
<linearGradient id="paint1_linear_1104_6563" x1="5.34277" y1="0" x2="67.6715" y2="62.3288" gradientUnits="userSpaceOnUse">
<stop stop-color="#D6EBFF"/>
<stop offset="1" stop-color="#C2C7FF"/>
</linearGradient>
<linearGradient id="paint2_linear_1104_6563" x1="0" y1="40.959" x2="24.0411" y2="65.0001" gradientUnits="userSpaceOnUse">
<stop stop-color="#D6EBFF"/>
<stop offset="1" stop-color="#C2C7FF"/>
</linearGradient>
</defs>
</svg>
