<svg width="21" height="19" viewBox="0 0 21 19" fill="none" xmlns="http://www.w3.org/2000/svg">
<path d="M0.75 14.9229C0.75 12.6607 2.5839 10.8268 4.84613 10.8268H9.69226C11.9545 10.8268 13.7884 12.6607 13.7884 14.9229V16.5383C13.7884 17.0162 13.4009 17.4037 12.923 17.4037H1.61538C1.13744 17.4037 0.75 17.0162 0.75 16.5383V14.9229Z" stroke="#5C5C5C" stroke-width="1.5" stroke-linejoin="round"/>
<path d="M7.26877 7.59613C9.0212 7.59613 10.4418 6.1755 10.4418 4.42306C10.4418 2.67063 9.0212 1.25 7.26877 1.25C5.51633 1.25 4.0957 2.67063 4.0957 4.42306C4.0957 6.1755 5.51633 7.59613 7.26877 7.59613Z" stroke="#5C5C5C" stroke-width="1.5"/>
<path d="M16.276 11.6925V3.6156H17.6466V11.6925H16.276ZM12.9229 8.33935V6.96873H20.9997V8.33935H12.9229Z" fill="#5C5C5C"/>
</svg>
