<svg width="12" height="11" viewBox="0 0 12 11" fill="none" xmlns="http://www.w3.org/2000/svg">
<path d="M0.5 8.38447C0.5 7.1312 1.51597 6.11523 2.76923 6.11523H5.53846C6.79172 6.11523 7.80769 7.1312 7.80769 8.38447V9.30754C7.80769 9.5412 7.61827 9.73062 7.38462 9.73062H0.923077C0.689418 9.73062 0.5 9.5412 0.5 9.30754V8.38447Z" stroke="white" stroke-linejoin="round"/>
<path d="M4.15378 4.26923C5.19462 4.26923 6.0384 3.42546 6.0384 2.38462C6.0384 1.34377 5.19462 0.5 4.15378 0.5C3.11294 0.5 2.26917 1.34377 2.26917 2.38462C2.26917 3.42546 3.11294 4.26923 4.15378 4.26923Z" stroke="white"/>
<path d="M9.30073 6.53848V1.9231H10.0839V6.53848H9.30073ZM7.38464 4.6224V3.83918H12V4.6224H7.38464Z" fill="white"/>
</svg>
