<svg width="13" height="12" viewBox="0 0 13 12" fill="none" xmlns="http://www.w3.org/2000/svg">
<path fill-rule="evenodd" clip-rule="evenodd" d="M2.64025 12V9.93199C2.64025 8.71304 3.58591 7.72488 4.75244 7.72488H7.92074C9.08727 7.72488 10.0329 8.71304 10.0329 9.93199V12C11.6319 10.798 12.6732 8.83674 12.6732 6.62133C12.6732 2.96447 9.83619 0 6.33659 0C2.83699 0 0 2.96447 0 6.62133C0 8.83674 1.04124 10.798 2.64025 12ZM8.44879 4.966C8.44879 6.18495 7.50313 7.17311 6.33659 7.17311C5.17006 7.17311 4.22439 6.18495 4.22439 4.966C4.22439 3.74704 5.17006 2.75889 6.33659 2.75889C7.50313 2.75889 8.44879 3.74704 8.44879 4.966Z" fill="#7A7A7A"/>
</svg>
