<svg xmlns="http://www.w3.org/2000/svg" width="16" height="17" viewBox="0 0 16 17" fill="none">
  <mask id="path-1-outside-1_3769_13329" maskUnits="userSpaceOnUse" x="0" y="0" width="16" height="17" fill="black">
    <rect fill="white" width="16" height="17"/>
    <path fill-rule="evenodd" clip-rule="evenodd" d="M2.79929 2C2.35785 2 2 2.40373 2 2.90176V10.6158V11.0176V14.3473C2 14.7887 2.53026 15.0136 2.84758 14.7068L5.73002 11.9193H13.19C13.6314 11.9193 13.9893 11.5156 13.9893 11.0176V2.90176C13.9893 2.40373 13.6314 2 13.19 2H2.79929Z"/>
  </mask>
  <path d="M2.84758 14.7068L4.23789 16.1445L4.2379 16.1445L2.84758 14.7068ZM5.73002 11.9193V9.91934H4.92116L4.3397 10.4816L5.73002 11.9193ZM4 2.90176C4 3.2747 3.68237 4 2.79929 4V0C1.03334 0 0 1.53276 0 2.90176H4ZM4 10.6158V2.90176H0V10.6158H4ZM4 11.0176V10.6158H0V11.0176H4ZM4 14.3473V11.0176H0V14.3473H4ZM1.45726 13.269C2.40922 12.3485 4 13.023 4 14.3473H0C0 16.5545 2.6513 17.6788 4.23789 16.1445L1.45726 13.269ZM4.3397 10.4816L1.45726 13.269L4.2379 16.1445L7.12033 13.3571L4.3397 10.4816ZM13.19 9.91934H5.73002V13.9193H13.19V9.91934ZM11.9893 11.0176C11.9893 10.6446 12.3069 9.91934 13.19 9.91934V13.9193C14.956 13.9193 15.9893 12.3866 15.9893 11.0176H11.9893ZM11.9893 2.90176V11.0176H15.9893V2.90176H11.9893ZM13.19 4C12.3069 4 11.9893 3.2747 11.9893 2.90176H15.9893C15.9893 1.53276 14.956 0 13.19 0V4ZM2.79929 4H13.19V0H2.79929V4Z" fill="#A3A3A3" mask="url(#path-1-outside-1_3769_13329)"/>
</svg>