<svg xmlns="http://www.w3.org/2000/svg" width="11" height="13" viewBox="0 0 11 13" fill="none">
  <mask id="path-1-inside-1_2168_7138" fill="white">
    <path fill-rule="evenodd" clip-rule="evenodd" d="M0.733333 0C0.328325 0 0 0.367009 0 0.819737V8.19737C0 8.6501 0.328324 9.01711 0.733333 9.01711H1.12946V11.587C1.12946 12.0274 1.65744 12.2527 1.97538 11.9481L5.03441 9.01711H10.2667C10.6717 9.01711 11 8.6501 11 8.19737V0.819737C11 0.367009 10.6717 0 10.2667 0H0.733333Z"/>
  </mask>
  <path fill-rule="evenodd" clip-rule="evenodd" d="M0.733333 0C0.328325 0 0 0.367009 0 0.819737V8.19737C0 8.6501 0.328324 9.01711 0.733333 9.01711H1.12946V11.587C1.12946 12.0274 1.65744 12.2527 1.97538 11.9481L5.03441 9.01711H10.2667C10.6717 9.01711 11 8.6501 11 8.19737V0.819737C11 0.367009 10.6717 0 10.2667 0H0.733333Z" fill="#92A5BC"/>
  <path d="M1.12946 9.01711H2.12946V8.01711H1.12946V9.01711ZM1.97538 11.9481L1.28355 11.226L1.28355 11.226L1.97538 11.9481ZM5.03441 9.01711V8.01711H4.63266L4.34258 8.29505L5.03441 9.01711ZM1 0.819737C1 0.834828 0.99441 0.868459 0.960082 0.906832C0.924178 0.946966 0.845536 1 0.733333 1V-1C-0.325792 -1 -1 -0.0776219 -1 0.819737H1ZM1 8.19737V0.819737H-1V8.19737H1ZM0.733333 8.01711C0.845535 8.01711 0.924178 8.07015 0.960082 8.11028C0.99441 8.14865 1 8.18228 1 8.19737H-1C-1 9.09473 -0.325792 10.0171 0.733333 10.0171V8.01711ZM1.12946 8.01711H0.733333V10.0171H1.12946V8.01711ZM2.12946 11.587V9.01711H0.129462V11.587H2.12946ZM1.28355 11.226C1.60148 10.9214 2.12946 11.1467 2.12946 11.587H0.129462C0.129462 12.908 1.7134 13.584 2.66721 12.6701L1.28355 11.226ZM4.34258 8.29505L1.28355 11.226L2.66721 12.6701L5.72624 9.73917L4.34258 8.29505ZM10.2667 8.01711H5.03441V10.0171H10.2667V8.01711ZM10 8.19737C10 8.18228 10.0056 8.14865 10.0399 8.11028C10.0758 8.07014 10.1545 8.01711 10.2667 8.01711V10.0171C11.3258 10.0171 12 9.09473 12 8.19737H10ZM10 0.819737V8.19737H12V0.819737H10ZM10.2667 1C10.1545 1 10.0758 0.946966 10.0399 0.906832C10.0056 0.868459 10 0.834828 10 0.819737H12C12 -0.0776213 11.3258 -1 10.2667 -1V1ZM0.733333 1H10.2667V-1H0.733333V1Z" fill="#92A5BC" mask="url(#path-1-inside-1_2168_7138)"/>
</svg>