<svg xmlns="http://www.w3.org/2000/svg" width="14" height="17" viewBox="0 0 14 17" fill="none">
  <path d="M3.5 2C3.5 1.17157 2.82843 0.5 2 0.5C1.17157 0.5 0.5 1.17157 0.5 2H3.5ZM2 12H0.5C0.5 12.8284 1.17157 13.5 2 13.5L2 12ZM12 12L13.0607 13.0607C13.6464 12.4749 13.6464 11.5251 13.0607 10.9393L12 12ZM0.5 2V12H3.5V2H0.5ZM2 13.5H12V10.5H2V13.5ZM13.0607 10.9393L9.72733 7.60601L7.60601 9.72733L10.9393 13.0607L13.0607 10.9393ZM10.9393 10.9393L7.60601 14.2727L9.72733 16.394L13.0607 13.0607L10.9393 10.9393Z" fill="url(#paint0_linear_3769_13310)"/>
  <defs>
    <linearGradient id="paint0_linear_3769_13310" x1="2" y1="2" x2="14.8" y2="11.6" gradientUnits="userSpaceOnUse">
      <stop stop-color="#D6EBFF"/>
      <stop offset="1" stop-color="#C2C7FF"/>
    </linearGradient>
  </defs>
</svg>