<svg width="25" height="25" viewBox="0 0 25 25" fill="none" xmlns="http://www.w3.org/2000/svg">
<circle cx="12.5" cy="12.5" r="12" stroke="#C2C7FF"/>
<path fill-rule="evenodd" clip-rule="evenodd" d="M12.9993 16.9754C15.5263 16.7248 17.5 14.5929 17.5 12C17.5 9.23858 15.2614 7 12.5 7C9.9988 7 7.92655 8.83655 7.5582 11.2347L8.14645 10.6464C8.34171 10.4512 8.65829 10.4512 8.85355 10.6464C9.04882 10.8417 9.04882 11.1583 8.85355 11.3536L7.35355 12.8536C7.15829 13.0488 6.84171 13.0488 6.64645 12.8536L5.14645 11.3536C4.95118 11.1583 4.95118 10.8417 5.14645 10.6464C5.34171 10.4512 5.65829 10.4512 5.85355 10.6464L6.537 11.3299C6.87019 8.33158 9.41281 6 12.5 6C15.8137 6 18.5 8.68629 18.5 12C18.5 15.1454 16.0797 17.7255 12.9998 17.9795C12.7246 18.0022 12.5 17.7761 12.5 17.5C12.5 17.2239 12.7245 17.0026 12.9993 16.9754Z" fill="#C2C7FF"/>
</svg>
