<svg width="48" height="48" viewBox="0 0 48 48" fill="none" xmlns="http://www.w3.org/2000/svg">
<circle cx="18" cy="18" r="18" fill="url(#paint0_linear_1181_1582)"/>
<path d="M9 36C9 34.8954 9.89543 34 11 34H14C14.5523 34 15 34.4477 15 35V47C15 47.5523 14.5523 48 14 48H11C9.89543 48 9 47.1046 9 46V36Z" fill="#7A7A7A"/>
<path d="M48 36C48 34.8954 47.1046 34 46 34H43C42.4477 34 42 34.4477 42 35V47C42 47.5523 42.4477 48 43 48H46C47.1046 48 48 47.1046 48 46V36Z" fill="#7A7A7A"/>
<path fill-rule="evenodd" clip-rule="evenodd" d="M28 10H34C34.5523 10 35 10.4477 35 11V13C35 13.5523 34.5523 14 34 14H29V16.8829L42.5834 22.6181C43.3466 22.9404 43.7041 23.8203 43.3819 24.5835C43.0596 25.3466 42.1797 25.7041 41.4165 25.3819L40 24.7838V46C40 47.1046 39.1046 48 38 48H35C33.8954 48 33 47.1046 33 46V41C33 39.8954 32.3801 39 31.6154 39H25.3846C24.6199 39 24 39.8954 24 41V46C24 47.1046 23.1046 48 22 48H19C17.8954 48 17 47.1046 17 46V24.7186L15.6371 25.358C14.8871 25.7098 13.9939 25.3871 13.642 24.6371C13.2902 23.8871 13.6129 22.9939 14.3629 22.642L27 16.7135V11C27 10.4477 27.4477 10 28 10ZM28.5 34C31.5375 34 34 31.5376 34 28.5C34 25.4624 31.5375 23 28.5 23C25.4624 23 23 25.4624 23 28.5C23 31.5376 25.4624 34 28.5 34Z" fill="#7A7A7A"/>
<defs>
<linearGradient id="paint0_linear_1181_1582" x1="0" y1="0" x2="36" y2="36" gradientUnits="userSpaceOnUse">
<stop stop-color="#D6EBFF"/>
<stop offset="1" stop-color="#C2C7FF"/>
</linearGradient>
</defs>
</svg>
