<svg width="25" height="25" viewBox="0 0 25 25" fill="none" xmlns="http://www.w3.org/2000/svg">
<rect width="25" height="25" rx="12.5" fill="url(#paint0_linear_552_4206)"/>
<path fill-rule="evenodd" clip-rule="evenodd" d="M15.2687 10.1348C15.2687 12.4185 13.4175 14.2696 11.1343 14.2696C8.85115 14.2696 7 12.4185 7 10.1348C7 7.85107 8.85115 6 11.1343 6C13.4175 6 15.2687 7.85107 15.2687 10.1348ZM14.7071 15.1223C13.701 15.8444 12.4673 16.2696 11.1343 16.2696C7.74644 16.2696 5 13.523 5 10.1348C5 6.74665 7.74644 4 11.1343 4C14.5222 4 17.2687 6.74665 17.2687 10.1348C17.2687 11.4679 16.8435 12.7018 16.1213 13.708L19.8161 17.4031C20.2066 17.7937 20.2066 18.4268 19.8161 18.8173C19.4255 19.2079 18.7924 19.2078 18.4018 18.8173L14.7071 15.1223Z" fill="white"/>
<defs>
<linearGradient id="paint0_linear_552_4206" x1="0" y1="0" x2="25" y2="25" gradientUnits="userSpaceOnUse">
<stop stop-color="#D6EBFF"/>
<stop offset="1" stop-color="#C2C7FF"/>
</linearGradient>
</defs>
</svg>
