<svg xmlns="http://www.w3.org/2000/svg" width="24" height="24" viewBox="0 0 24 24" fill="none">
  <path fill-rule="evenodd" clip-rule="evenodd" d="M17.9681 10C17.9681 14.4213 14.3905 18 9.98407 18C5.5776 18 2 14.4213 2 10C2 5.57871 5.5776 2 9.98407 2C14.3905 2 17.9681 5.57871 17.9681 10ZM16.3021 17.7434C14.5811 19.1538 12.3812 20 9.98407 20C4.47002 20 0 15.5228 0 10C0 4.47715 4.47002 0 9.98407 0C15.4981 0 19.9681 4.47715 19.9681 10C19.9681 12.401 19.1233 14.6043 17.7152 16.3281L23.671 22.2935C24.0613 22.6843 24.0608 23.3175 23.6699 23.7077C23.2791 24.0979 22.6459 24.0974 22.2557 23.7065L16.3021 17.7434Z" fill="#A3A3A3"/>
</svg>