<svg width="16" height="16" viewBox="0 0 16 16" fill="none" xmlns="http://www.w3.org/2000/svg">
<path fill-rule="evenodd" clip-rule="evenodd" d="M10.2687 6.13481C10.2687 8.41854 8.41752 10.2696 6.13433 10.2696C3.85115 10.2696 2 8.41854 2 6.13481C2 3.85107 3.85115 2 6.13433 2C8.41752 2 10.2687 3.85107 10.2687 6.13481ZM9.70712 11.1223C8.70096 11.8444 7.4673 12.2696 6.13433 12.2696C2.74644 12.2696 0 9.52297 0 6.13481C0 2.74665 2.74644 0 6.13433 0C9.52223 0 12.2687 2.74665 12.2687 6.13481C12.2687 7.46795 11.8435 8.70177 11.1213 9.70803L14.8161 13.4031C15.2066 13.7937 15.2066 14.4268 14.8161 14.8173C14.4255 15.2079 13.7924 15.2078 13.4018 14.8173L9.70712 11.1223Z" fill="url(#paint0_linear_718_9749)"/>
<defs>
<linearGradient id="paint0_linear_718_9749" x1="0" y1="0" x2="15.1102" y2="15.109" gradientUnits="userSpaceOnUse">
<stop stop-color="#D6EBFF"/>
<stop offset="1" stop-color="#C2C7FF"/>
</linearGradient>
</defs>
</svg>
