<svg width="26" height="24" viewBox="0 0 26 24" fill="none" xmlns="http://www.w3.org/2000/svg">
<path id="Union" fill-rule="evenodd" clip-rule="evenodd" d="M19.7573 10C19.7573 14.3243 16.0401 18 11.2395 18C6.43889 18 2.72168 14.3243 2.72168 10C2.72168 5.67566 6.43889 2 11.2395 2C16.0401 2 19.7573 5.67566 19.7573 10ZM17.9158 17.7275C16.0997 19.1474 13.7743 20 11.2395 20C5.43066 20 0.72168 15.5228 0.72168 10C0.72168 4.47715 5.43066 0 11.2395 0C17.0483 0 21.7573 4.47715 21.7573 10C21.7573 12.41 20.8606 14.621 19.3671 16.3476L25.6017 22.2753C26.0019 22.6558 26.0179 23.2888 25.6373 23.689C25.2568 24.0893 24.6238 24.1053 24.2236 23.7247L17.9158 17.7275Z" fill="#838383"/>
</svg>
