<svg width="24" height="24" viewBox="0 0 24 24" fill="none" xmlns="http://www.w3.org/2000/svg">
<path id="Union" fill-rule="evenodd" clip-rule="evenodd" d="M18 10C18 14.4183 14.4183 18 10 18C5.58172 18 2 14.4183 2 10C2 5.58172 5.58172 2 10 2C14.4183 2 18 5.58172 18 10ZM16.3287 17.7429C14.6049 19.1536 12.4013 20 10 20C4.47715 20 0 15.5228 0 10C0 4.47715 4.47715 0 10 0C15.5228 0 20 4.47715 20 10C20 12.4013 19.1536 14.6049 17.7429 16.3287L23.7071 22.2929C24.0976 22.6834 24.0976 23.3166 23.7071 23.7071C23.3166 24.0976 22.6834 24.0976 22.2929 23.7071L16.3287 17.7429Z" fill="#7A7A7A"/>
</svg>
