<svg width="12" height="16" viewBox="0 0 12 16" fill="none" xmlns="http://www.w3.org/2000/svg">
<path fill-rule="evenodd" clip-rule="evenodd" d="M6.2758 0.377366L6.00005 0.195068L5.72431 0.377366L3.72431 1.69959C3.49396 1.85188 3.43067 2.16207 3.58296 2.39242C3.73525 2.62278 4.04545 2.68606 4.2758 2.53377L5.50006 1.7244V9.38891C5.50006 9.66505 5.72391 9.88891 6.00006 9.88891C6.2762 9.88891 6.50006 9.66505 6.50006 9.38891V1.7244L7.72431 2.53377C7.95466 2.68606 8.26486 2.62278 8.41715 2.39242C8.56944 2.16207 8.50615 1.85188 8.2758 1.69959L6.2758 0.377366Z" fill="#7A7A7A"/>
<path fill-rule="evenodd" clip-rule="evenodd" d="M3.33333 4.1001H1.33333C0.596954 4.1001 0 4.69208 0 5.42232V14.6779C0 15.4081 0.596954 16.0001 1.33333 16.0001H10.6667C11.403 16.0001 12 15.4081 12 14.6779V5.42232C12 4.69208 11.403 4.1001 10.6667 4.1001H8.66667V5.1001H10.6667C10.8587 5.1001 11 5.25223 11 5.42232V14.6779C11 14.848 10.8587 15.0001 10.6667 15.0001H1.33333C1.14133 15.0001 1 14.848 1 14.6779V5.42232C1 5.25223 1.14133 5.1001 1.33333 5.1001H3.33333V4.1001Z" fill="#7A7A7A"/>
</svg>
