<svg width="194" height="192" viewBox="0 0 194 192" fill="none" xmlns="http://www.w3.org/2000/svg">
<path d="M12.2533 51.8949C13.4634 52.5484 14.7247 53.1191 16.0298 53.5995C9.42797 66.2736 5.6962 80.6811 5.6962 95.9602C5.6962 146.673 46.8072 187.784 97.5202 187.784C112.799 187.784 127.207 184.052 139.881 177.451C140.361 178.756 140.932 180.017 141.585 181.227C128.39 188.06 113.406 191.92 97.5202 191.92C44.5228 191.92 1.55998 148.958 1.55998 95.9602C1.55998 80.0746 5.42001 65.0906 12.2533 51.8949Z" fill="#CCCCCC"/>
<path d="M181.791 141.898C189.244 128.255 193.48 112.602 193.48 95.9602C193.48 42.9628 150.518 0 97.5202 0C80.8781 0 65.2255 4.23643 51.5819 11.6897C52.2622 12.8855 52.8607 14.134 53.3697 15.4274C66.4703 8.22999 81.5172 4.13622 97.5202 4.13622C148.233 4.13622 189.344 45.2472 189.344 95.9602C189.344 111.963 185.25 127.01 178.053 140.111C179.346 140.62 180.595 141.218 181.791 141.898Z" fill="#CCCCCC"/>
<path fill-rule="evenodd" clip-rule="evenodd" d="M11.7025 47.9277V37.4479C11.7025 32.7083 15.5447 28.8661 20.2843 28.8661H31.9867C36.7263 28.8661 40.5685 32.7083 40.5685 37.4479V47.9277C47.6214 43.2472 52.271 35.2343 52.271 26.1355C52.271 11.7013 40.5697 0 26.1355 0C11.7013 0 0 11.7013 0 26.1355C0 35.2343 4.64962 43.2472 11.7025 47.9277ZM34.3272 17.5537C34.3272 22.0779 30.6597 25.7454 26.1355 25.7454C21.6113 25.7454 17.9438 22.0779 17.9438 17.5537C17.9438 13.0295 21.6113 9.36197 26.1355 9.36197C30.6597 9.36197 34.3272 13.0295 34.3272 17.5537Z" fill="#84B4FF" fill-opacity="0.4"/>
<path fill-rule="evenodd" clip-rule="evenodd" d="M152.912 189.137V178.658C152.912 173.918 156.754 170.076 161.494 170.076H173.197C177.936 170.076 181.778 173.918 181.778 178.658V189.137C188.831 184.457 193.481 176.444 193.481 167.345C193.481 152.911 181.78 141.21 167.345 141.21C152.911 141.21 141.21 152.911 141.21 167.345C141.21 176.444 145.859 184.457 152.912 189.137ZM175.537 158.763C175.537 163.288 171.869 166.955 167.345 166.955C162.821 166.955 159.154 163.288 159.154 158.763C159.154 154.239 162.821 150.572 167.345 150.572C171.869 150.572 175.537 154.239 175.537 158.763Z" fill="#84B4FF" fill-opacity="0.4"/>
<path d="M118.263 65.3248C118.774 63.9061 119.801 62.7033 121.168 62.0657C129.546 58.1573 135.378 49.7066 135.494 39.8818C148.145 48.474 157.668 61.3256 162 76.3746C161.721 76.3586 161.439 76.3505 161.156 76.3505C153.125 76.3505 146.615 82.8584 146.615 90.8863C146.615 91.6795 146.255 92.4381 145.62 92.9134C139.993 97.1239 136.351 103.84 136.351 111.407C136.351 121.62 142.985 130.284 152.18 133.328C140.151 150.085 120.495 161 98.2885 161C93.7116 161 89.2431 160.536 84.9273 159.653C85.5505 157.648 85.8862 155.515 85.8862 153.305C85.8862 150.096 88.0406 146.931 90.8404 145.361C95.5402 142.727 98.7162 137.698 98.7162 131.928C98.7162 123.428 91.8232 116.538 83.3202 116.538C80.0298 116.538 76.5861 115.41 74.2186 113.125C70.3724 109.415 65.1382 107.132 59.3708 107.132C58.4565 107.132 57.5557 107.189 56.6717 107.301C50.9924 108.016 44.7331 107.598 39.1997 106.133C37.448 105.669 35.6082 105.422 33.7107 105.422C33.4259 105.422 33.1425 105.428 32.8604 105.439C32.2943 101.954 32 98.3784 32 94.7339C32 65.6252 50.7749 40.9001 76.8795 32C76.0742 33.6438 75.6221 35.4921 75.6221 37.4459C75.6221 37.6981 75.6297 37.9486 75.6445 38.1971C75.8105 40.9732 74.4591 44.1285 72.3329 45.922C69.6367 48.1963 67.9241 51.5991 67.9241 55.4018C67.9241 62.2491 73.4768 67.8 80.3265 67.8C80.9693 67.8 81.6007 67.7511 82.2172 67.6568C84.8839 67.2491 87.9803 68.2073 89.698 70.2867C92.7572 73.9901 97.3855 76.3504 102.565 76.3504C109.794 76.3504 115.948 71.7536 118.263 65.3248Z" fill="url(#paint0_linear_1228_5102)"/>
<defs>
<linearGradient id="paint0_linear_1228_5102" x1="32" y1="32" x2="160.996" y2="161.996" gradientUnits="userSpaceOnUse">
<stop stop-color="#D6EBFF"/>
<stop offset="1" stop-color="#C2C7FF"/>
</linearGradient>
</defs>
</svg>
