<svg width="241" height="215" viewBox="0 0 241 215" fill="none" xmlns="http://www.w3.org/2000/svg">
<path d="M11.696 7.208H14.304V8.952H11.696V7.208ZM10.112 1.592H12.256V16.408H10.112V1.592ZM1.088 3.016H3.216V12.216H1.088V3.016ZM1.088 11.032H2.368C4.48 11.032 6.768 10.888 9.152 10.408L9.376 12.152C6.928 12.664 4.544 12.792 2.368 12.792H1.088V11.032ZM16.1107 2.824H23.1667V9.976H16.1107V2.824ZM21.0707 4.504H18.2067V8.296H21.0707V4.504ZM25.2148 1.608H27.3428V12.408H25.2148V1.608ZM26.7347 5.88H29.3108V7.624H26.7347V5.88ZM17.7907 14.472H27.8708V16.168H17.7907V14.472ZM17.7907 11.352H19.9187V15.32H17.7907V11.352ZM35.4855 2.584C37.8215 2.584 39.5655 4.104 39.5655 6.232C39.5655 8.376 37.8215 9.896 35.4855 9.896C33.1655 9.896 31.3895 8.376 31.3895 6.232C31.3895 4.104 33.1655 2.584 35.4855 2.584ZM35.4855 4.408C34.3495 4.408 33.4855 5.08 33.4855 6.232C33.4855 7.4 34.3495 8.072 35.4855 8.072C36.6215 8.072 37.4855 7.4 37.4855 6.232C37.4855 5.08 36.6215 4.408 35.4855 4.408ZM40.9575 1.592H43.0855V16.456H40.9575V1.592ZM31.0375 13.448L30.7815 11.736C33.3895 11.736 37.0215 11.704 40.1415 11.24L40.3015 12.776C37.0855 13.416 33.5975 13.448 31.0375 13.448ZM53.421 7.608H55.549V9.848H53.421V7.608ZM54.461 2.2C56.605 2.2 58.157 3.432 58.157 5.224C58.157 6.984 56.605 8.216 54.461 8.216C52.317 8.216 50.765 6.984 50.765 5.224C50.765 3.432 52.317 2.2 54.461 2.2ZM54.461 3.8C53.453 3.8 52.749 4.312 52.749 5.224C52.749 6.12 53.453 6.632 54.461 6.632C55.485 6.632 56.173 6.12 56.173 5.224C56.173 4.312 55.485 3.8 54.461 3.8ZM59.677 1.624H61.805V12.92H59.677V1.624ZM61.053 6.264H63.661V8.008H61.053V6.264ZM51.917 14.456H62.301V16.168H51.917V14.456ZM51.917 11.944H54.061V15.192H51.917V11.944ZM50.237 11L49.997 9.304C52.509 9.304 55.981 9.288 58.893 8.872L59.037 10.392C56.045 10.952 52.685 11 50.237 11ZM72.2197 3.784H75.9957V5.464H72.2197V3.784ZM72.2197 6.824H76.0597V8.52H72.2197V6.824ZM65.7077 2.472H67.8197V4.536H70.6357V2.472H72.7157V9.784H65.7077V2.472ZM67.8197 6.184V8.088H70.6357V6.184H67.8197ZM67.3877 11.096H77.4837V16.424H75.3557V12.792H67.3877V11.096ZM75.3557 1.608H77.4837V10.44H75.3557V1.608ZM89.6585 1.624H91.7865V12.696H89.6585V1.624ZM91.1785 6.136H93.7545V7.88H91.1785V6.136ZM80.1225 3.16H88.8425V4.824H80.1225V3.16ZM84.4905 5.352C86.6185 5.352 88.1225 6.52 88.1225 8.216C88.1225 9.912 86.6185 11.064 84.4905 11.064C82.3465 11.064 80.8425 9.912 80.8425 8.216C80.8425 6.52 82.3465 5.352 84.4905 5.352ZM84.4905 6.968C83.5465 6.968 82.8905 7.416 82.8905 8.216C82.8905 9.016 83.5465 9.448 84.4905 9.448C85.4345 9.448 86.0905 9.016 86.0905 8.216C86.0905 7.416 85.4345 6.968 84.4905 6.968ZM83.4185 1.592H85.5465V3.976H83.4185V1.592ZM82.2345 14.472H92.3145V16.168H82.2345V14.472ZM82.2345 11.864H84.3625V15.208H82.2345V11.864ZM1.952 23.856H11.328V25.568H1.952V23.856ZM0.656 33.92H14.048V35.648H0.656V33.92ZM3.456 29.248H5.568V34.464H3.456V29.248ZM10.704 23.856H12.848V25.312C12.848 27.104 12.848 29.152 12.32 32.16L10.208 31.952C10.704 29.136 10.704 27.056 10.704 25.312V23.856ZM7.12 29.248H9.216V34.464H7.12V29.248ZM25.3108 22.608H27.4388V34.192H25.3108V22.608ZM26.6868 27.456H29.2948V29.184H26.6868V27.456ZM17.5507 35.472H27.9348V37.168H17.5507V35.472ZM17.5507 33.44H19.6947V35.968H17.5507V33.44ZM19.0387 29.728H21.1667V31.888H19.0387V29.728ZM15.7427 32.752L15.5027 31.12C18.0787 31.12 21.6467 31.072 24.6547 30.624L24.8147 32.08C21.7428 32.656 18.2707 32.72 15.7427 32.752ZM15.8867 23.792H24.2867V25.328H15.8867V23.792ZM20.0947 25.712C22.2708 25.712 23.6947 26.576 23.6947 28.016C23.6947 29.424 22.2708 30.304 20.0947 30.304C17.9187 30.304 16.4787 29.424 16.4787 28.016C16.4787 26.576 17.9187 25.712 20.0947 25.712ZM20.0947 27.136C19.0868 27.136 18.4947 27.424 18.4947 28.016C18.4947 28.576 19.0868 28.864 20.0947 28.864C21.0868 28.864 21.6788 28.576 21.6788 28.016C21.6788 27.424 21.0868 27.136 20.0947 27.136ZM19.0387 22.544H21.1667V24.448H19.0387V22.544ZM35.8843 23.8182L32.1343 37.75H30.3332L34.0832 23.8182H35.8843ZM43.932 31.664C47.004 31.664 48.94 32.736 48.94 34.544C48.94 36.368 47.004 37.44 43.932 37.44C40.844 37.44 38.908 36.368 38.908 34.544C38.908 32.736 40.844 31.664 43.932 31.664ZM43.932 33.328C42.044 33.328 41.02 33.712 41.02 34.544C41.02 35.392 42.044 35.792 43.932 35.792C45.82 35.792 46.828 35.392 46.828 34.544C46.828 33.712 45.82 33.328 43.932 33.328ZM46.636 22.608H48.764V31.328H46.636V22.608ZM48.172 26.048H50.732V27.808H48.172V26.048ZM37.532 23.552H39.644V25.376H42.54V23.552H44.652V30.512H37.532V23.552ZM39.644 27.024V28.848H42.54V27.024H39.644ZM52.1387 29.92H65.5467V31.616H52.1387V29.92ZM57.9467 30.992H60.0907V34.112H57.9467V30.992ZM53.7867 23.232H63.8507V28.736H53.7867V23.232ZM61.7547 24.896H55.8667V27.072H61.7547V24.896ZM53.6907 35.472H64.0747V37.168H53.6907V35.472ZM53.6907 32.864H55.8027V36.032H53.6907V32.864ZM80.9702 22.592H83.0822V37.456H80.9702V22.592ZM82.6022 28.192H85.2262V29.952H82.6022V28.192ZM72.0742 32.272H73.3222C75.8342 32.272 77.7862 32.192 79.9622 31.808L80.1702 33.52C77.9302 33.92 75.8982 34.016 73.3222 34.016H72.0742V32.272ZM72.0582 23.856H78.8742V29.6H74.1862V32.928H72.0742V27.904H76.7622V25.552H72.0582V23.856ZM96.665 22.592H98.809V37.456H96.665V22.592ZM90.825 23.632C93.065 23.632 94.713 25.68 94.713 28.912C94.713 32.176 93.065 34.224 90.825 34.224C88.585 34.224 86.937 32.176 86.937 28.912C86.937 25.68 88.585 23.632 90.825 23.632ZM90.825 25.568C89.721 25.568 88.969 26.736 88.969 28.912C88.969 31.12 89.721 32.304 90.825 32.304C91.929 32.304 92.665 31.12 92.665 28.912C92.665 26.736 91.929 25.568 90.825 25.568ZM101.56 33.968H114.968V35.712H101.56V33.968ZM102.584 23.888H113.864V25.584H102.584V23.888ZM102.648 30.016H113.816V31.728H102.648V30.016ZM104.6 25.456H106.728V30.176H104.6V25.456ZM109.736 25.456H111.848V30.176H109.736V25.456ZM116.582 29.248H130.006V30.8H116.582V29.248ZM118.086 31.536H128.406V35.056H120.23V36.32H118.118V33.712H126.31V32.976H118.086V31.536ZM118.118 35.872H128.822V37.312H118.118V35.872ZM118.23 22.864H128.374V26.352H120.358V27.568H118.246V25.024H126.278V24.288H118.23V22.864ZM118.246 27.12H128.646V28.56H118.246V27.12ZM141.878 24.032H143.926C143.926 28.592 142.71 32.48 137.142 35.248L136.022 33.6C140.582 31.328 141.878 28.48 141.878 24.288V24.032ZM136.902 24.032H142.918V25.712H136.902V24.032ZM141.846 27.664V29.296L136.422 29.776L136.15 27.984L141.846 27.664ZM146.118 22.608H148.262V37.424H146.118V22.608ZM160.421 22.592H162.565V37.456H160.421V22.592ZM162.085 28.08H164.709V29.824H162.085V28.08ZM151.525 32.128H152.773C155.269 32.128 157.237 32.048 159.413 31.664L159.621 33.424C157.381 33.824 155.349 33.888 152.773 33.888H151.525V32.128ZM151.525 23.968H158.437V25.68H153.637V32.976H151.525V23.968Z" fill="#CCCCCC"/>
<g clip-path="url(#clip0_2472_8308)">
<path d="M139.439 141.002C139.439 157.042 136.335 170.556 130.13 181.553C123.922 192.55 115.546 200.874 105 206.525C94.4534 212.176 82.6933 215 69.7196 215C56.7459 215 44.8559 212.152 34.3333 206.453C23.8108 200.753 15.4556 192.409 9.27475 181.412C3.09044 170.416 0 156.945 0 141.002C0 125.058 3.09044 111.447 9.27475 100.45C15.4591 89.4537 23.8108 81.1298 34.3333 75.4785C44.8593 69.8273 56.6536 67 69.7196 67C82.7856 67 94.4534 69.8273 105 75.4751C115.546 81.1263 123.922 89.4503 130.13 100.447C136.335 111.444 139.439 124.962 139.439 140.998V141.002ZM99.4002 141.002C99.4002 132.375 98.2686 125.092 96.0055 119.16C93.7423 113.227 90.4058 108.726 85.9957 105.655C81.5857 102.584 76.1603 101.048 69.7196 101.048C63.2789 101.048 57.8535 102.584 53.4435 105.655C49.0335 108.726 45.6969 113.23 43.4337 119.16C41.1706 125.092 40.039 132.372 40.039 141.002C40.039 149.631 41.1706 156.911 43.4337 162.844C45.6969 168.777 49.0335 173.277 53.4435 176.348C57.8535 179.42 63.2789 180.955 69.7196 180.955C76.1603 180.955 81.5857 179.42 85.9957 176.348C90.4058 173.277 93.7423 168.777 96.0055 162.844C98.2686 156.911 99.4002 149.631 99.4002 141.002Z" fill="url(#paint0_linear_2472_8308)"/>
<path d="M241 161.841C240.99 136.35 220.427 115.69 195.057 115.69C169.687 115.69 149.124 136.35 149.114 161.841V215H181.878V163.462C181.885 162.933 181.912 162.422 181.953 161.92H181.96C181.96 161.892 181.96 161.865 181.96 161.838C181.96 154.558 187.833 148.656 195.078 148.656C202.322 148.656 208.195 154.558 208.195 161.838C208.195 161.865 208.195 161.892 208.195 161.92H208.202C208.229 162.422 208.243 162.933 208.239 163.462V215H241.003V161.841H241Z" fill="url(#paint1_linear_2472_8308)"/>
</g>
<defs>
<linearGradient id="paint0_linear_2472_8308" x1="0" y1="67" x2="147.738" y2="206.192" gradientUnits="userSpaceOnUse">
<stop stop-color="#D6EBFF"/>
<stop offset="1" stop-color="#C2C7FF"/>
</linearGradient>
<linearGradient id="paint1_linear_2472_8308" x1="149.114" y1="115.69" x2="248.126" y2="207.303" gradientUnits="userSpaceOnUse">
<stop stop-color="#D6EBFF"/>
<stop offset="1" stop-color="#C2C7FF"/>
</linearGradient>
<clipPath id="clip0_2472_8308">
<rect width="241" height="148" fill="white" transform="translate(0 67)"/>
</clipPath>
</defs>
</svg>
