<svg width="20" height="20" viewBox="0 0 20 20" fill="none" xmlns="http://www.w3.org/2000/svg">
<rect width="20" height="20" rx="5" fill="url(#paint0_linear_2206_6098)"/>
<path d="M9.61958 4.17082C9.73932 3.8023 10.2607 3.8023 10.3804 4.17082L11.4818 7.56049C11.5353 7.7253 11.6889 7.83688 11.8622 7.83688H15.4263C15.8138 7.83688 15.9749 8.33273 15.6614 8.56049L12.778 10.6554C12.6378 10.7573 12.5792 10.9378 12.6327 11.1026L13.7341 14.4923C13.8538 14.8608 13.432 15.1673 13.1185 14.9395L10.2351 12.8446C10.0949 12.7427 9.90508 12.7427 9.76489 12.8446L6.88146 14.9395C6.56798 15.1673 6.14618 14.8608 6.26593 14.4923L7.3673 11.1026C7.42085 10.9378 7.36218 10.7573 7.22199 10.6554L4.33856 8.56049C4.02508 8.33273 4.18619 7.83688 4.57368 7.83688H8.13778C8.31108 7.83688 8.46466 7.7253 8.51821 7.56049L9.61958 4.17082Z" fill="white"/>
<defs>
<linearGradient id="paint0_linear_2206_6098" x1="0" y1="0" x2="20" y2="20" gradientUnits="userSpaceOnUse">
<stop stop-color="#D6EBFF"/>
<stop offset="1" stop-color="#C2C7FF"/>
</linearGradient>
</defs>
</svg>
