<svg width="8" height="9" viewBox="0 0 8 9" fill="none" xmlns="http://www.w3.org/2000/svg">
<path d="M7.70311 0.550938C7.77103 0.483021 7.88114 0.483021 7.94906 0.550938C8.01698 0.618855 8.01698 0.728971 7.94906 0.796888L4.24595 4.5L7.94906 8.20311C8.01698 8.27103 8.01698 8.38114 7.94906 8.44906C7.88114 8.51698 7.77103 8.51698 7.70311 8.44906L4 4.74595L0.296888 8.44906C0.228971 8.51698 0.118855 8.51698 0.0509376 8.44906C-0.0169792 8.38114 -0.0169792 8.27103 0.0509376 8.20311L3.75405 4.5L0.0509381 0.796888C-0.0169792 0.728971 -0.0169792 0.618855 0.0509381 0.550938C0.118855 0.483021 0.228971 0.483021 0.296888 0.550938L4 4.25405L7.70311 0.550938Z" fill="white"/>
</svg>
