<svg width="49" height="52" viewBox="0 0 49 52" fill="none" xmlns="http://www.w3.org/2000/svg">
<circle cx="18" cy="18" r="18" fill="url(#paint0_linear_1181_1507)"/>
<path fill-rule="evenodd" clip-rule="evenodd" d="M40.6859 16.1213C39.5143 14.9497 37.6148 14.9497 36.4433 16.1213L16.8854 35.6791C16.4101 36.1545 16.1082 36.7756 16.0281 37.443L15.2215 44.1646C14.9899 46.0949 16.6273 47.7323 18.5576 47.5007L25.2792 46.6941C25.9466 46.614 26.5678 46.3121 27.0431 45.8368L46.6009 26.279C47.7725 25.1074 47.7725 23.2079 46.6009 22.0363L40.6859 16.1213ZM30.5282 24.8648L18.2996 37.0934C18.1412 37.2518 18.0406 37.4589 18.0139 37.6813L17.2073 44.4029C17.1301 45.0463 17.6759 45.5922 18.3193 45.5149L25.0409 44.7083C25.2634 44.6817 25.4704 44.581 25.6289 44.4226L37.8575 32.194L30.5282 24.8648Z" fill="#7A7A7A"/>
<defs>
<linearGradient id="paint0_linear_1181_1507" x1="0" y1="0" x2="36" y2="36" gradientUnits="userSpaceOnUse">
<stop stop-color="#D6EBFF"/>
<stop offset="1" stop-color="#C2C7FF"/>
</linearGradient>
</defs>
</svg>
