<svg width="310" height="310" viewBox="0 0 310 310" fill="none" xmlns="http://www.w3.org/2000/svg">
<rect width="310" height="310" rx="10" fill="url(#paint0_linear_1073_5450)"/>
<path d="M63.1511 158.74H63.9811V163.42H63.1511V158.74ZM58.1411 163.88H63.9911V166.05H58.9711V167.29H58.1611V165.43H63.1711V164.53H58.1411V163.88ZM58.1611 167.02H64.2911V167.68H58.1611V167.02ZM58.9311 159H59.6211V159.69C59.6211 161.36 58.5811 162.78 57.0511 163.34L56.6411 162.68C58.0011 162.2 58.9311 161 58.9311 159.69V159ZM59.0811 159H59.7611V159.69C59.7611 160.94 60.7111 162.07 62.0511 162.51L61.6411 163.16C60.1211 162.64 59.0811 161.31 59.0811 159.69V159ZM69.4403 163.01H70.2603V164.4H69.4403V163.01ZM65.7703 162.55H73.9403V163.22H65.7703V162.55ZM66.8303 159.04H72.8803V161.79H66.8303V159.04ZM72.0703 159.7H67.6503V161.13H72.0703V159.7ZM66.7603 164.1H72.9003V166.13H67.6003V167.23H66.7803V165.53H72.0803V164.74H66.7603V164.1ZM66.7803 167.03H73.1703V167.68H66.7803V167.03ZM77.646 159.69H82.986V160.37H77.646V159.69ZM80.316 160.83C81.596 160.83 82.476 161.47 82.476 162.47C82.476 163.46 81.596 164.09 80.316 164.09C79.016 164.09 78.146 163.46 78.146 162.47C78.146 161.47 79.016 160.83 80.316 160.83ZM80.316 161.48C79.486 161.48 78.936 161.86 78.936 162.47C78.936 163.06 79.486 163.45 80.316 163.45C81.126 163.45 81.686 163.06 81.686 162.47C81.686 161.86 81.126 161.48 80.316 161.48ZM83.806 158.74H84.636V164.39H83.806V158.74ZM84.406 161.23H85.976V161.92H84.406V161.23ZM78.766 164.88H84.636V167.78H83.806V165.56H78.766V164.88ZM79.896 158.69H80.726V160.07H79.896V158.69ZM88.7152 159.3H89.3752V160.51C89.3752 161.86 88.5952 163.28 87.2652 163.87L86.8152 163.22C88.0052 162.7 88.7152 161.53 88.7152 160.51V159.3ZM88.8452 159.3H89.5052V160.51C89.5052 161.51 90.1852 162.53 91.3452 162.98L90.8952 163.61C89.5952 163.09 88.8452 161.84 88.8452 160.51V159.3ZM93.6452 158.75H94.4352V164.32H93.6452V158.75ZM92.2052 161.16H93.9152V161.84H92.2052V161.16ZM91.7052 158.92H92.4952V164.03H91.7052V158.92ZM91.4652 164.52C93.3252 164.52 94.4852 165.12 94.4852 166.15C94.4852 167.17 93.3252 167.76 91.4652 167.76C89.5952 167.76 88.4552 167.17 88.4552 166.15C88.4552 165.12 89.5952 164.52 91.4652 164.52ZM91.4652 165.17C90.1052 165.17 89.2652 165.53 89.2652 166.15C89.2652 166.76 90.1052 167.12 91.4652 167.12C92.8252 167.12 93.6552 166.76 93.6552 166.15C93.6552 165.53 92.8252 165.17 91.4652 165.17ZM96.0144 163.04H104.184V163.71H96.0144V163.04ZM100.094 164.49C102.024 164.49 103.194 165.09 103.194 166.13C103.194 167.17 102.024 167.76 100.094 167.76C98.1644 167.76 96.9944 167.17 96.9944 166.13C96.9944 165.09 98.1644 164.49 100.094 164.49ZM100.094 165.15C98.6844 165.15 97.8344 165.5 97.8344 166.13C97.8344 166.75 98.6844 167.11 100.094 167.11C101.514 167.11 102.354 166.75 102.354 166.13C102.354 165.5 101.514 165.15 100.094 165.15ZM99.5644 159.56H100.304V159.83C100.304 161.28 98.6444 162.27 96.7744 162.49L96.4744 161.84C98.0944 161.66 99.5644 160.85 99.5644 159.83V159.56ZM99.9144 159.56H100.644V159.83C100.644 160.85 102.114 161.66 103.734 161.84L103.434 162.49C101.564 162.27 99.9144 161.28 99.9144 159.83V159.56ZM96.7644 159.2H103.454V159.87H96.7644V159.2ZM106.819 166.006L106.766 166.393C106.73 166.677 106.67 166.973 106.584 167.281C106.502 167.591 106.415 167.878 106.325 168.143C106.238 168.409 106.165 168.619 106.109 168.776H105.356C105.387 168.629 105.429 168.43 105.484 168.179C105.538 167.93 105.591 167.652 105.643 167.344C105.695 167.037 105.735 166.723 105.761 166.403L105.796 166.006H106.819ZM110.634 165.94H118.824V166.63H110.634V165.94ZM114.294 163.6H115.124V166.13H114.294V163.6ZM111.584 159.49H117.824V163.75H111.584V159.49ZM117.024 160.16H112.394V163.08H117.024V160.16ZM125.943 158.74H126.783V167.78H125.943V158.74ZM126.583 162.29H128.263V163H126.583V162.29ZM120.183 159.5H121.003V161.89H123.583V159.5H124.403V165.61H120.183V159.5ZM121.003 162.55V164.93H123.583V162.55H121.003ZM131.562 159.07C132.912 159.07 133.902 159.89 133.902 161.08C133.902 162.26 132.912 163.08 131.562 163.08C130.222 163.08 129.232 162.26 129.232 161.08C129.232 159.89 130.222 159.07 131.562 159.07ZM131.562 159.75C130.692 159.75 130.032 160.3 130.032 161.08C130.032 161.86 130.692 162.4 131.562 162.4C132.442 162.4 133.092 161.86 133.092 161.08C133.092 160.3 132.442 159.75 131.562 159.75ZM135.602 158.74H136.442V163.37H135.602V158.74ZM130.592 163.81H136.442V166.01H131.422V167.37H130.612V165.39H135.622V164.48H130.592V163.81ZM130.612 167H136.742V167.66H130.612V167ZM140.898 159.69H146.238V160.37H140.898V159.69ZM143.568 160.83C144.848 160.83 145.728 161.47 145.728 162.47C145.728 163.46 144.848 164.09 143.568 164.09C142.268 164.09 141.398 163.46 141.398 162.47C141.398 161.47 142.268 160.83 143.568 160.83ZM143.568 161.48C142.738 161.48 142.188 161.86 142.188 162.47C142.188 163.06 142.738 163.45 143.568 163.45C144.378 163.45 144.938 163.06 144.938 162.47C144.938 161.86 144.378 161.48 143.568 161.48ZM147.058 158.74H147.888V164.39H147.058V158.74ZM147.658 161.23H149.228V161.92H147.658V161.23ZM142.018 164.88H147.888V167.78H147.058V165.56H142.018V164.88ZM143.148 158.69H143.978V160.07H143.148V158.69ZM151.967 159.3H152.627V160.51C152.627 161.86 151.847 163.28 150.517 163.87L150.067 163.22C151.257 162.7 151.967 161.53 151.967 160.51V159.3ZM152.097 159.3H152.757V160.51C152.757 161.51 153.437 162.53 154.597 162.98L154.147 163.61C152.847 163.09 152.097 161.84 152.097 160.51V159.3ZM156.897 158.75H157.687V164.32H156.897V158.75ZM155.457 161.16H157.167V161.84H155.457V161.16ZM154.957 158.92H155.747V164.03H154.957V158.92ZM154.717 164.52C156.577 164.52 157.737 165.12 157.737 166.15C157.737 167.17 156.577 167.76 154.717 167.76C152.847 167.76 151.707 167.17 151.707 166.15C151.707 165.12 152.847 164.52 154.717 164.52ZM154.717 165.17C153.357 165.17 152.517 165.53 152.517 166.15C152.517 166.76 153.357 167.12 154.717 167.12C156.077 167.12 156.907 166.76 156.907 166.15C156.907 165.53 156.077 165.17 154.717 165.17ZM159.266 163.04H167.436V163.71H159.266V163.04ZM163.346 164.49C165.276 164.49 166.446 165.09 166.446 166.13C166.446 167.17 165.276 167.76 163.346 167.76C161.416 167.76 160.246 167.17 160.246 166.13C160.246 165.09 161.416 164.49 163.346 164.49ZM163.346 165.15C161.936 165.15 161.086 165.5 161.086 166.13C161.086 166.75 161.936 167.11 163.346 167.11C164.766 167.11 165.606 166.75 165.606 166.13C165.606 165.5 164.766 165.15 163.346 165.15ZM162.816 159.56H163.556V159.83C163.556 161.28 161.896 162.27 160.026 162.49L159.726 161.84C161.346 161.66 162.816 160.85 162.816 159.83V159.56ZM163.166 159.56H163.896V159.83C163.896 160.85 165.366 161.66 166.986 161.84L166.686 162.49C164.816 162.27 163.166 161.28 163.166 159.83V159.56ZM160.016 159.2H166.706V159.87H160.016V159.2ZM170.071 166.006L170.017 166.393C169.982 166.677 169.922 166.973 169.836 167.281C169.754 167.591 169.667 167.878 169.577 168.143C169.49 168.409 169.417 168.619 169.361 168.776H168.608C168.638 168.629 168.681 168.43 168.736 168.179C168.79 167.93 168.843 167.652 168.895 167.344C168.947 167.037 168.986 166.723 169.013 166.403L169.048 166.006H170.071ZM173.996 159.71H179.026V160.39H173.996V159.71ZM173.866 165.55L173.766 164.84C175.396 164.84 177.586 164.82 179.446 164.59L179.496 165.21C177.606 165.52 175.456 165.55 173.866 165.55ZM174.966 160.22H175.776V165.03H174.966V160.22ZM177.246 160.22H178.056V165.03H177.246V160.22ZM179.996 158.74H180.836V167.78H179.996V158.74ZM180.636 162.35H182.316V163.05H180.636V162.35ZM189.685 158.74H190.525V165.47H189.685V158.74ZM186.935 159.44H187.815C187.815 161.78 186.145 163.55 183.585 164.39L183.225 163.72C185.455 162.99 186.935 161.57 186.935 159.79V159.44ZM183.675 159.44H187.445V160.13H183.675V159.44ZM187.395 160.6H189.815V161.28H187.395V160.6ZM187.305 162.63H189.785V163.31H187.305V162.63ZM184.805 166.9H190.745V167.58H184.805V166.9ZM184.805 164.82H185.635V167.32H184.805V164.82ZM197.291 162.98H198.121V164.14H197.291V162.98ZM201.101 158.75H201.931V164.81H201.101V158.75ZM201.581 161.48H203.251V162.17H201.581V161.48ZM194.981 164.55L194.871 163.87C196.491 163.87 198.691 163.87 200.561 163.6L200.631 164.19C198.701 164.53 196.561 164.54 194.981 164.55ZM195.991 165.26H201.931V167.78H201.101V165.92H195.991V165.26ZM195.101 159.56H200.291V160.18H195.101V159.56ZM197.701 160.53C198.971 160.53 199.801 161.04 199.801 161.87C199.801 162.7 198.971 163.21 197.701 163.21C196.421 163.21 195.591 162.7 195.591 161.87C195.591 161.04 196.421 160.53 197.701 160.53ZM197.701 161.1C196.891 161.1 196.371 161.39 196.371 161.87C196.371 162.33 196.891 162.63 197.701 162.63C198.501 162.63 199.021 162.33 199.021 161.87C199.021 161.39 198.501 161.1 197.701 161.1ZM197.291 158.67H198.121V159.86H197.291V158.67ZM208.95 161.08H210.99V161.77H208.95V161.08ZM210.73 158.74H211.56V164.13H210.73V158.74ZM208.59 164.4C210.45 164.4 211.6 165.03 211.6 166.09C211.6 167.16 210.45 167.77 208.59 167.77C206.72 167.77 205.57 167.16 205.57 166.09C205.57 165.03 206.72 164.4 208.59 164.4ZM208.59 165.05C207.23 165.05 206.4 165.43 206.4 166.09C206.4 166.74 207.23 167.12 208.59 167.12C209.95 167.12 210.78 166.74 210.78 166.09C210.78 165.43 209.95 165.05 208.59 165.05ZM206.43 159.65H207.11V160.38C207.11 162.05 206.09 163.48 204.59 164.04L204.16 163.38C205.5 162.89 206.43 161.68 206.43 160.38V159.65ZM206.59 159.65H207.26V160.38C207.26 161.55 208.14 162.67 209.45 163.13L209.03 163.79C207.56 163.26 206.59 161.9 206.59 160.38V159.65ZM204.41 159.4H209.24V160.08H204.41V159.4ZM220.486 161.8H223.006V162.48H220.486V161.8ZM218.306 159.52H218.986V161.13C218.986 163.16 217.916 165.1 216.486 165.87L215.956 165.21C217.286 164.55 218.306 162.81 218.306 161.13V159.52ZM218.466 159.52H219.136V161.13C219.136 162.78 220.156 164.42 221.466 165.04L220.976 165.71C219.516 164.97 218.466 163.11 218.466 161.13V159.52ZM222.596 158.73H223.416V167.79H222.596V158.73ZM225.165 164.12H233.365V164.8H225.165V164.12ZM227.285 164.49H228.125V167.78H227.285V164.49ZM230.395 164.49H231.225V167.78H230.395V164.49ZM226.145 159.09H232.365V161.42H227.005V162.97H226.165V160.78H231.535V159.76H226.145V159.09ZM226.165 162.53H232.575V163.2H226.165V162.53ZM237.021 163.04H245.191V163.73H237.021V163.04ZM238.051 161.51H244.241V162.18H238.051V161.51ZM238.051 159.1H244.171V159.78H238.871V161.83H238.051V159.1ZM241.091 164.51C243.021 164.51 244.191 165.1 244.191 166.14C244.191 167.18 243.021 167.76 241.091 167.76C239.161 167.76 237.991 167.18 237.991 166.14C237.991 165.1 239.161 164.51 241.091 164.51ZM241.091 165.15C239.681 165.15 238.831 165.51 238.831 166.14C238.831 166.76 239.681 167.11 241.091 167.11C242.511 167.11 243.351 166.76 243.351 166.14C243.351 165.51 242.511 165.15 241.091 165.15ZM250.3 158.89C252.29 158.89 253.48 159.45 253.48 160.46C253.48 161.47 252.29 162.03 250.3 162.03C248.3 162.03 247.12 161.47 247.12 160.46C247.12 159.45 248.3 158.89 250.3 158.89ZM250.3 159.52C248.82 159.52 247.97 159.86 247.97 160.46C247.97 161.06 248.82 161.4 250.3 161.4C251.77 161.4 252.62 161.06 252.62 160.46C252.62 159.86 251.77 159.52 250.3 159.52ZM246.21 162.63H254.38V163.3H246.21V162.63ZM247.2 164.07H253.34V166.11H248.04V167.21H247.22V165.51H252.52V164.71H247.2V164.07ZM247.22 167.03H253.61V167.68H247.22V167.03ZM38.1132 172.89H40.5432V173.58H38.1132V172.89ZM36.0332 171.15C37.3832 171.15 38.3632 172.01 38.3632 173.25C38.3632 174.49 37.3832 175.34 36.0332 175.34C34.6832 175.34 33.7032 174.49 33.7032 173.25C33.7032 172.01 34.6832 171.15 36.0332 171.15ZM36.0332 171.85C35.1432 171.85 34.5032 172.42 34.5032 173.25C34.5032 174.07 35.1432 174.65 36.0332 174.65C36.9232 174.65 37.5632 174.07 37.5632 173.25C37.5632 172.42 36.9232 171.85 36.0332 171.85ZM40.1732 170.74H41.0032V175.59H40.1732V170.74ZM35.2132 176.04H36.0432V177.18H40.1832V176.04H41.0032V179.66H35.2132V176.04ZM36.0432 177.84V178.99H40.1832V177.84H36.0432ZM42.7725 177.98H50.9625V178.67H42.7725V177.98ZM46.4325 176.04H47.2625V178.27H46.4325V176.04ZM43.7625 171.41H49.9525V174.15H44.6125V175.96H43.7925V173.48H49.1325V172.08H43.7625V171.41ZM43.7925 175.61H50.1625V176.29H43.7925V175.61ZM53.0017 175.07H59.2117V175.75H53.0017V175.07ZM51.9717 177.87H60.1617V178.56H51.9717V177.87ZM53.0017 171.57H59.1217V172.26H53.8317V175.37H53.0017V171.57ZM61.1509 172.28H65.6309V172.96H61.1509V172.28ZM63.3909 173.56C64.5209 173.56 65.3409 174.41 65.3409 175.63C65.3409 176.84 64.5209 177.69 63.3909 177.69C62.2709 177.69 61.4509 176.84 61.4509 175.63C61.4509 174.41 62.2709 173.56 63.3909 173.56ZM63.3909 174.27C62.7009 174.27 62.2009 174.83 62.2009 175.63C62.2009 176.43 62.7009 176.99 63.3909 176.99C64.0909 176.99 64.6009 176.43 64.6009 175.63C64.6009 174.83 64.0909 174.27 63.3909 174.27ZM68.0209 170.74H68.8209V179.78H68.0209V170.74ZM66.5809 174.54H68.2909V175.23H66.5809V174.54ZM66.0909 170.94H66.8709V179.34H66.0909V170.94ZM62.9909 171H63.8109V172.7H62.9909V171ZM76.6366 171.63H77.3566V172.01C77.3566 173.63 75.6366 174.82 73.8166 175.13L73.4966 174.47C75.0866 174.24 76.6366 173.2 76.6366 172.01V171.63ZM76.8466 171.63H77.5566V172.01C77.5566 173.2 79.1166 174.24 80.6966 174.47L80.3866 175.13C78.5566 174.82 76.8466 173.63 76.8466 172.01V171.63ZM76.6666 176.33H77.4866V179.78H76.6666V176.33ZM73.0166 175.89H81.1866V176.57H73.0166V175.89ZM73.7766 171.3H80.3966V171.97H73.7766V171.3ZM85.7758 173.97H87.5058V174.66H85.7758V173.97ZM84.0858 171.59H84.7358V173.31C84.7358 175.2 83.9458 177.03 82.6258 177.84L82.1058 177.21C83.3458 176.48 84.0858 174.86 84.0858 173.31V171.59ZM84.2458 171.59H84.8858V173.28C84.8858 174.73 85.5658 176.27 86.7558 176.99L86.2758 177.64C84.9758 176.84 84.2458 175.04 84.2458 173.28V171.59ZM89.0958 170.74H89.8958V179.78H89.0958V170.74ZM87.2658 170.93H88.0458V179.33H87.2658V170.93ZM93.415 175.39H94.235V178.1H93.415V175.39ZM96.755 175.39H97.585V178.1H96.755V175.39ZM91.415 177.94H99.605V178.63H91.415V177.94ZM95.495 171.31C97.405 171.31 98.775 172.22 98.775 173.64C98.775 175.05 97.405 175.96 95.495 175.96C93.575 175.96 92.205 175.05 92.205 173.64C92.205 172.22 93.575 171.31 95.495 171.31ZM95.495 171.97C94.045 171.97 93.005 172.63 93.005 173.64C93.005 174.64 94.045 175.3 95.495 175.3C96.945 175.3 97.975 174.64 97.975 173.64C97.975 172.63 96.945 171.97 95.495 171.97ZM101.528 179.067C101.333 179.067 101.167 178.999 101.027 178.862C100.887 178.722 100.817 178.554 100.817 178.357C100.817 178.163 100.887 177.997 101.027 177.86C101.167 177.72 101.333 177.651 101.528 177.651C101.722 177.651 101.889 177.72 102.028 177.86C102.168 177.997 102.238 178.163 102.238 178.357C102.238 178.487 102.205 178.607 102.138 178.716C102.074 178.822 101.989 178.908 101.883 178.972C101.776 179.036 101.658 179.067 101.528 179.067ZM112.536 170.73H113.366V179.79H112.536V170.73ZM108.596 171.43C109.936 171.43 110.896 172.66 110.896 174.58C110.896 176.51 109.936 177.74 108.596 177.74C107.266 177.74 106.306 176.51 106.306 174.58C106.306 172.66 107.266 171.43 108.596 171.43ZM108.596 172.18C107.716 172.18 107.096 173.12 107.096 174.58C107.096 176.05 107.716 177.01 108.596 177.01C109.486 177.01 110.096 176.05 110.096 174.58C110.096 173.12 109.486 172.18 108.596 172.18ZM115.165 175.4H123.365V176.08H115.165V175.4ZM116.205 170.96H122.305V173.1H117.045V174.3H116.225V172.49H121.495V171.61H116.205V170.96ZM116.225 173.98H122.505V174.63H116.225V173.98ZM116.265 176.9H122.315V179.66H116.265V176.9ZM121.505 177.56H117.075V178.99H121.505V177.56ZM124.774 171.73H128.864V172.4H124.774V171.73ZM126.184 174.31H127.004V177.37H126.184V174.31ZM128.524 171.73H129.334V172.21C129.334 172.95 129.334 174.13 129.074 175.81L128.254 175.73C128.524 174.1 128.524 172.94 128.524 172.21V171.73ZM130.474 170.74H131.294V179.78H130.474V170.74ZM131.074 174.52H132.744V175.22H131.074V174.52ZM124.374 177.81L124.274 177.11C125.914 177.11 128.094 177.08 129.924 176.85L129.964 177.46C128.094 177.76 125.974 177.8 124.374 177.81ZM136.24 171.69H141.58V172.37H136.24V171.69ZM138.91 172.83C140.19 172.83 141.07 173.47 141.07 174.47C141.07 175.46 140.19 176.09 138.91 176.09C137.61 176.09 136.74 175.46 136.74 174.47C136.74 173.47 137.61 172.83 138.91 172.83ZM138.91 173.48C138.08 173.48 137.53 173.86 137.53 174.47C137.53 175.06 138.08 175.45 138.91 175.45C139.72 175.45 140.28 175.06 140.28 174.47C140.28 173.86 139.72 173.48 138.91 173.48ZM142.4 170.74H143.23V176.39H142.4V170.74ZM143 173.23H144.57V173.92H143V173.23ZM137.36 176.88H143.23V179.78H142.4V177.56H137.36V176.88ZM138.49 170.69H139.32V172.07H138.49V170.69ZM146.259 171.64H152.079V172.33H146.259V171.64ZM145.419 177.83H153.589V178.52H145.419V177.83ZM147.419 174.84H148.239V178.08H147.419V174.84ZM151.809 171.64H152.629V172.64C152.629 173.79 152.629 174.97 152.319 176.66L151.489 176.56C151.809 174.96 151.809 173.76 151.809 172.64V171.64ZM149.649 174.84H150.469V178.08H149.649V174.84ZM158.928 172.2H161.538V172.88H158.928V172.2ZM158.928 174H161.558V174.67H158.928V174ZM161.218 170.74H162.048V176.09H161.218V170.74ZM155.028 171.42H159.158V175.44H155.028V171.42ZM158.338 172.09H155.838V174.78H158.338V172.09ZM159.078 176.35C160.938 176.35 162.088 176.98 162.088 178.06C162.088 179.14 160.938 179.76 159.078 179.76C157.208 179.76 156.058 179.14 156.058 178.06C156.058 176.98 157.208 176.35 159.078 176.35ZM159.078 177.01C157.718 177.01 156.888 177.4 156.888 178.06C156.888 178.72 157.718 179.11 159.078 179.11C160.438 179.11 161.268 178.72 161.268 178.06C161.268 177.4 160.438 177.01 159.078 177.01ZM168.964 175.26H169.804V177.32H168.964V175.26ZM169.394 171.32C170.804 171.32 171.814 172.19 171.814 173.45C171.814 174.71 170.804 175.58 169.394 175.58C167.984 175.58 166.964 174.71 166.964 173.45C166.964 172.19 167.984 171.32 169.394 171.32ZM169.394 172.04C168.454 172.04 167.774 172.61 167.774 173.45C167.774 174.29 168.454 174.87 169.394 174.87C170.324 174.87 171.004 174.29 171.004 173.45C171.004 172.61 170.324 172.04 169.394 172.04ZM172.994 170.73H173.824V179.79H172.994V170.73ZM166.624 177.83L166.504 177.14C168.154 177.14 170.434 177.13 172.404 176.82L172.474 177.43C170.444 177.82 168.234 177.83 166.624 177.83ZM184.42 170.73H185.26V179.79H184.42V170.73ZM185.06 174.3H186.74V175H185.06V174.3ZM178.69 176.84H179.4C181.07 176.84 182.24 176.78 183.59 176.53L183.68 177.23C182.29 177.49 181.1 177.54 179.4 177.54H178.69V176.84ZM178.69 171.61H182.89V172.29H179.51V177.15H178.69V171.61ZM187.499 175.75H195.699V176.42H187.499V175.75ZM188.579 178.9H194.839V179.58H188.579V178.9ZM188.579 177.13H189.409V179.16H188.579V177.13ZM188.539 171.04H194.639V173.28H189.379V174.5H188.559V172.67H193.829V171.69H188.539V171.04ZM188.559 174.28H194.839V174.93H188.559V174.28ZM204.174 173.08H206.214V173.77H204.174V173.08ZM205.954 170.74H206.784V176.13H205.954V170.74ZM203.814 176.4C205.674 176.4 206.824 177.03 206.824 178.09C206.824 179.16 205.674 179.77 203.814 179.77C201.944 179.77 200.794 179.16 200.794 178.09C200.794 177.03 201.944 176.4 203.814 176.4ZM203.814 177.05C202.454 177.05 201.624 177.43 201.624 178.09C201.624 178.74 202.454 179.12 203.814 179.12C205.174 179.12 206.004 178.74 206.004 178.09C206.004 177.43 205.174 177.05 203.814 177.05ZM201.654 171.65H202.334V172.38C202.334 174.05 201.314 175.48 199.814 176.04L199.384 175.38C200.724 174.89 201.654 173.68 201.654 172.38V171.65ZM201.814 171.65H202.484V172.38C202.484 173.55 203.364 174.67 204.674 175.13L204.254 175.79C202.784 175.26 201.814 173.9 201.814 172.38V171.65ZM199.634 171.4H204.464V172.08H199.634V171.4ZM208.554 177.94H216.744V178.63H208.554V177.94ZM212.214 175.78H213.044V178.14H212.214V175.78ZM209.514 171.38H210.334V172.99H214.944V171.38H215.764V176H209.514V171.38ZM210.334 173.66V175.32H214.944V173.66H210.334ZM218.853 173.45H224.993V174.13H218.853V173.45ZM217.743 175.34H225.943V176.02H217.743V175.34ZM218.853 171.07H219.673V173.79H218.853V171.07ZM218.793 178.88H225.043V179.56H218.793V178.88ZM218.793 176.92H219.613V179.06H218.793V176.92ZM235.709 170.73H236.549V179.78H235.709V170.73ZM236.319 174.4H237.989V175.09H236.319V174.4ZM233.399 171.71H234.209C234.209 174.28 233.029 176.6 230.109 178.07L229.649 177.43C232.149 176.16 233.399 174.23 233.399 171.84V171.71ZM230.069 171.71H233.829V172.39H230.069V171.71ZM245.398 170.73H246.228V179.79H245.398V170.73ZM243.618 172.8H245.618V173.48H243.618V172.8ZM239.128 176.99H239.798C241.198 176.99 242.348 176.95 243.728 176.73L243.808 177.42C242.388 177.64 241.228 177.69 239.798 177.69H239.128V176.99ZM239.108 171.55H243.058V174.79H239.948V177.15H239.128V174.11H242.238V172.24H239.108V171.55ZM243.558 175.27H245.558V175.95H243.558V175.27ZM251.617 171.63H252.337V172.01C252.337 173.63 250.617 174.82 248.797 175.13L248.477 174.47C250.067 174.24 251.617 173.2 251.617 172.01V171.63ZM251.827 171.63H252.537V172.01C252.537 173.2 254.097 174.24 255.677 174.47L255.367 175.13C253.537 174.82 251.827 173.63 251.827 172.01V171.63ZM251.647 176.33H252.467V179.78H251.647V176.33ZM247.997 175.89H256.167V176.57H247.997V175.89ZM248.757 171.3H255.377V171.97H248.757V171.3ZM260.756 173.97H262.486V174.66H260.756V173.97ZM259.066 171.59H259.716V173.31C259.716 175.2 258.926 177.03 257.606 177.84L257.086 177.21C258.326 176.48 259.066 174.86 259.066 173.31V171.59ZM259.226 171.59H259.866V173.28C259.866 174.73 260.546 176.27 261.736 176.99L261.256 177.64C259.956 176.84 259.226 175.04 259.226 173.28V171.59ZM264.076 170.74H264.876V179.78H264.076V170.74ZM262.246 170.93H263.026V179.33H262.246V170.93ZM268.396 175.39H269.216V178.1H268.396V175.39ZM271.736 175.39H272.566V178.1H271.736V175.39ZM266.396 177.94H274.586V178.63H266.396V177.94ZM270.476 171.31C272.386 171.31 273.756 172.22 273.756 173.64C273.756 175.05 272.386 175.96 270.476 175.96C268.556 175.96 267.186 175.05 267.186 173.64C267.186 172.22 268.556 171.31 270.476 171.31ZM270.476 171.97C269.026 171.97 267.986 172.63 267.986 173.64C267.986 174.64 269.026 175.3 270.476 175.3C271.926 175.3 272.956 174.64 272.956 173.64C272.956 172.63 271.926 171.97 270.476 171.97ZM276.508 179.067C276.314 179.067 276.147 178.999 276.007 178.862C275.868 178.722 275.798 178.554 275.798 178.357C275.798 178.163 275.868 177.997 276.007 177.86C276.147 177.72 276.314 177.651 276.508 177.651C276.702 177.651 276.869 177.72 277.009 177.86C277.148 177.997 277.218 178.163 277.218 178.357C277.218 178.487 277.185 178.607 277.119 178.716C277.055 178.822 276.97 178.908 276.863 178.972C276.757 179.036 276.638 179.067 276.508 179.067Z" fill="#979797"/>
<ellipse cx="156.5" cy="125.813" rx="7.77778" ry="7.91667" stroke="#7A7A7A" stroke-width="2"/>
<path d="M152.749 109H160.251V107H152.749V109ZM145.013 112.958H147.288V110.958H145.013V112.958ZM140 129.667V117.971H138V129.667H140ZM164 138.667H149V140.667H164V138.667ZM173 117.971V129.667H175V117.971H173ZM165.712 112.958H167.987V110.958H165.712V112.958ZM165.712 110.958C164.902 110.958 164.184 110.438 163.932 109.668L162.031 110.29C162.552 111.882 164.037 112.958 165.712 112.958V110.958ZM175 117.971C175 114.098 171.86 110.958 167.987 110.958V112.958C170.756 112.958 173 115.203 173 117.971H175ZM164 140.667C170.075 140.667 175 135.742 175 129.667H173C173 134.637 168.971 138.667 164 138.667V140.667ZM138 129.667C138 135.742 142.925 140.667 149 140.667V138.667C144.029 138.667 140 134.637 140 129.667H138ZM145.013 110.958C141.14 110.958 138 114.098 138 117.971H140C140 115.202 142.244 112.958 145.013 112.958V110.958ZM149.068 109.668C148.816 110.438 148.098 110.958 147.288 110.958V112.958C148.963 112.958 150.448 111.882 150.969 110.29L149.068 109.668ZM160.251 109C161.061 109 161.779 109.521 162.031 110.29L163.932 109.668C163.411 108.076 161.925 107 160.251 107V109ZM152.749 107C151.074 107 149.589 108.076 149.068 109.668L150.969 110.29C151.221 109.521 151.939 109 152.749 109V107Z" fill="#7A7A7A"/>
<defs>
<linearGradient id="paint0_linear_1073_5450" x1="0" y1="0" x2="310" y2="310" gradientUnits="userSpaceOnUse">
<stop stop-color="#D6EBFF" stop-opacity="0.5"/>
<stop offset="1" stop-color="#C2C7FF" stop-opacity="0.5"/>
</linearGradient>
</defs>
</svg>
