<svg xmlns="http://www.w3.org/2000/svg" width="199" height="145" viewBox="0 0 199 145" fill="none">
  <path d="M134.797 65H76.2031C75.4403 68.8572 75.0401 72.8472 75.0401 76.932C75.0401 83.024 75.9302 88.9052 77.5857 94.4492C86.0592 90.416 95.52 88.1622 105.5 88.1622C115.48 88.1622 124.941 90.416 133.414 94.4491C135.07 88.9051 135.96 83.024 135.96 76.932C135.96 72.8472 135.56 68.8572 134.797 65Z" fill="url(#paint0_linear_2945_8478)"/>
  <path d="M114.921 131C128.205 129.068 140.207 123.111 149.687 114.387C145.922 110.162 141.575 106.48 136.776 103.469C132.041 114.523 124.439 124.022 114.921 131Z" fill="url(#paint1_linear_2945_8478)"/>
  <path d="M131.285 100.419C123.483 96.6121 114.737 94.4791 105.5 94.4791C96.2626 94.4791 87.5166 96.6121 79.715 100.419C84.8823 112.811 94.0147 123.089 105.5 129.618C116.985 123.089 126.118 112.811 131.285 100.419Z" fill="url(#paint2_linear_2945_8478)"/>
  <path d="M139.015 97.4583C144.638 100.842 149.722 105.051 154.103 109.921C163.453 99.5269 169.603 86.1231 170.975 71.3106C171.297 67.8371 168.476 65 165.035 65H141.14C141.83 68.8714 142.19 72.8591 142.19 76.932C142.19 84.094 141.077 90.9922 139.015 97.4583Z" fill="url(#paint3_linear_2945_8478)"/>
  <path d="M69.8597 65C69.1698 68.8714 68.8097 72.8591 68.8097 76.932C68.8097 84.094 69.9233 90.9922 71.9847 97.4584C66.3615 100.842 61.2782 105.051 56.8973 109.921C47.5471 99.5269 41.3965 86.1231 40.025 71.3106C39.7034 67.8371 42.5238 65 45.9648 65H69.8597Z" fill="url(#paint4_linear_2945_8478)"/>
  <path d="M96.0793 131C86.5613 124.022 78.959 114.523 74.2243 103.469C69.4246 106.48 65.0783 110.162 61.3131 114.387C70.793 123.111 82.7953 129.068 96.0793 131Z" fill="url(#paint5_linear_2945_8478)"/>
  <path d="M180.591 102.462C180.591 100.55 182.117 99 184 99C185.883 99 187.409 100.55 187.409 102.462V110.077C187.409 111.989 185.883 113.538 184 113.538C182.117 113.538 180.591 111.989 180.591 110.077V102.462Z" fill="url(#paint6_linear_2945_8478)"/>
  <path d="M180.591 123.923C180.591 122.011 182.117 120.462 184 120.462C185.883 120.462 187.409 122.011 187.409 123.923V131.538C187.409 133.45 185.883 135 184 135C182.117 135 180.591 133.45 180.591 131.538V123.923Z" fill="url(#paint7_linear_2945_8478)"/>
  <path d="M192.864 120.462C190.981 120.462 189.455 118.912 189.455 117C189.455 115.088 190.981 113.538 192.864 113.538H195.591C197.474 113.538 199 115.088 199 117C199 118.912 197.474 120.462 195.591 120.462H192.864Z" fill="url(#paint8_linear_2945_8478)"/>
  <path d="M172.409 120.462C170.526 120.462 169 118.912 169 117C169 115.088 170.526 113.538 172.409 113.538H175.136C177.019 113.538 178.545 115.088 178.545 117C178.545 118.912 177.019 120.462 175.136 120.462H172.409Z" fill="url(#paint9_linear_2945_8478)"/>
  <path d="M11.5909 21.4615C11.5909 19.5498 13.1172 18 15 18C16.8828 18 18.4091 19.5498 18.4091 21.4615V29.0769C18.4091 30.9887 16.8828 32.5385 15 32.5385C13.1172 32.5385 11.5909 30.9887 11.5909 29.0769V21.4615Z" fill="url(#paint10_linear_2945_8478)"/>
  <path d="M11.5909 42.9231C11.5909 41.0113 13.1172 39.4615 15 39.4615C16.8828 39.4615 18.4091 41.0113 18.4091 42.9231V50.5385C18.4091 52.4502 16.8828 54 15 54C13.1172 54 11.5909 52.4502 11.5909 50.5385V42.9231Z" fill="url(#paint11_linear_2945_8478)"/>
  <path d="M23.8636 39.4615C21.9808 39.4615 20.4545 37.9118 20.4545 36C20.4545 34.0882 21.9808 32.5385 23.8636 32.5385H26.5909C28.4737 32.5385 30 34.0882 30 36C30 37.9118 28.4737 39.4615 26.5909 39.4615H23.8636Z" fill="url(#paint12_linear_2945_8478)"/>
  <path d="M3.40909 39.4615C1.5263 39.4615 0 37.9118 0 36C0 34.0882 1.5263 32.5385 3.40909 32.5385H6.13636C8.01915 32.5385 9.54545 34.0882 9.54545 36C9.54545 37.9118 8.01915 39.4615 6.13636 39.4615H3.40909Z" fill="url(#paint13_linear_2945_8478)"/>
  <path d="M50 134.5C50 138.642 46.6421 142 42.5 142C38.3579 142 35 138.642 35 134.5C35 130.358 38.3579 127 42.5 127C46.6421 127 50 130.358 50 134.5Z" stroke="url(#paint14_linear_2945_8478)" stroke-width="6"/>
  <path d="M87 48.25C87 42.5241 91.5616 37.8824 97.1887 37.8824H112.811C118.438 37.8824 123 42.5241 123 48.25V53.7794C123 57.2149 120.263 60 116.887 60H93.1132C89.737 60 87 57.2149 87 53.7794V48.25Z" fill="url(#paint15_linear_2945_8478)"/>
  <path d="M116.208 24.4044C116.208 30.7029 111.19 35.8088 105 35.8088C98.8102 35.8088 93.7925 30.7029 93.7925 24.4044C93.7925 18.1059 98.8102 13 105 13C111.19 13 116.208 18.1059 116.208 24.4044Z" fill="url(#paint16_linear_2945_8478)"/>
  <path d="M132 51.5C132 47.3579 135.295 44 139.358 44H150.642C154.705 44 158 47.3579 158 51.5V55.5C158 57.9853 156.023 60 153.585 60H136.415C133.977 60 132 57.9853 132 55.5V51.5Z" fill="url(#paint17_linear_2945_8478)"/>
  <path d="M153.094 34.25C153.094 38.8063 149.47 42.5 145 42.5C140.53 42.5 136.906 38.8063 136.906 34.25C136.906 29.6937 140.53 26 145 26C149.47 26 153.094 29.6937 153.094 34.25Z" fill="url(#paint18_linear_2945_8478)"/>
  <path d="M52 51.5C52 47.3579 55.2945 44 59.3585 44H70.6415C74.7055 44 78 47.3579 78 51.5V55.5C78 57.9853 76.0233 60 73.5849 60H56.4151C53.9767 60 52 57.9853 52 55.5V51.5Z" fill="url(#paint19_linear_2945_8478)"/>
  <path d="M73.0943 34.25C73.0943 38.8063 69.4704 42.5 65 42.5C60.5296 42.5 56.9057 38.8063 56.9057 34.25C56.9057 29.6937 60.5296 26 65 26C69.4704 26 73.0943 29.6937 73.0943 34.25Z" fill="url(#paint20_linear_2945_8478)"/>
  <path d="M36 4C36 1.79086 37.7475 0 39.9032 0H54.0968C56.2525 0 58 1.79086 58 4C58 6.20914 56.2525 8 54.0968 8H39.9032C37.7475 8 36 6.20914 36 4Z" fill="url(#paint21_linear_2945_8478)"/>
  <path d="M154 4C154 1.79086 155.668 0 157.726 0H171.274C173.332 0 175 1.79086 175 4C175 6.20914 173.332 8 171.274 8H157.726C155.668 8 154 6.20914 154 4Z" fill="url(#paint22_linear_2945_8478)"/>
  <path d="M62 4C62 1.79086 63.583 0 65.5357 0H67.4643C69.417 0 71 1.79086 71 4C71 6.20914 69.417 8 67.4643 8H65.5357C63.583 8 62 6.20914 62 4Z" fill="url(#paint23_linear_2945_8478)"/>
  <defs>
    <linearGradient id="paint0_linear_2945_8478" x1="40" y1="65" x2="93.0405" y2="170.277" gradientUnits="userSpaceOnUse">
      <stop stop-color="#D6EBFF"/>
      <stop offset="1" stop-color="#C2C7FF"/>
    </linearGradient>
    <linearGradient id="paint1_linear_2945_8478" x1="40" y1="65" x2="93.0405" y2="170.277" gradientUnits="userSpaceOnUse">
      <stop stop-color="#D6EBFF"/>
      <stop offset="1" stop-color="#C2C7FF"/>
    </linearGradient>
    <linearGradient id="paint2_linear_2945_8478" x1="40" y1="65" x2="93.0405" y2="170.277" gradientUnits="userSpaceOnUse">
      <stop stop-color="#D6EBFF"/>
      <stop offset="1" stop-color="#C2C7FF"/>
    </linearGradient>
    <linearGradient id="paint3_linear_2945_8478" x1="40" y1="65" x2="93.0405" y2="170.277" gradientUnits="userSpaceOnUse">
      <stop stop-color="#D6EBFF"/>
      <stop offset="1" stop-color="#C2C7FF"/>
    </linearGradient>
    <linearGradient id="paint4_linear_2945_8478" x1="40" y1="65" x2="93.0405" y2="170.277" gradientUnits="userSpaceOnUse">
      <stop stop-color="#D6EBFF"/>
      <stop offset="1" stop-color="#C2C7FF"/>
    </linearGradient>
    <linearGradient id="paint5_linear_2945_8478" x1="40" y1="65" x2="93.0405" y2="170.277" gradientUnits="userSpaceOnUse">
      <stop stop-color="#D6EBFF"/>
      <stop offset="1" stop-color="#C2C7FF"/>
    </linearGradient>
    <linearGradient id="paint6_linear_2945_8478" x1="169" y1="99" x2="204.41" y2="128.508" gradientUnits="userSpaceOnUse">
      <stop stop-color="#D6EBFF"/>
      <stop offset="1" stop-color="#C2C7FF"/>
    </linearGradient>
    <linearGradient id="paint7_linear_2945_8478" x1="169" y1="99" x2="204.41" y2="128.508" gradientUnits="userSpaceOnUse">
      <stop stop-color="#D6EBFF"/>
      <stop offset="1" stop-color="#C2C7FF"/>
    </linearGradient>
    <linearGradient id="paint8_linear_2945_8478" x1="169" y1="99" x2="204.41" y2="128.508" gradientUnits="userSpaceOnUse">
      <stop stop-color="#D6EBFF"/>
      <stop offset="1" stop-color="#C2C7FF"/>
    </linearGradient>
    <linearGradient id="paint9_linear_2945_8478" x1="169" y1="99" x2="204.41" y2="128.508" gradientUnits="userSpaceOnUse">
      <stop stop-color="#D6EBFF"/>
      <stop offset="1" stop-color="#C2C7FF"/>
    </linearGradient>
    <linearGradient id="paint10_linear_2945_8478" x1="0" y1="18" x2="35.4098" y2="47.5082" gradientUnits="userSpaceOnUse">
      <stop stop-color="#D6EBFF"/>
      <stop offset="1" stop-color="#C2C7FF"/>
    </linearGradient>
    <linearGradient id="paint11_linear_2945_8478" x1="0" y1="18" x2="35.4098" y2="47.5082" gradientUnits="userSpaceOnUse">
      <stop stop-color="#D6EBFF"/>
      <stop offset="1" stop-color="#C2C7FF"/>
    </linearGradient>
    <linearGradient id="paint12_linear_2945_8478" x1="0" y1="18" x2="35.4098" y2="47.5082" gradientUnits="userSpaceOnUse">
      <stop stop-color="#D6EBFF"/>
      <stop offset="1" stop-color="#C2C7FF"/>
    </linearGradient>
    <linearGradient id="paint13_linear_2945_8478" x1="0" y1="18" x2="35.4098" y2="47.5082" gradientUnits="userSpaceOnUse">
      <stop stop-color="#D6EBFF"/>
      <stop offset="1" stop-color="#C2C7FF"/>
    </linearGradient>
    <linearGradient id="paint14_linear_2945_8478" x1="32" y1="124" x2="53" y2="145" gradientUnits="userSpaceOnUse">
      <stop stop-color="#D6EBFF"/>
      <stop offset="1" stop-color="#C2C7FF"/>
    </linearGradient>
    <linearGradient id="paint15_linear_2945_8478" x1="87" y1="13" x2="132.377" y2="47.7572" gradientUnits="userSpaceOnUse">
      <stop stop-color="#D6EBFF"/>
      <stop offset="1" stop-color="#C2C7FF"/>
    </linearGradient>
    <linearGradient id="paint16_linear_2945_8478" x1="87" y1="13" x2="132.377" y2="47.7572" gradientUnits="userSpaceOnUse">
      <stop stop-color="#D6EBFF"/>
      <stop offset="1" stop-color="#C2C7FF"/>
    </linearGradient>
    <linearGradient id="paint17_linear_2945_8478" x1="132" y1="26" x2="164.812" y2="51.0917" gradientUnits="userSpaceOnUse">
      <stop stop-color="#D6EBFF"/>
      <stop offset="1" stop-color="#C2C7FF"/>
    </linearGradient>
    <linearGradient id="paint18_linear_2945_8478" x1="132" y1="26" x2="164.812" y2="51.0917" gradientUnits="userSpaceOnUse">
      <stop stop-color="#D6EBFF"/>
      <stop offset="1" stop-color="#C2C7FF"/>
    </linearGradient>
    <linearGradient id="paint19_linear_2945_8478" x1="52" y1="26" x2="84.8122" y2="51.0917" gradientUnits="userSpaceOnUse">
      <stop stop-color="#D6EBFF"/>
      <stop offset="1" stop-color="#C2C7FF"/>
    </linearGradient>
    <linearGradient id="paint20_linear_2945_8478" x1="52" y1="26" x2="84.8122" y2="51.0917" gradientUnits="userSpaceOnUse">
      <stop stop-color="#D6EBFF"/>
      <stop offset="1" stop-color="#C2C7FF"/>
    </linearGradient>
    <linearGradient id="paint21_linear_2945_8478" x1="36" y1="0" x2="41.1387" y2="14.1314" gradientUnits="userSpaceOnUse">
      <stop stop-color="#D6EBFF"/>
      <stop offset="1" stop-color="#C2C7FF"/>
    </linearGradient>
    <linearGradient id="paint22_linear_2945_8478" x1="154" y1="0" x2="159.323" y2="13.9723" gradientUnits="userSpaceOnUse">
      <stop stop-color="#D6EBFF"/>
      <stop offset="1" stop-color="#C2C7FF"/>
    </linearGradient>
    <linearGradient id="paint23_linear_2945_8478" x1="62" y1="0" x2="69.9448" y2="8.93793" gradientUnits="userSpaceOnUse">
      <stop stop-color="#D6EBFF"/>
      <stop offset="1" stop-color="#C2C7FF"/>
    </linearGradient>
  </defs>
</svg>

