<svg width="264" height="395" viewBox="0 0 264 395" fill="none" xmlns="http://www.w3.org/2000/svg">
<path d="M6 47.6H12.08C25.92 47.6 34.56 47.36 44.4 45.76L45.2 54.24C35.12 55.84 26.16 56.08 12.08 56.08H6V47.6ZM5.92 15.92H39.36V39.68H16.56V53.12H6V31.68H28.88V24.4H5.92V15.92ZM54.56 11.12H65.2V65.6H54.56V11.12ZM15.92 75.36H67.04V83.84H15.92V75.36ZM15.92 61.28H26.56V78.08H15.92V61.28ZM42.96 28.8H56.64V37.76H42.96V28.8ZM82.7937 46.72H88.7137C101.914 46.72 110.234 46.32 119.674 44.56L120.554 53.04C110.954 54.8 102.234 55.2 88.7137 55.2H82.7937V46.72ZM82.7937 16.08H116.394V24.56H93.3537V48.88H82.7937V16.08ZM129.754 11.04H140.394V64.96H129.754V11.04ZM112.154 30.32H131.754V38.72H112.154V30.32ZM91.4337 75.52H142.074V84H91.4337V75.52ZM91.4337 60.56H102.154V81.04H91.4337V60.56ZM169.592 70.0455L169.365 73.2273C169.175 75.9545 168.721 78.5682 168.001 81.0682C167.3 83.5682 166.552 85.7841 165.757 87.7159C164.98 89.6477 164.365 91.1439 163.91 92.2045H154.251C154.554 91.1439 154.98 89.6098 155.53 87.6023C156.098 85.6136 156.609 83.3598 157.064 80.8409C157.537 78.3409 157.774 75.803 157.774 73.2273V70.0455H169.592Z" fill="url(#paint0_linear_2287_6583)"/>
<path d="M9 109.74H14.48V111.88H9V109.74ZM9 113.76H14.48V115.9H9V113.76ZM3.68 119.06H16.3V125.78H13.64V121.16H3.68V119.06ZM13.64 107.26H16.3V118.22H13.64V107.26ZM5.92 108.22C8.68 108.22 10.8 110.14 10.8 112.8C10.8 115.48 8.68 117.4 5.92 117.4C3.14 117.4 1.02 115.48 1.02 112.8C1.02 110.14 3.14 108.22 5.92 108.22ZM5.92 110.48C4.56 110.48 3.56 111.34 3.56 112.8C3.56 114.28 4.56 115.14 5.92 115.14C7.26 115.14 8.28 114.28 8.28 112.8C8.28 111.34 7.26 110.48 5.92 110.48ZM23.7584 108.68H25.9184V111.38C25.9184 115.96 24.3184 120.26 20.8184 121.98L19.2184 119.84C22.3384 118.38 23.7584 114.82 23.7584 111.38V108.68ZM24.2984 108.68H26.4184V111.38C26.4184 114.7 27.7384 118.08 30.6984 119.52L29.0984 121.64C25.7584 119.94 24.2984 115.82 24.2984 111.38V108.68ZM31.4384 107.26H34.1184V125.78H31.4384V107.26ZM33.5184 114.38H36.7984V116.6H33.5184V114.38ZM42.5569 116.64H45.2169V121.02H42.5569V116.64ZM43.8569 108.34C46.7169 108.34 48.8969 110.24 48.8969 112.9C48.8969 115.56 46.7169 117.46 43.8569 117.46C40.9769 117.46 38.8169 115.56 38.8169 112.9C38.8169 110.24 40.9769 108.34 43.8569 108.34ZM43.8569 110.6C42.4569 110.6 41.4169 111.44 41.4169 112.9C41.4169 114.34 42.4569 115.2 43.8569 115.2C45.2569 115.2 46.2969 114.34 46.2969 112.9C46.2969 111.44 45.2569 110.6 43.8569 110.6ZM50.3569 107.26H53.0169V125.78H50.3569V107.26ZM52.1969 114.5H55.4569V116.72H52.1969V114.5ZM38.5169 122.1L38.1969 119.96C41.3969 119.94 45.7169 119.96 49.3969 119.46L49.5969 121.4C45.7569 122.12 41.6369 122.12 38.5169 122.1ZM75.3962 107.28H78.0562V121.38H75.3962V107.28ZM72.9762 111.86H76.3962V113.98H72.9762V111.86ZM72.9762 115.84H76.3962V117.94H72.9762V115.84ZM62.6162 109.2H72.7762V111.28H62.6162V109.2ZM67.8162 111.94C70.3362 111.94 72.1562 113.44 72.1562 115.58C72.1562 117.72 70.3362 119.22 67.8162 119.22C65.2962 119.22 63.4762 117.72 63.4762 115.58C63.4762 113.44 65.2962 111.94 67.8162 111.94ZM67.8162 113.98C66.7362 113.98 65.9762 114.56 65.9762 115.58C65.9762 116.62 66.7362 117.18 67.8162 117.18C68.8962 117.18 69.6562 116.62 69.6562 115.58C69.6562 114.56 68.8962 113.98 67.8162 113.98ZM66.4962 107.22H69.1562V110.48H66.4962V107.22ZM65.7962 123.34H78.4562V125.46H65.7962V123.34ZM65.7962 120.22H68.4762V124.32H65.7962V120.22ZM94.7347 107.26H97.2547V125.78H94.7347V107.26ZM92.2547 114.38H95.3347V116.52H92.2547V114.38ZM90.5947 107.58H93.0547V124.9H90.5947V107.58ZM81.8747 119.42H83.1747C85.4547 119.42 87.3547 119.34 89.5547 118.94L89.7547 121.1C87.5147 121.54 85.5547 121.6 83.1747 121.6H81.8747V119.42ZM81.8747 109.4H88.7147V111.54H84.5147V120.46H81.8747V109.4ZM111.993 107.24H114.673V125.76H111.993V107.24ZM113.973 114.32H117.233V116.5H113.973V114.32ZM107.133 109.16H109.733C109.733 114.72 107.613 119.48 101.453 122.58L99.9731 120.56C104.833 118.04 107.133 114.64 107.133 109.62V109.16ZM100.993 109.16H108.493V111.3H100.993V109.16ZM132.592 118.78C136.592 118.78 139.152 120.1 139.152 122.3C139.152 124.46 136.592 125.78 132.592 125.78C128.592 125.78 126.032 124.46 126.032 122.3C126.032 120.1 128.592 118.78 132.592 118.78ZM132.592 120.78C130.092 120.78 128.672 121.3 128.672 122.3C128.672 123.28 130.092 123.78 132.592 123.78C135.092 123.78 136.512 123.28 136.512 122.3C136.512 121.3 135.092 120.78 132.592 120.78ZM126.232 108.08H137.952V110.18H126.232V108.08ZM124.352 115.52H141.032V117.64H124.352V115.52ZM130.532 112.3H133.172V116.06H130.532V112.3ZM136.412 108.08H139.052V109.6C139.052 111.06 139.052 112.64 138.552 114.56L135.912 114.28C136.412 112.38 136.412 111.04 136.412 109.6V108.08ZM149.651 109.22H152.011V109.66C152.011 112.62 149.531 115.12 144.811 115.68L143.851 113.56C147.871 113.14 149.651 111.3 149.651 109.66V109.22ZM150.951 109.22H153.311V109.66C153.311 111.3 155.111 113.14 159.131 113.56L158.151 115.68C153.451 115.12 150.951 112.64 150.951 109.66V109.22ZM144.631 108.04H158.351V110.14H144.631V108.04ZM145.131 123.34H157.971V125.46H145.131V123.34ZM145.131 120.16H147.791V124.12H145.131V120.16ZM143.111 116.92H159.871V119.02H143.111V116.92ZM150.131 114.38H152.771V117.78H150.131V114.38ZM173.789 107.26H176.429V125.78H173.789V107.26ZM175.829 114.48H179.109V116.7H175.829V114.48ZM161.829 110H172.609V112.12H161.829V110ZM167.249 113.16C169.949 113.16 171.949 115 171.949 117.58C171.949 120.16 169.949 122 167.249 122C164.549 122 162.549 120.16 162.549 117.58C162.549 115 164.549 113.16 167.249 113.16ZM167.249 115.32C165.989 115.32 165.089 116.16 165.089 117.58C165.089 119 165.989 119.84 167.249 119.84C168.509 119.84 169.409 119 169.409 117.58C169.409 116.16 168.509 115.32 167.249 115.32ZM165.909 107.56H168.569V110.8H165.909V107.56ZM182.788 112.26H195.628V114.36H182.788V112.26ZM180.708 116.28H197.488V118.4H180.708V116.28ZM182.788 107.92H185.428V113.3H182.788V107.92ZM182.608 123.26H195.728V125.38H182.608V123.26ZM182.608 119.88H185.268V123.82H182.608V119.88ZM206.827 115.52H219.847V117.64H206.827V115.52ZM204.887 121.52H221.647V123.7H204.887V121.52ZM211.907 116.48H214.567V122.22H211.907V116.48ZM206.827 108.52H219.707V110.66H209.487V116.44H206.827V108.52ZM228.186 108.68H230.346V111.38C230.346 116.14 228.706 120.44 225.026 122.14L223.446 119.94C226.666 118.54 228.186 114.98 228.186 111.38V108.68ZM228.706 108.68H230.866V111.38C230.866 114.8 232.326 118.2 235.486 119.56L233.926 121.7C230.346 120.06 228.706 115.94 228.706 111.38V108.68ZM236.366 107.24H239.046V125.82H236.366V107.24Z" fill="#D0D6DA"/>
<path fill-rule="evenodd" clip-rule="evenodd" d="M166.42 383C180.431 367.918 189 347.71 189 325.5C189 278.832 151.168 241 104.5 241C57.8319 241 20 278.832 20 325.5C20 347.71 28.5685 367.918 42.5802 383H166.42Z" fill="#EEEEEE" fill-opacity="0.8"/>
<ellipse cx="142.41" cy="369.201" rx="7.85894" ry="7.84222" fill="#BBDEFF"/>
<path fill-rule="evenodd" clip-rule="evenodd" d="M122.529 315.69C122.529 313.652 124.185 312 126.228 312H242.725C244.767 312 246.423 313.652 246.423 315.69V338.756C246.423 338.77 246.423 338.783 246.423 338.797V350.288C246.423 350.288 246.423 350.288 246.423 350.288L246.423 350.289L246.423 350.289V364.663C246.423 367.425 244.185 369.663 241.423 369.663H222.374C222.381 369.51 222.385 369.356 222.385 369.201C222.385 364.105 218.246 359.975 213.139 359.975C208.033 359.975 203.894 364.105 203.894 369.201C203.894 369.356 203.897 369.51 203.905 369.663H151.644C151.651 369.51 151.655 369.356 151.655 369.201C151.655 364.106 147.515 359.975 142.409 359.975C137.303 359.975 133.163 364.106 133.163 369.201C133.163 369.356 133.167 369.51 133.175 369.663H127.529C124.768 369.663 122.529 367.425 122.529 364.663V353.524C122.529 351.737 123.978 350.288 125.765 350.288C127.552 350.288 129.001 348.84 129.001 347.053V345.14C129.001 342.378 126.762 340.14 124.001 340.14H123.916C123.15 340.14 122.529 339.52 122.529 338.756V315.69ZM148.418 319.842H136.861C134.818 319.842 133.162 321.494 133.162 323.532V330.452C133.162 331.216 133.783 331.836 134.549 331.836H148.418V319.842ZM166.447 319.842H151.192V331.836H166.447V319.842ZM184.477 319.842H169.221V331.836H184.477V319.842ZM202.506 319.842H187.25V331.836H202.506V319.842ZM220.535 319.842H205.28V331.836H220.535V319.842ZM223.309 331.836H237.178C237.944 331.836 238.565 331.216 238.565 330.452V323.532C238.565 321.494 236.909 319.842 234.866 319.842H223.309V331.836ZM144.72 342.446H136.861C134.818 342.446 133.163 344.098 133.163 346.136V353.056C133.163 353.82 133.783 354.44 134.549 354.44H144.72V342.446ZM166.447 342.446H151.192V354.44H166.447V342.446ZM184.477 342.446H169.221V354.44H184.477V342.446ZM202.506 342.446H187.251V354.44H202.506V342.446ZM205.28 354.44H219.149C219.915 354.44 220.535 353.82 220.535 353.056V346.136C220.535 344.098 218.88 342.446 216.837 342.446H205.28V354.44ZM145.644 343.83C145.644 343.065 146.265 342.446 147.031 342.446H148.881C149.646 342.446 150.267 343.065 150.267 343.83V355.362C150.267 356.127 149.646 356.746 148.881 356.746H147.031C146.265 356.746 145.644 356.127 145.644 355.362V343.83ZM232.556 339.678C231.79 339.678 231.169 340.297 231.169 341.061V362.743C231.169 363.507 231.79 364.127 232.556 364.127H239.49C240.256 364.127 240.877 363.507 240.877 362.743V341.061C240.877 340.297 240.256 339.678 239.49 339.678H232.556Z" fill="#BBDEFF"/>
<ellipse cx="213.14" cy="369.201" rx="7.85894" ry="7.84222" fill="#BBDEFF"/>
<circle cx="203.5" cy="251.5" r="19.5" fill="#F1F1F1"/>
<path fill-rule="evenodd" clip-rule="evenodd" d="M143.061 279.65C143.041 279.651 143.02 279.651 143 279.651C138.582 279.651 135 276.069 135 271.651C135 267.232 138.582 263.651 143 263.651C143.79 263.651 144.554 263.765 145.275 263.979C146.507 258.08 151.736 253.65 158 253.65C159.173 253.65 160.311 253.806 161.392 254.097C164.165 247.379 170.78 242.65 178.5 242.65C187.604 242.65 195.173 249.227 196.713 257.889C197.451 257.733 198.216 257.651 199 257.651C205.075 257.651 210 262.576 210 268.651C210 274.726 205.075 279.651 199 279.651C198.975 279.651 198.949 279.651 198.924 279.65H178.524C178.516 279.65 178.508 279.65 178.5 279.65C178.492 279.65 178.484 279.65 178.476 279.65H143.061Z" fill="white"/>
<path fill-rule="evenodd" clip-rule="evenodd" d="M75.9886 358.681C80.7405 358.427 84.5156 354.494 84.5156 349.679C84.5156 344.7 80.4795 340.664 75.5006 340.664C74.6102 340.664 73.7499 340.793 72.9375 341.033C71.5488 334.387 65.6564 329.396 58.598 329.396C57.2755 329.396 55.9939 329.571 54.7751 329.899C51.6505 322.328 44.1957 317 35.4965 317C25.2374 317 16.7091 324.41 14.9725 334.171C14.1411 333.995 13.279 333.902 12.3954 333.902C5.54945 333.902 -0.000259399 339.452 -0.000259399 346.298C-0.000259399 352.997 5.31361 358.455 11.9561 358.686C12.0172 358.692 12.0791 358.694 12.1417 358.694H75.7541C75.8335 358.694 75.9117 358.69 75.9886 358.681Z" fill="white"/>
<path fill-rule="evenodd" clip-rule="evenodd" d="M61.3581 298.203V287.444C60.1392 284.991 57.6081 283.305 54.6833 283.305C51.0175 283.305 47.9702 285.953 47.3496 289.441C47.0527 289.378 46.7448 289.345 46.4292 289.345C43.983 289.345 42 291.328 42 293.774C42 296.22 43.983 298.203 46.4292 298.203C46.6728 298.203 46.9118 298.184 47.1448 298.146C47.2981 298.183 47.4585 298.203 47.6235 298.203H54.6833H61.3581Z" fill="white"/>
<path d="M223.5 373.5H254" stroke="#BBDEFF" stroke-width="3" stroke-linecap="round"/>
<path d="M155 373H177" stroke="#BBDEFF" stroke-width="3" stroke-linecap="round"/>
<path d="M31.3768 242.376L28.2803 239.28" stroke="#D0D6DA" stroke-linecap="round"/>
<path d="M26.3943 237.395L24.2402 235.241" stroke="#D0D6DA" stroke-linecap="round"/>
<path d="M22.8951 233.895L21.5488 232.548" stroke="#D0D6DA" stroke-linecap="round"/>
<path d="M36.0195 242.377L39.116 239.28" stroke="#D0D6DA" stroke-linecap="round"/>
<path d="M41.001 237.395L43.1551 235.241" stroke="#D0D6DA" stroke-linecap="round"/>
<path d="M44.501 233.895L45.8473 232.548" stroke="#D0D6DA" stroke-linecap="round"/>
<path d="M31.3758 247.019L28.2793 250.115" stroke="#D0D6DA" stroke-linecap="round"/>
<path d="M26.3953 252L24.2412 254.154" stroke="#D0D6DA" stroke-linecap="round"/>
<path d="M22.8942 255.5L21.5479 256.847" stroke="#D0D6DA" stroke-linecap="round"/>
<path d="M36.0186 247.019L39.115 250.115" stroke="#D0D6DA" stroke-linecap="round"/>
<path d="M41 252L43.1541 254.154" stroke="#D0D6DA" stroke-linecap="round"/>
<path d="M44.5 255.5L45.8463 256.846" stroke="#D0D6DA" stroke-linecap="round"/>
<path d="M150 206V199.068M150 194.849V190.027M150 187.014V184" stroke="#D0D6DA" stroke-width="2" stroke-linecap="round"/>
<path d="M149.896 216.52V223.445" stroke="#D0D6DA" stroke-width="2" stroke-linecap="round"/>
<path d="M149.896 227.66L149.896 232.478" stroke="#D0D6DA" stroke-width="2" stroke-linecap="round"/>
<path d="M149.896 235.489L149.896 238.5" stroke="#D0D6DA" stroke-width="2" stroke-linecap="round"/>
<path d="M146.167 207.974L141.27 203.077" stroke="#D0D6DA" stroke-width="2" stroke-linecap="round"/>
<path d="M138.288 200.096L134.882 196.689" stroke="#D0D6DA" stroke-width="2" stroke-linecap="round"/>
<path d="M132.753 194.56L130.624 192.431" stroke="#D0D6DA" stroke-width="2" stroke-linecap="round"/>
<path d="M145.981 211.702L139.056 211.702" stroke="#D0D6DA" stroke-width="2" stroke-linecap="round"/>
<path d="M134.84 211.702L130.022 211.702" stroke="#D0D6DA" stroke-width="2" stroke-linecap="round"/>
<path d="M127.011 211.702L124 211.702" stroke="#D0D6DA" stroke-width="2" stroke-linecap="round"/>
<path d="M153.509 207.974L158.406 203.077" stroke="#D0D6DA" stroke-width="2" stroke-linecap="round"/>
<path d="M161.387 200.096L164.793 196.689" stroke="#D0D6DA" stroke-width="2" stroke-linecap="round"/>
<path d="M166.922 194.56L169.051 192.431" stroke="#D0D6DA" stroke-width="2" stroke-linecap="round"/>
<path d="M146.167 215.315L141.27 220.212" stroke="#D0D6DA" stroke-width="2" stroke-linecap="round"/>
<path d="M138.289 223.193L134.883 226.599" stroke="#D0D6DA" stroke-width="2" stroke-linecap="round"/>
<path d="M132.753 228.729L130.624 230.858" stroke="#D0D6DA" stroke-width="2" stroke-linecap="round"/>
<path d="M153.508 215.315L158.405 220.212" stroke="#D0D6DA" stroke-width="2" stroke-linecap="round"/>
<path d="M161.386 223.193L164.792 226.599" stroke="#D0D6DA" stroke-width="2" stroke-linecap="round"/>
<path d="M166.922 228.729L169.051 230.858" stroke="#D0D6DA" stroke-width="2" stroke-linecap="round"/>
<path d="M153.695 211.702L160.621 211.702" stroke="#D0D6DA" stroke-width="2" stroke-linecap="round"/>
<path d="M164.836 211.702L169.654 211.702" stroke="#D0D6DA" stroke-width="2" stroke-linecap="round"/>
<path d="M172.665 211.702L175.676 211.702" stroke="#D0D6DA" stroke-width="2" stroke-linecap="round"/>
<rect x="28" y="380" width="233" height="12" rx="6" fill="#F1F1F1" stroke="white" stroke-width="6"/>
<rect x="75.2969" y="218.073" width="29.4248" height="8.5177" rx="3" fill="#BBDEFF"/>
<path d="M79.2622 211.785C77.7988 213.248 78.8352 215.75 80.9048 215.75H99.1131C101.183 215.75 102.219 213.248 100.756 211.785L91.6516 202.68C90.7444 201.773 89.2735 201.773 88.3664 202.68L79.2622 211.785Z" fill="#BBDEFF"/>
<path fill-rule="evenodd" clip-rule="evenodd" d="M103.56 228.914C104.292 228.914 104.98 229.258 105.419 229.843L111.226 237.587C111.528 237.989 111.691 238.478 111.691 238.98V245.175C111.691 246.458 110.651 247.498 109.368 247.498H70.6511C69.3682 247.498 68.3281 246.458 68.3281 245.175V238.98C68.3281 238.478 68.4911 237.989 68.7927 237.587L74.6002 229.843C75.039 229.258 75.7275 228.914 76.4587 228.914H103.56ZM98.9144 232.786C97.8453 232.786 96.9786 233.652 96.9786 234.722V240.916C96.9786 241.985 97.8453 242.852 98.9144 242.852C99.9835 242.852 100.85 241.985 100.85 240.916V234.722C100.85 233.652 99.9835 232.786 98.9144 232.786ZM88.4609 234.722C88.4609 233.652 89.3276 232.786 90.3967 232.786C91.4659 232.786 92.3326 233.652 92.3326 234.722V240.916C92.3326 241.985 91.4659 242.852 90.3967 242.852C89.3276 242.852 88.4609 241.985 88.4609 240.916V234.722ZM81.879 232.786C80.8099 232.786 79.9432 233.652 79.9432 234.722V240.916C79.9432 241.985 80.8099 242.852 81.879 242.852C82.9481 242.852 83.8149 241.985 83.8149 240.916V234.722C83.8149 233.652 82.9481 232.786 81.879 232.786Z" fill="#BBDEFF"/>
<path fill-rule="evenodd" clip-rule="evenodd" d="M66.7791 250.595C65.4961 250.595 64.4561 251.635 64.4561 252.918V299.378C64.4561 300.661 65.4961 301.701 66.7791 301.701H113.239C114.522 301.701 115.562 300.661 115.562 299.378V252.918C115.562 251.635 114.522 250.595 113.239 250.595H66.7791ZM89.622 294.732C99.6719 294.732 107.819 286.585 107.819 276.535C107.819 266.486 99.6719 258.339 89.622 258.339C79.5721 258.339 71.4251 266.486 71.4251 276.535C71.4251 286.585 79.5721 294.732 89.622 294.732Z" fill="#BBDEFF"/>
<path fill-rule="evenodd" clip-rule="evenodd" d="M89.6219 292.409C98.3889 292.409 105.496 285.302 105.496 276.536C105.496 267.769 98.3889 260.662 89.6219 260.662C80.855 260.662 73.748 267.769 73.748 276.536C73.748 285.302 80.855 292.409 89.6219 292.409ZM91.1706 263.759C91.1706 263.117 90.6506 262.597 90.0091 262.597C89.3676 262.597 88.8476 263.117 88.8476 263.759V276.536C88.8476 276.601 88.8531 276.666 88.8637 276.729C88.8531 276.792 88.8476 276.857 88.8476 276.923C88.8476 277.564 89.3676 278.084 90.0091 278.084H99.3011C99.9426 278.084 100.463 277.564 100.463 276.923C100.463 276.281 99.9426 275.761 99.3011 275.761H91.1706V263.759Z" fill="#BBDEFF"/>
<rect x="68.3281" y="372.166" width="43.3628" height="4.64602" rx="2.32301" fill="#BBDEFF"/>
<path d="M68.3281 350.485C68.3281 349.202 69.3682 348.162 70.6511 348.162H109.368C110.651 348.162 111.691 349.202 111.691 350.485V366.746C111.691 368.029 110.651 369.069 109.368 369.069H107.045V359.389C107.045 358.32 106.178 357.454 105.109 357.454C104.04 357.454 103.173 358.32 103.173 359.389V369.069H96.9786V359.389C96.9786 358.32 96.1119 357.454 95.0427 357.454C93.9736 357.454 93.1069 358.32 93.1069 359.389V369.069H86.9122V359.389C86.9122 358.32 86.0455 357.454 84.9764 357.454C83.9072 357.454 83.0405 358.32 83.0405 359.389V369.069H76.8458V359.389C76.8458 358.32 75.9791 357.454 74.91 357.454C73.8408 357.454 72.9741 358.32 72.9741 359.389V369.069H70.6511C69.3682 369.069 68.3281 368.029 68.3281 366.746V350.485Z" fill="#BBDEFF"/>
<path d="M68.3281 327.255C68.3281 325.972 69.3682 324.932 70.6511 324.932H109.368C110.651 324.932 111.691 325.972 111.691 327.255V342.741C111.691 344.024 110.651 345.064 109.368 345.064H107.045V335.815C107.045 334.746 106.178 333.88 105.109 333.88C104.04 333.88 103.173 334.746 103.173 335.815V345.064H96.9786V335.815C96.9786 334.746 96.1119 333.88 95.0427 333.88C93.9736 333.88 93.1069 334.746 93.1069 335.815V345.064H86.9122V335.815C86.9122 334.746 86.0455 333.88 84.9764 333.88C83.9072 333.88 83.0405 334.746 83.0405 335.815V345.064H76.8458V335.815C76.8458 334.746 75.9791 333.88 74.91 333.88C73.8408 333.88 72.9741 334.746 72.9741 335.815V345.064H70.6511C69.3682 345.064 68.3281 344.024 68.3281 342.741V327.255Z" fill="#BBDEFF"/>
<path d="M68.3281 307.122C68.3281 305.839 69.3682 304.799 70.6511 304.799H109.368C110.651 304.799 111.691 305.839 111.691 307.122V319.511C111.691 320.794 110.651 321.834 109.368 321.834H107.044C107.045 321.82 107.045 321.806 107.045 321.791V314.306C107.045 313.237 106.178 312.37 105.109 312.37C104.04 312.37 103.173 313.237 103.173 314.306V321.791L103.173 321.812L103.174 321.834H96.9781C96.9784 321.82 96.9786 321.806 96.9786 321.791V314.306C96.9786 313.237 96.1119 312.37 95.0427 312.37C93.9736 312.37 93.1069 313.237 93.1069 314.306V321.791C93.1069 321.799 93.1069 321.806 93.107 321.814C93.1071 321.82 93.1072 321.827 93.1074 321.834H86.9117C86.9119 321.826 86.912 321.818 86.9121 321.81C86.9122 321.804 86.9122 321.798 86.9122 321.791V314.306C86.9122 313.237 86.0455 312.37 84.9764 312.37C83.9072 312.37 83.0405 313.237 83.0405 314.306V321.791C83.0405 321.806 83.0407 321.82 83.041 321.834H76.8454C76.8457 321.82 76.8458 321.806 76.8458 321.791V314.306C76.8458 313.237 75.9791 312.37 74.91 312.37C73.8408 312.37 72.9741 313.237 72.9741 314.306V321.791C72.9741 321.806 72.9743 321.82 72.9746 321.834H70.6511C69.3682 321.834 68.3281 320.794 68.3281 319.511V307.122Z" fill="#BBDEFF"/>
<defs>
<linearGradient id="paint0_linear_2287_6583" x1="0" y1="0" x2="82.0099" y2="148.801" gradientUnits="userSpaceOnUse">
<stop stop-color="#D6EBFF"/>
<stop offset="1" stop-color="#C2C7FF"/>
</linearGradient>
</defs>
</svg>
