<svg width="264" height="395" viewBox="0 0 264 395" fill="none" xmlns="http://www.w3.org/2000/svg">
<path fill-rule="evenodd" clip-rule="evenodd" d="M42.4532 378.786H87.4668C87.52 378.786 87.5732 378.786 87.6265 378.786C87.6797 378.786 87.7329 378.786 87.7861 378.786H132.815C132.857 378.786 132.9 378.786 132.942 378.786C132.984 378.786 133.027 378.786 133.069 378.786H168.518C168.944 378.786 169.338 378.653 169.662 378.427C177.721 376.779 183.783 369.649 183.783 361.102C183.783 351.336 175.866 343.419 166.1 343.419C164.352 343.419 162.664 343.672 161.07 344.144C158.347 331.107 146.788 321.315 132.942 321.315C130.348 321.315 127.834 321.659 125.443 322.303C119.314 307.452 104.691 297 87.6265 297C67.5022 297 50.7732 311.537 47.367 330.682C45.7374 330.338 44.0477 330.157 42.3156 330.157C28.8868 330.157 18.0007 341.043 18.0007 354.472C18.0007 366.762 27.1199 376.923 38.9613 378.557C39.2392 378.703 39.5558 378.786 39.8916 378.786H42.1779C42.2238 378.786 42.2697 378.787 42.3156 378.787C42.3615 378.787 42.4074 378.786 42.4532 378.786Z" fill="#F1F1F1"/>
<path fill-rule="evenodd" clip-rule="evenodd" d="M157.204 293.123C157.092 293.13 156.98 293.133 156.867 293.133C153.627 293.133 151 290.506 151 287.266C151 284.026 153.627 281.4 156.867 281.4C157.446 281.4 158.006 281.484 158.535 281.64C159.439 277.315 163.273 274.067 167.867 274.067C168.728 274.067 169.562 274.181 170.355 274.395C172.388 269.468 177.239 266 182.901 266C189.577 266 195.127 270.823 196.257 277.174C196.797 277.06 197.358 277 197.933 277C202.388 277 205.999 280.611 205.999 285.067C205.999 289.522 202.388 293.133 197.933 293.133C197.813 293.133 197.694 293.131 197.576 293.125C197.518 293.13 197.46 293.133 197.401 293.133H182.96C182.94 293.133 182.92 293.133 182.901 293.133C182.881 293.133 182.861 293.133 182.841 293.133H167.92C167.902 293.133 167.884 293.133 167.867 293.133C167.849 293.133 167.832 293.133 167.814 293.133H157.401C157.335 293.133 157.269 293.13 157.204 293.123Z" fill="#F1F1F1"/>
<path fill-rule="evenodd" clip-rule="evenodd" d="M253.839 348.222C254.047 348.26 254.261 348.28 254.48 348.28C256.424 348.28 258 346.704 258 344.76C258 342.816 256.424 341.24 254.48 341.24C254.132 341.24 253.796 341.29 253.479 341.384C252.937 338.789 250.636 336.84 247.88 336.84C247.363 336.84 246.863 336.908 246.387 337.036C245.167 334.08 242.256 332 238.86 332C234.854 332 231.524 334.894 230.846 338.705C230.522 338.636 230.185 338.6 229.841 338.6C227.168 338.6 225.001 340.767 225.001 343.44C225.001 346.113 227.168 348.28 229.841 348.28C230.072 348.28 230.301 348.263 230.524 348.232C230.664 348.263 230.81 348.28 230.96 348.28H238.816C238.831 348.28 238.845 348.28 238.86 348.28C238.875 348.28 238.889 348.28 238.904 348.28H253.359C253.525 348.28 253.686 348.259 253.839 348.222Z" fill="#F1F1F1"/>
<path d="M4.16 17.84H45.04V26.32H4.16V17.84ZM3.36 68.24L2.24 59.52C15.12 59.52 32.56 59.36 47.2 57.52L47.76 65.28C32.8 67.92 16 68.24 3.36 68.24ZM10.48 24.48H20.8V61.84H10.48V24.48ZM28.4 24.48H38.72V61.84H28.4V24.48ZM50.56 11.04H61.28V85.12H50.56V11.04ZM58.88 39.12H72V47.84H58.88V39.12ZM129.434 10.96H140.074V85.28H129.434V10.96ZM82.3937 59.36H88.9537C102.074 59.36 112.554 58.88 124.314 56.88L125.354 65.44C113.354 67.6 102.474 68 88.9537 68H82.3937V59.36ZM82.3137 17.28H117.274V45.92H93.1937V62.56H82.3937V37.52H106.394V25.76H82.3137V17.28ZM169.592 70.0455L169.365 73.2273C169.175 75.9545 168.721 78.5682 168.001 81.0682C167.3 83.5682 166.552 85.7841 165.757 87.7159C164.98 89.6477 164.365 91.1439 163.91 92.2045H154.251C154.554 91.1439 154.98 89.6098 155.53 87.6023C156.098 85.6136 156.609 83.3598 157.064 80.8409C157.537 78.3409 157.774 75.803 157.774 73.2273V70.0455H169.592Z" fill="url(#paint0_linear_2287_6586)"/>
<path d="M8.16 111.34H11.24V113.48H8.16V111.34ZM8.16 117.06H11.24V119.22H8.16V117.06ZM14.18 107.26H16.72V125.78H14.18V107.26ZM10.48 107.54H12.96V124.94H10.48V107.54ZM4.96 108.56C7.42 108.56 9 111.1 9 115.28C9 119.48 7.42 122.02 4.96 122.02C2.52 122.02 0.96 119.48 0.96 115.28C0.96 111.1 2.52 108.56 4.96 108.56ZM4.96 111.06C3.94 111.06 3.34 112.46 3.34 115.28C3.34 118.12 3.94 119.5 4.96 119.5C6 119.5 6.6 118.12 6.6 115.28C6.6 112.46 6 111.06 4.96 111.06ZM26.6184 107.36H28.8584V107.7C28.8584 110.8 26.0784 113.24 21.2984 113.76L20.4184 111.76C24.5984 111.34 26.6184 109.5 26.6184 107.7V107.36ZM27.0784 107.36H29.3384V107.7C29.3384 109.5 31.3584 111.34 35.5184 111.76L34.6384 113.76C29.8584 113.24 27.0784 110.8 27.0784 107.7V107.36ZM26.6184 116.14H29.2784V118.72H26.6184V116.14ZM19.5984 114.52H36.3384V116.6H19.5984V114.52ZM21.5184 117.8H34.3184V122.6H24.1584V124.2H21.5384V120.76H31.6984V119.78H21.5184V117.8ZM21.5384 123.66H34.7984V125.66H21.5384V123.66ZM39.1769 109.1H47.1569V111.2H39.1769V109.1ZM41.5569 114.4H44.1769V120.68H41.5569V114.4ZM46.0969 109.1H48.7169V110.6C48.7169 112.4 48.7169 114.64 48.2169 117.72L45.6169 117.48C46.0969 114.52 46.0969 112.38 46.0969 110.6V109.1ZM50.2969 107.26H52.9569V125.78H50.2969V107.26ZM52.1769 114.7H55.4369V116.9H52.1769V114.7ZM38.4769 122.04L38.2369 119.9C41.4969 119.9 45.8169 119.84 49.4569 119.38L49.5969 121.32C45.8569 121.96 41.6969 122.04 38.4769 122.04ZM74.4962 107.26H77.1362V118.06H74.4962V107.26ZM76.3962 111.5H79.5962V113.7H76.3962V111.5ZM71.0562 118.3C74.8562 118.3 77.3562 119.76 77.3562 122.06C77.3562 124.38 74.8562 125.8 71.0562 125.8C67.2562 125.8 64.7562 124.38 64.7562 122.06C64.7562 119.76 67.2562 118.3 71.0562 118.3ZM71.0562 120.42C68.7362 120.42 67.3962 120.96 67.3962 122.06C67.3962 123.16 68.7362 123.72 71.0562 123.72C73.3762 123.72 74.7162 123.16 74.7162 122.06C74.7162 120.96 73.3762 120.42 71.0562 120.42ZM63.2962 108.3H65.9562V115.9H63.2962V108.3ZM63.2962 114.78H64.8562C67.3762 114.78 70.1162 114.62 73.0362 114.06L73.3362 116.18C70.3162 116.8 67.4762 116.96 64.8562 116.96H63.2962V114.78ZM81.8947 108.78H90.7147V117.72H81.8947V108.78ZM88.0947 110.88H84.5147V115.62H88.0947V110.88ZM93.2747 107.26H95.9347V120.76H93.2747V107.26ZM95.1747 112.6H98.3947V114.78H95.1747V112.6ZM83.9947 123.34H96.5947V125.46H83.9947V123.34ZM83.9947 119.44H86.6547V124.4H83.9947V119.44ZM112.853 107.24H115.533V125.82H112.853V107.24ZM105.553 108.54C108.353 108.54 110.413 111.1 110.413 115.14C110.413 119.22 108.353 121.78 105.553 121.78C102.753 121.78 100.693 119.22 100.693 115.14C100.693 111.1 102.753 108.54 105.553 108.54ZM105.553 110.96C104.173 110.96 103.233 112.42 103.233 115.14C103.233 117.9 104.173 119.38 105.553 119.38C106.933 119.38 107.853 117.9 107.853 115.14C107.853 112.42 106.933 110.96 105.553 110.96ZM125.032 109.68H140.312V111.82H125.032V109.68ZM124.332 121.7H141.092V123.84H124.332V121.7ZM132.652 112.6C136.492 112.6 138.932 114.02 138.932 116.36C138.932 118.72 136.492 120.12 132.652 120.12C128.812 120.12 126.372 118.72 126.372 116.36C126.372 114.02 128.812 112.6 132.652 112.6ZM132.652 114.72C130.352 114.72 129.072 115.26 129.072 116.36C129.072 117.46 130.352 118.02 132.652 118.02C134.952 118.02 136.232 117.46 136.232 116.36C136.232 115.26 134.952 114.72 132.652 114.72ZM131.352 107.52H133.992V110.98H131.352V107.52ZM143.131 121.52H159.891V123.7H143.131V121.52ZM145.011 108.5H158.011V114.68H147.691V117.78H145.051V112.6H155.371V110.62H145.011V108.5ZM145.051 116.74H158.431V118.86H145.051V116.74ZM163.989 112.26H176.829V114.36H163.989V112.26ZM161.909 116.28H178.689V118.4H161.909V116.28ZM163.989 107.92H166.629V113.3H163.989V107.92ZM163.809 123.26H176.929V125.38H163.809V123.26ZM163.809 119.88H166.469V123.82H163.809V119.88ZM188.029 115.52H201.049V117.64H188.029V115.52ZM186.089 121.52H202.849V123.7H186.089V121.52ZM193.109 116.48H195.769V122.22H193.109V116.48ZM188.029 108.52H200.909V110.66H190.689V116.44H188.029V108.52ZM209.387 108.68H211.547V111.38C211.547 116.14 209.907 120.44 206.227 122.14L204.647 119.94C207.867 118.54 209.387 114.98 209.387 111.38V108.68ZM209.907 108.68H212.067V111.38C212.067 114.8 213.527 118.2 216.687 119.56L215.127 121.7C211.547 120.06 209.907 115.94 209.907 111.38V108.68ZM217.567 107.24H220.247V125.82H217.567V107.24Z" fill="#D0D6DA"/>
<path d="M31.3768 242.376L28.2803 239.28" stroke="#D0D6DA" stroke-linecap="round"/>
<path d="M26.3943 237.395L24.2402 235.241" stroke="#D0D6DA" stroke-linecap="round"/>
<path d="M22.8951 233.895L21.5488 232.548" stroke="#D0D6DA" stroke-linecap="round"/>
<path d="M36.0195 242.377L39.116 239.28" stroke="#D0D6DA" stroke-linecap="round"/>
<path d="M41.001 237.395L43.1551 235.241" stroke="#D0D6DA" stroke-linecap="round"/>
<path d="M44.501 233.895L45.8473 232.548" stroke="#D0D6DA" stroke-linecap="round"/>
<path d="M31.3758 247.019L28.2793 250.115" stroke="#D0D6DA" stroke-linecap="round"/>
<path d="M26.3953 252L24.2412 254.154" stroke="#D0D6DA" stroke-linecap="round"/>
<path d="M22.8942 255.5L21.5479 256.847" stroke="#D0D6DA" stroke-linecap="round"/>
<path d="M36.0186 247.019L39.115 250.115" stroke="#D0D6DA" stroke-linecap="round"/>
<path d="M41 252L43.1541 254.154" stroke="#D0D6DA" stroke-linecap="round"/>
<path d="M44.5 255.5L45.8463 256.846" stroke="#D0D6DA" stroke-linecap="round"/>
<path d="M155 207V200.068M155 195.849V191.027M155 188.014V185" stroke="#D0D6DA" stroke-width="2" stroke-linecap="round"/>
<path d="M154.896 217.52V224.445" stroke="#D0D6DA" stroke-width="2" stroke-linecap="round"/>
<path d="M154.896 228.66L154.896 233.478" stroke="#D0D6DA" stroke-width="2" stroke-linecap="round"/>
<path d="M154.896 236.489L154.896 239.5" stroke="#D0D6DA" stroke-width="2" stroke-linecap="round"/>
<path d="M151.167 208.974L146.27 204.077" stroke="#D0D6DA" stroke-width="2" stroke-linecap="round"/>
<path d="M143.288 201.096L139.882 197.689" stroke="#D0D6DA" stroke-width="2" stroke-linecap="round"/>
<path d="M137.753 195.56L135.624 193.431" stroke="#D0D6DA" stroke-width="2" stroke-linecap="round"/>
<path d="M150.981 212.702L144.056 212.702" stroke="#D0D6DA" stroke-width="2" stroke-linecap="round"/>
<path d="M139.84 212.702L135.022 212.702" stroke="#D0D6DA" stroke-width="2" stroke-linecap="round"/>
<path d="M132.011 212.702L129 212.702" stroke="#D0D6DA" stroke-width="2" stroke-linecap="round"/>
<path d="M158.509 208.974L163.406 204.077" stroke="#D0D6DA" stroke-width="2" stroke-linecap="round"/>
<path d="M166.387 201.096L169.793 197.689" stroke="#D0D6DA" stroke-width="2" stroke-linecap="round"/>
<path d="M171.922 195.56L174.051 193.431" stroke="#D0D6DA" stroke-width="2" stroke-linecap="round"/>
<path d="M151.167 216.315L146.27 221.212" stroke="#D0D6DA" stroke-width="2" stroke-linecap="round"/>
<path d="M143.289 224.193L139.883 227.599" stroke="#D0D6DA" stroke-width="2" stroke-linecap="round"/>
<path d="M137.753 229.729L135.624 231.858" stroke="#D0D6DA" stroke-width="2" stroke-linecap="round"/>
<path d="M158.509 216.315L163.406 221.212" stroke="#D0D6DA" stroke-width="2" stroke-linecap="round"/>
<path d="M166.387 224.193L169.793 227.599" stroke="#D0D6DA" stroke-width="2" stroke-linecap="round"/>
<path d="M171.922 229.729L174.051 231.858" stroke="#D0D6DA" stroke-width="2" stroke-linecap="round"/>
<path d="M158.695 212.702L165.621 212.702" stroke="#D0D6DA" stroke-width="2" stroke-linecap="round"/>
<path d="M169.836 212.702L174.654 212.702" stroke="#D0D6DA" stroke-width="2" stroke-linecap="round"/>
<path d="M177.664 212.702L180.675 212.702" stroke="#D0D6DA" stroke-width="2" stroke-linecap="round"/>
<rect x="28" y="380" width="233" height="12" rx="6" fill="#F1F1F1" stroke="white" stroke-width="6"/>
<path fill-rule="evenodd" clip-rule="evenodd" d="M63.9998 231C63.9998 229.895 64.8952 229 65.9998 229C67.1044 229 67.9998 229.895 67.9998 231V235C67.9998 236.105 69.0852 236.99 69.6829 237.919C69.8834 238.231 69.9998 238.602 69.9998 239V244C69.9998 244.23 69.9609 244.451 69.8894 244.657C69.4715 245.859 68.2506 247.173 68.5166 248.418L76.8875 287.582C77.1536 288.827 76.2046 290 74.9317 290H57.0679C55.795 290 54.846 288.827 55.112 287.582L63.483 248.418C63.749 247.173 62.528 245.859 62.1101 244.657C62.0386 244.451 61.9998 244.23 61.9998 244V239C61.9998 238.602 62.1161 238.231 62.3167 237.919C62.9144 236.99 63.9998 236.105 63.9998 235V231ZM49.9998 306C50.6049 306 51.0561 306.558 50.9296 307.15L46.5624 327.582C46.2964 328.827 47.2454 330 48.5182 330H56.6397C57.6818 330 58.5493 329.2 58.6332 328.161L60.2754 307.839C60.3594 306.8 61.2268 306 62.2689 306H69.7306C70.7727 306 71.6402 306.8 71.7241 307.839L73.3663 328.161C73.4503 329.2 74.3177 330 75.3598 330H83.4813C84.7542 330 85.7032 328.827 85.4371 327.582L81.0699 307.15C80.9434 306.558 81.3946 306 81.9998 306C83.1044 306 83.9998 305.105 83.9998 304V298C83.9998 296.895 83.1044 296 81.9998 296H49.9998C48.8952 296 47.9998 296.895 47.9998 298V304C47.9998 305.105 48.8952 306 49.9998 306ZM93.5271 377C94.8 377 95.749 375.827 95.483 374.582L89.7137 347.59C89.5387 346.772 90.1628 346 90.9998 346C92.1044 346 92.9998 345.105 92.9998 344V338C92.9998 336.895 92.1044 336 90.9998 336H40.9998C39.8952 336 38.9998 336.895 38.9998 338V344C38.9998 345.105 39.8952 346 40.9998 346C41.8368 346 42.4608 346.772 42.2859 347.59L36.5166 374.582C36.2506 375.827 37.1996 377 38.4724 377H46.9714C48.1989 377 49.1317 375.903 49.0533 374.678C49.0178 374.125 48.9998 373.565 48.9998 373C48.9998 361.402 56.6109 352 65.9998 352C75.3886 352 82.9998 361.402 82.9998 373C82.9998 373.565 82.9817 374.125 82.9463 374.678C82.8679 375.903 83.8007 377 85.0282 377H93.5271Z" fill="#BBDEFF"/>
<rect x="133" y="344" width="15" height="27" rx="2" fill="#BBDEFF"/>
<rect x="129" y="373" width="19" height="4" rx="1" fill="#BBDEFF"/>
<rect x="132" y="338" width="17" height="4" rx="1" fill="#BBDEFF"/>
<rect x="132" y="312" width="63" height="4" rx="1" fill="#BBDEFF"/>
<rect x="132" y="302" width="63" height="4" rx="1" fill="#BBDEFF"/>
<rect x="134" y="308" width="59" height="2" rx="1" fill="#BBDEFF"/>
<rect x="178" y="338" width="17" height="4" rx="1" fill="#BBDEFF"/>
<rect x="179" y="373" width="19" height="4" rx="1" fill="#BBDEFF"/>
<rect x="179" y="344" width="15" height="27" rx="2" fill="#BBDEFF"/>
<path fill-rule="evenodd" clip-rule="evenodd" d="M194 320C194 318.895 193.105 318 192 318H135C133.895 318 133 318.895 133 320V334C133 335.105 133.895 336 135 336H146.499C147.48 336 148.302 335.283 148.565 334.338C150.384 327.799 156.381 323 163.5 323C170.619 323 176.616 327.799 178.435 334.338C178.698 335.283 179.52 336 180.501 336H192C193.105 336 194 335.105 194 334V320Z" fill="#BBDEFF"/>
<rect x="136" y="348" width="9" height="19" rx="2" fill="white"/>
<rect x="182" y="348" width="9" height="19" rx="2" fill="white"/>
<rect x="138" y="350" width="5" height="15" rx="1" fill="#BBDEFF"/>
<rect x="184" y="350" width="5" height="15" rx="1" fill="#BBDEFF"/>
<rect x="136" y="321" width="9" height="12" rx="2" fill="white"/>
<rect x="182" y="321" width="9" height="12" rx="2" fill="white"/>
<rect x="138" y="323" width="5" height="8" rx="1" fill="#BBDEFF"/>
<rect x="184" y="323" width="5" height="8" rx="1" fill="#BBDEFF"/>
<rect x="211" y="373" width="12" height="4" rx="1" fill="#D0D6DA"/>
<rect x="212" y="368" width="10" height="4" rx="1" fill="#D0D6DA"/>
<rect x="215" y="329" width="4" height="38" rx="1" fill="#D0D6DA"/>
<rect x="215" y="326" width="4" height="2" rx="1" fill="#D0D6DA"/>
<rect x="215" y="305" width="4" height="2" rx="1" fill="#D0D6DA"/>
<rect x="212" y="308" width="10" height="2" rx="1" fill="#D0D6DA"/>
<rect x="212" y="311" width="10" height="14" rx="2" fill="#D0D6DA"/>
<circle cx="217" cy="318" r="3" fill="white"/>
<rect x="105" y="373" width="12" height="4" rx="1" fill="#D0D6DA"/>
<rect x="106" y="368" width="10" height="4" rx="1" fill="#D0D6DA"/>
<rect x="109" y="329" width="4" height="38" rx="1" fill="#D0D6DA"/>
<rect x="109" y="326" width="4" height="2" rx="1" fill="#D0D6DA"/>
<rect x="109" y="305" width="4" height="2" rx="1" fill="#D0D6DA"/>
<rect x="106" y="308" width="10" height="2" rx="1" fill="#D0D6DA"/>
<rect x="106" y="311" width="10" height="14" rx="2" fill="#D0D6DA"/>
<circle cx="111" cy="318" r="3" fill="white"/>
<path fill-rule="evenodd" clip-rule="evenodd" d="M201 257H197V226.73C198.283 226.353 199.622 226.105 201 226V257ZM208 257H204V226C205.378 226.105 206.717 226.353 208 226.73V257ZM215 257H211V227.888C212.441 228.587 213.784 229.459 215 230.476V257ZM218.208 257H218V233.609C220.509 236.891 222 240.993 222 245.443C222 249.769 220.591 253.766 218.208 257ZM187 257.277V257V233.609C184.491 236.891 183 240.993 183 245.443C183 249.893 184.491 253.995 187 257.277ZM194 257H190V230.476C191.216 229.459 192.559 228.587 194 227.888V257Z" fill="#BBDEFF"/>
<path d="M218 258H187L188 261H217L218 258Z" fill="#BBDEFF"/>
<path d="M216 264H189L190 267H215L216 264Z" fill="#BBDEFF"/>
<path d="M190 269C190 268.448 190.448 268 191 268H192C192.552 268 193 268.448 193 269V270C193 270.552 192.552 271 192 271H191C190.448 271 190 270.552 190 270V269Z" fill="#BBDEFF"/>
<path d="M212 269C212 268.448 212.448 268 213 268H214C214.552 268 215 268.448 215 269V270C215 270.552 214.552 271 214 271H213C212.448 271 212 270.552 212 270V269Z" fill="#BBDEFF"/>
<path d="M201 269C201 268.448 201.448 268 202 268H203C203.552 268 204 268.448 204 269V270C204 270.552 203.552 271 203 271H202C201.448 271 201 270.552 201 270V269Z" fill="#BBDEFF"/>
<path d="M195.5 269C195.5 268.448 195.948 268 196.5 268H197.5C198.052 268 198.5 268.448 198.5 269V270C198.5 270.552 198.052 271 197.5 271H196.5C195.948 271 195.5 270.552 195.5 270V269Z" fill="#BBDEFF"/>
<path d="M206.5 269C206.5 268.448 206.948 268 207.5 268H208.5C209.052 268 209.5 268.448 209.5 269V270C209.5 270.552 209.052 271 208.5 271H207.5C206.948 271 206.5 270.552 206.5 270V269Z" fill="#BBDEFF"/>
<path d="M190 277C190 275.895 190.895 275 192 275H213C214.105 275 215 275.895 215 277V284C215 285.105 214.105 286 213 286H192C190.895 286 190 285.105 190 284V277Z" fill="#BBDEFF"/>
<path fill-rule="evenodd" clip-rule="evenodd" d="M96.1 223.117H93.6333V204.45C94.4247 204.218 95.25 204.065 96.1 204V223.117ZM100.417 223.117H97.95V204C98.8 204.065 99.6253 204.218 100.417 204.45V223.117ZM104.733 223.117H102.267V205.164C103.155 205.596 103.983 206.133 104.733 206.76V223.117ZM106.712 223.117H106.583V208.692C108.131 210.716 109.05 213.246 109.05 215.99C109.05 218.658 108.181 221.122 106.712 223.117ZM87.4667 223.117H87.4665V223.287C85.9192 221.264 85 218.734 85 215.99C85 213.246 85.9193 210.716 87.4667 208.692V223.117ZM91.7833 223.117H89.3167V206.76C90.0668 206.133 90.8945 205.596 91.7833 205.164V223.117Z" fill="#D0D6DA"/>
<path d="M106.583 223.733H87.4668L88.0835 225.583H105.967L106.583 223.733Z" fill="#D0D6DA"/>
<path d="M105.35 227.433H88.7001L89.3168 229.283H104.733L105.35 227.433Z" fill="#D0D6DA"/>
<path d="M89.3164 230.517C89.3164 230.176 89.5925 229.9 89.9331 229.9H90.5497C90.8903 229.9 91.1664 230.176 91.1664 230.517V231.133C91.1664 231.474 90.8903 231.75 90.5497 231.75H89.9331C89.5925 231.75 89.3164 231.474 89.3164 231.133V230.517Z" fill="#D0D6DA"/>
<path d="M102.883 230.517C102.883 230.176 103.159 229.9 103.5 229.9H104.116C104.457 229.9 104.733 230.176 104.733 230.517V231.133C104.733 231.474 104.457 231.75 104.116 231.75H103.5C103.159 231.75 102.883 231.474 102.883 231.133V230.517Z" fill="#D0D6DA"/>
<path d="M96.0997 230.517C96.0997 230.176 96.3758 229.9 96.7164 229.9H97.3331C97.6736 229.9 97.9497 230.176 97.9497 230.517V231.133C97.9497 231.474 97.6736 231.75 97.3331 231.75H96.7164C96.3758 231.75 96.0997 231.474 96.0997 231.133V230.517Z" fill="#D0D6DA"/>
<path d="M92.7081 230.517C92.7081 230.176 92.9842 229.9 93.3247 229.9H93.9414C94.282 229.9 94.5581 230.176 94.5581 230.517V231.133C94.5581 231.474 94.282 231.75 93.9414 231.75H93.3247C92.9842 231.75 92.7081 231.474 92.7081 231.133V230.517Z" fill="#D0D6DA"/>
<path d="M99.4914 230.517C99.4914 230.176 99.7675 229.9 100.108 229.9H100.725C101.065 229.9 101.341 230.176 101.341 230.517V231.133C101.341 231.474 101.065 231.75 100.725 231.75H100.108C99.7675 231.75 99.4914 231.474 99.4914 231.133V230.517Z" fill="#D0D6DA"/>
<path d="M89.3164 235.45C89.3164 234.769 89.8686 234.217 90.5497 234.217H103.5C104.181 234.217 104.733 234.769 104.733 235.45V239.767C104.733 240.448 104.181 241 103.5 241H90.5497C89.8686 241 89.3164 240.448 89.3164 239.767V235.45Z" fill="#D0D6DA"/>
<path fill-rule="evenodd" clip-rule="evenodd" d="M26.4 288.467H24.5333V274.34C25.1322 274.165 25.7568 274.049 26.4 274V288.467ZM29.6667 288.467H27.8V274C28.4432 274.049 29.0678 274.165 29.6667 274.34V288.467ZM32.9333 288.467H31.0667V274.881C31.7393 275.207 32.3657 275.614 32.9333 276.089V288.467ZM34.4304 288.467H34.3333V277.551C35.5043 279.082 36.2 280.997 36.2 283.073C36.2 285.092 35.5427 286.957 34.4304 288.467ZM23.1333 288.467H21.2667V276.089C21.8343 275.614 22.4607 275.207 23.1333 274.881V288.467ZM18 283.073C18 280.997 18.6957 279.082 19.8667 277.551V288.596C18.6957 287.064 18 285.15 18 283.073Z" fill="#F1F1F1"/>
<path d="M34.3339 288.934H19.8672L20.3339 290.334H33.8672L34.3339 288.934Z" fill="#F1F1F1"/>
<path d="M33.4005 291.734H20.8005L21.2672 293.134H32.9339L33.4005 291.734Z" fill="#F1F1F1"/>
<path d="M21.2666 294.067C21.2666 293.809 21.4755 293.6 21.7333 293.6H22.1999C22.4577 293.6 22.6666 293.809 22.6666 294.067V294.533C22.6666 294.791 22.4577 295 22.1999 295H21.7333C21.4755 295 21.2666 294.791 21.2666 294.533V294.067Z" fill="#F1F1F1"/>
<path d="M31.5333 294.067C31.5333 293.809 31.7422 293.6 31.9999 293.6H32.4666C32.7243 293.6 32.9333 293.809 32.9333 294.067V294.533C32.9333 294.791 32.7243 295 32.4666 295H31.9999C31.7422 295 31.5333 294.791 31.5333 294.533V294.067Z" fill="#F1F1F1"/>
<path d="M26.3999 294.067C26.3999 293.809 26.6089 293.6 26.8666 293.6H27.3333C27.591 293.6 27.7999 293.809 27.7999 294.067V294.533C27.7999 294.791 27.591 295 27.3333 295H26.8666C26.6089 295 26.3999 294.791 26.3999 294.533V294.067Z" fill="#F1F1F1"/>
<path d="M23.8333 294.067C23.8333 293.809 24.0422 293.6 24.2999 293.6H24.7666C25.0243 293.6 25.2333 293.809 25.2333 294.067V294.533C25.2333 294.791 25.0243 295 24.7666 295H24.2999C24.0422 295 23.8333 294.791 23.8333 294.533V294.067Z" fill="#F1F1F1"/>
<path d="M28.9666 294.067C28.9666 293.809 29.1755 293.6 29.4333 293.6H29.8999C30.1577 293.6 30.3666 293.809 30.3666 294.067V294.533C30.3666 294.791 30.1577 295 29.8999 295H29.4333C29.1755 295 28.9666 294.791 28.9666 294.533V294.067Z" fill="#F1F1F1"/>
<path d="M21.2666 297.8C21.2666 297.285 21.6845 296.867 22.1999 296.867H31.9999C32.5154 296.867 32.9333 297.285 32.9333 297.8V301.067C32.9333 301.582 32.5154 302 31.9999 302H22.1999C21.6845 302 21.2666 301.582 21.2666 301.067V297.8Z" fill="#F1F1F1"/>
<rect x="46" y="339" width="4" height="4" rx="2" fill="white"/>
<rect x="82" y="339" width="4" height="4" rx="2" fill="white"/>
<rect x="73" y="339" width="4" height="4" rx="2" fill="white"/>
<rect x="73" y="299" width="4" height="4" rx="2" fill="white"/>
<rect x="55" y="339" width="4" height="4" rx="2" fill="white"/>
<rect x="55" y="299" width="4" height="4" rx="2" fill="white"/>
<rect x="64" y="339" width="4" height="4" rx="2" fill="white"/>
<rect x="64" y="299" width="4" height="4" rx="2" fill="white"/>
<defs>
<linearGradient id="paint0_linear_2287_6586" x1="0" y1="0" x2="82.0099" y2="148.801" gradientUnits="userSpaceOnUse">
<stop stop-color="#D6EBFF"/>
<stop offset="1" stop-color="#C2C7FF"/>
</linearGradient>
</defs>
</svg>
