<svg width="46" height="46" viewBox="0 0 46 46" fill="none" xmlns="http://www.w3.org/2000/svg">
<circle cx="23" cy="23" r="22.5" fill="#C2C7FF" stroke="#D9D9D9"/>
<path fill-rule="evenodd" clip-rule="evenodd" d="M41 23C41 13.0589 32.9411 5 23 5C13.0589 5 5 13.0589 5 23C5 32.9411 13.0589 41 23 41C32.9411 41 41 32.9411 41 23ZM39 23C39 14.1634 31.8366 7 23 7C14.1634 7 7 14.1634 7 23C7 31.8366 14.1634 39 23 39C31.8366 39 39 31.8366 39 23Z" fill="white"/>
<path d="M18 12.1253C15.8689 12.6014 14.2857 14.3794 14.2857 16.5C14.2857 18.6206 15.8689 20.3986 18 20.8747C17.6335 20.9566 17.2508 21 16.8571 21C14.1746 21 12 18.9853 12 16.5C12 14.0147 14.1746 12 16.8571 12C17.2508 12 17.6335 12.0434 18 12.1253Z" fill="white"/>
<path d="M23.9049 11.2927C23.9348 11.2006 24.0652 11.2006 24.0951 11.2927L24.3143 11.9674C24.3277 12.0086 24.3661 12.0365 24.4094 12.0365H25.1188C25.2157 12.0365 25.256 12.1604 25.1776 12.2174L24.6037 12.6343C24.5686 12.6598 24.554 12.7049 24.5674 12.7461L24.7866 13.4208C24.8165 13.513 24.7111 13.5896 24.6327 13.5326L24.0588 13.1157C24.0237 13.0902 23.9763 13.0902 23.9412 13.1157L23.3673 13.5326C23.2889 13.5896 23.1835 13.513 23.2134 13.4208L23.4326 12.7461C23.446 12.7049 23.4314 12.6598 23.3963 12.6343L22.8224 12.2174C22.744 12.1604 22.7843 12.0365 22.8812 12.0365H23.5906C23.6339 12.0365 23.6723 12.0086 23.6857 11.9674L23.9049 11.2927Z" fill="white"/>
<path d="M20.4049 14.2927C20.4348 14.2006 20.5652 14.2006 20.5951 14.2927L20.8143 14.9674C20.8277 15.0086 20.8661 15.0365 20.9094 15.0365H21.6188C21.7157 15.0365 21.756 15.1604 21.6776 15.2174L21.1037 15.6343C21.0686 15.6598 21.054 15.7049 21.0674 15.7461L21.2866 16.4208C21.3165 16.513 21.2111 16.5896 21.1327 16.5326L20.5588 16.1157C20.5237 16.0902 20.4763 16.0902 20.4412 16.1157L19.8673 16.5326C19.7889 16.5896 19.6835 16.513 19.7134 16.4208L19.9326 15.7461C19.946 15.7049 19.9314 15.6598 19.8963 15.6343L19.3224 15.2174C19.244 15.1604 19.2843 15.0365 19.3812 15.0365H20.0906C20.1339 15.0365 20.1723 15.0086 20.1857 14.9674L20.4049 14.2927Z" fill="white"/>
<path d="M21.9049 18.2927C21.9348 18.2006 22.0652 18.2006 22.0951 18.2927L22.3143 18.9674C22.3277 19.0086 22.3661 19.0365 22.4094 19.0365H23.1188C23.2157 19.0365 23.256 19.1604 23.1776 19.2174L22.6037 19.6343C22.5686 19.6598 22.554 19.7049 22.5674 19.7461L22.7866 20.4208C22.8165 20.513 22.7111 20.5896 22.6327 20.5326L22.0588 20.1157C22.0237 20.0902 21.9763 20.0902 21.9412 20.1157L21.3673 20.5326C21.2889 20.5896 21.1835 20.513 21.2134 20.4208L21.4326 19.7461C21.446 19.7049 21.4314 19.6598 21.3963 19.6343L20.8224 19.2174C20.744 19.1604 20.7843 19.0365 20.8812 19.0365H21.5906C21.6339 19.0365 21.6723 19.0086 21.6857 18.9674L21.9049 18.2927Z" fill="white"/>
<path d="M27.4049 14.2927C27.4348 14.2006 27.5652 14.2006 27.5951 14.2927L27.8143 14.9674C27.8277 15.0086 27.8661 15.0365 27.9094 15.0365H28.6188C28.7157 15.0365 28.756 15.1604 28.6776 15.2174L28.1037 15.6343C28.0686 15.6598 28.054 15.7049 28.0674 15.7461L28.2866 16.4208C28.3165 16.513 28.2111 16.5896 28.1327 16.5326L27.5588 16.1157C27.5237 16.0902 27.4763 16.0902 27.4412 16.1157L26.8673 16.5326C26.7889 16.5896 26.6835 16.513 26.7134 16.4208L26.9326 15.7461C26.946 15.7049 26.9314 15.6598 26.8963 15.6343L26.3224 15.2174C26.244 15.1604 26.2843 15.0365 26.3812 15.0365H27.0906C27.1339 15.0365 27.1723 15.0086 27.1857 14.9674L27.4049 14.2927Z" fill="white"/>
<path d="M25.9049 18.2927C25.9348 18.2006 26.0652 18.2006 26.0951 18.2927L26.3143 18.9674C26.3277 19.0086 26.3661 19.0365 26.4094 19.0365H27.1188C27.2157 19.0365 27.256 19.1604 27.1776 19.2174L26.6037 19.6343C26.5686 19.6598 26.554 19.7049 26.5674 19.7461L26.7866 20.4208C26.8165 20.513 26.7111 20.5896 26.6327 20.5326L26.0588 20.1157C26.0237 20.0902 25.9763 20.0902 25.9412 20.1157L25.3673 20.5326C25.2889 20.5896 25.1835 20.513 25.2134 20.4208L25.4326 19.7461C25.446 19.7049 25.4314 19.6598 25.3963 19.6343L24.8224 19.2174C24.744 19.1604 24.7843 19.0365 24.8812 19.0365H25.5906C25.6339 19.0365 25.6723 19.0086 25.6857 18.9674L25.9049 18.2927Z" fill="white"/>
<path fill-rule="evenodd" clip-rule="evenodd" d="M23 39C31.8365 39 39 31.8365 39 23H7C7 31.8365 14.1635 39 23 39Z" fill="white"/>
</svg>
