<svg width="264" height="395" viewBox="0 0 264 395" fill="none" xmlns="http://www.w3.org/2000/svg">
<circle cx="190" cy="298" r="35" fill="#F1F1F1"/>
<mask id="path-2-outside-1_2287_6585" maskUnits="userSpaceOnUse" x="19.3662" y="269" width="221" height="114" fill="black">
<rect fill="white" x="19.3662" y="269" width="221" height="114"/>
<path fill-rule="evenodd" clip-rule="evenodd" d="M88.8304 276.5C86.9059 273.167 82.0946 273.167 80.1701 276.5L26.0435 370.25C24.119 373.583 26.5247 377.75 30.3737 377.75H138.627C139.188 377.75 139.718 377.662 140.209 377.5H155.112C155.603 377.662 156.133 377.75 156.694 377.75H230.306C234.155 377.75 236.561 373.583 234.636 370.25L197.83 306.5C195.906 303.167 191.094 303.167 189.17 306.5L163.075 351.698L143.33 317.5C141.406 314.167 136.595 314.167 134.67 317.5L123.586 336.698L88.8304 276.5Z"/>
</mask>
<path fill-rule="evenodd" clip-rule="evenodd" d="M88.8304 276.5C86.9059 273.167 82.0946 273.167 80.1701 276.5L26.0435 370.25C24.119 373.583 26.5247 377.75 30.3737 377.75H138.627C139.188 377.75 139.718 377.662 140.209 377.5H155.112C155.603 377.662 156.133 377.75 156.694 377.75H230.306C234.155 377.75 236.561 373.583 234.636 370.25L197.83 306.5C195.906 303.167 191.094 303.167 189.17 306.5L163.075 351.698L143.33 317.5C141.406 314.167 136.595 314.167 134.67 317.5L123.586 336.698L88.8304 276.5Z" fill="#F1F1F1"/>
<path d="M80.1701 276.5L84.5003 279V279L80.1701 276.5ZM88.8304 276.5L93.1605 274V274L88.8304 276.5ZM26.0435 370.25L21.7134 367.75H21.7134L26.0435 370.25ZM140.209 377.5V372.5H139.407L138.645 372.751L140.209 377.5ZM155.112 377.5L156.675 372.751L155.914 372.5H155.112V377.5ZM234.636 370.25L230.306 372.75V372.75L234.636 370.25ZM197.83 306.5L193.5 309L197.83 306.5ZM189.17 306.5L193.5 309V309L189.17 306.5ZM163.075 351.698L158.745 354.198L163.075 361.698L167.405 354.198L163.075 351.698ZM143.33 317.5L139 320L143.33 317.5ZM134.67 317.5L139 320L134.67 317.5ZM123.586 336.698L119.256 339.198L123.586 346.698L127.916 339.198L123.586 336.698ZM84.5003 279C84.5076 278.987 84.5125 278.981 84.5139 278.979C84.5154 278.977 84.5149 278.978 84.512 278.981C84.5093 278.983 84.5055 278.987 84.501 278.99C84.4965 278.993 84.4922 278.996 84.4884 278.998C84.4809 279.002 84.4777 279.003 84.4806 279.002C84.4839 279.001 84.4909 279 84.5003 279C84.5096 279 84.5166 279.001 84.5199 279.002C84.5228 279.003 84.5197 279.002 84.5121 278.998C84.5083 278.996 84.504 278.993 84.4995 278.99C84.495 278.987 84.4913 278.983 84.4885 278.981C84.4857 278.978 84.4851 278.977 84.4866 278.979C84.4881 278.981 84.4929 278.987 84.5003 279L93.1605 274C89.3115 267.333 79.689 267.333 75.84 274L84.5003 279ZM30.3737 372.75L84.5003 279L75.84 274L21.7134 367.75L30.3737 372.75ZM30.3737 372.75C30.359 372.75 30.351 372.749 30.3486 372.749C30.3462 372.748 30.3473 372.748 30.3511 372.749C30.3548 372.75 30.3595 372.752 30.3647 372.754C30.3698 372.757 30.3743 372.759 30.378 372.761C30.3854 372.766 30.3874 372.768 30.3853 372.766C30.3829 372.764 30.3783 372.758 30.3737 372.75C30.369 372.742 30.3666 372.735 30.3657 372.732C30.3648 372.729 30.366 372.732 30.3662 372.741C30.3663 372.745 30.3661 372.75 30.3654 372.756C30.3648 372.761 30.3638 372.766 30.3629 372.77C30.3619 372.774 30.3613 372.775 30.3623 372.772C30.3632 372.77 30.3663 372.763 30.3737 372.75L21.7134 367.75C17.8644 374.417 22.6757 382.75 30.3737 382.75V372.75ZM138.627 372.75H30.3737V382.75H138.627V372.75ZM138.645 372.751C138.651 372.749 138.654 372.748 138.653 372.749C138.652 372.749 138.644 372.75 138.627 372.75V382.75C139.718 382.75 140.776 382.577 141.772 382.249L138.645 372.751ZM155.112 372.5H140.209V382.5H155.112V372.5ZM156.694 372.75C156.677 372.75 156.669 372.749 156.668 372.749C156.667 372.748 156.67 372.749 156.675 372.751L153.549 382.249C154.545 382.577 155.603 382.75 156.694 382.75V372.75ZM230.306 372.75H156.694V382.75H230.306V372.75ZM230.306 372.75C230.313 372.763 230.317 372.77 230.318 372.772C230.318 372.775 230.318 372.774 230.317 372.77C230.316 372.766 230.315 372.761 230.314 372.756C230.314 372.75 230.314 372.745 230.314 372.741C230.314 372.732 230.315 372.729 230.314 372.732C230.313 372.735 230.311 372.742 230.306 372.75C230.301 372.758 230.297 372.764 230.295 372.766C230.292 372.768 230.294 372.766 230.302 372.761C230.305 372.759 230.31 372.757 230.315 372.754C230.32 372.752 230.325 372.75 230.329 372.749C230.333 372.748 230.334 372.748 230.331 372.749C230.329 372.749 230.321 372.75 230.306 372.75V382.75C238.004 382.75 242.815 374.417 238.966 367.75L230.306 372.75ZM193.5 309L230.306 372.75L238.966 367.75L202.16 304L193.5 309ZM193.5 309C193.507 308.987 193.512 308.981 193.514 308.979C193.515 308.977 193.515 308.978 193.512 308.981C193.509 308.983 193.505 308.987 193.501 308.99C193.496 308.993 193.492 308.996 193.488 308.998C193.481 309.002 193.478 309.003 193.48 309.002C193.484 309.001 193.491 309 193.5 309C193.509 309 193.516 309.001 193.52 309.002C193.523 309.003 193.519 309.002 193.512 308.998C193.508 308.996 193.504 308.993 193.499 308.99C193.495 308.987 193.491 308.983 193.488 308.981C193.485 308.978 193.485 308.977 193.486 308.979C193.488 308.981 193.493 308.987 193.5 309L202.16 304C198.311 297.333 188.689 297.333 184.84 304L193.5 309ZM167.405 354.198L193.5 309L184.84 304L158.745 349.198L167.405 354.198ZM139 320L158.745 354.198L167.405 349.198L147.661 315L139 320ZM139 320C139.008 319.987 139.012 319.981 139.014 319.979C139.015 319.977 139.015 319.978 139.012 319.981C139.009 319.983 139.006 319.987 139.001 319.99C138.997 319.993 138.992 319.996 138.988 319.998C138.981 320.002 138.978 320.003 138.981 320.002C138.984 320.001 138.991 320 139 320C139.01 320 139.017 320.001 139.02 320.002C139.023 320.003 139.02 320.002 139.012 319.998C139.008 319.996 139.004 319.993 139 319.99C138.995 319.987 138.991 319.983 138.988 319.981C138.986 319.978 138.985 319.977 138.987 319.979C138.988 319.981 138.993 319.987 139 320L147.661 315C143.812 308.333 134.189 308.333 130.34 315L139 320ZM127.916 339.198L139 320L130.34 315L119.256 334.198L127.916 339.198ZM84.5003 279L119.256 339.198L127.916 334.198L93.1605 274L84.5003 279Z" fill="white" mask="url(#path-2-outside-1_2287_6585)"/>
<path d="M11.04 44.08H63.12V52.56H11.04V44.08ZM3.28 68.08H70.32V76.8H3.28V68.08ZM31.36 47.92H42V70.88H31.36V47.92ZM11.04 16.08H62.56V24.64H21.68V47.76H11.04V16.08ZM93.5137 50.8H104.154V71.76H93.5137V50.8ZM111.514 50.8H122.074V71.76H111.514V50.8ZM85.9937 17.2H132.634V25.68H85.9937V17.2ZM78.3937 68.08H145.354V76.64H78.3937V68.08ZM128.394 17.2H138.874V23.68C138.874 32.08 138.874 43.28 137.034 59.04L126.474 58.08C128.394 43.04 128.394 31.92 128.394 23.68V17.2ZM130.314 34.88V42.96L85.1137 45.36L83.6737 36.32L130.314 34.88ZM169.592 70.0455L169.365 73.2273C169.175 75.9545 168.721 78.5682 168.001 81.0682C167.3 83.5682 166.552 85.7841 165.757 87.7159C164.98 89.6477 164.365 91.1439 163.91 92.2045H154.251C154.554 91.1439 154.98 89.6098 155.53 87.6023C156.098 85.6136 156.609 83.3598 157.064 80.8409C157.537 78.3409 157.774 75.803 157.774 73.2273V70.0455H169.592Z" fill="url(#paint0_linear_2287_6585)"/>
<path d="M10.72 112.04H15.04V114.18H10.72V112.04ZM13.64 107.28H16.3V120.78H13.64V107.28ZM4.08 123.34H16.72V125.46H4.08V123.34ZM4.08 119.64H6.74V124.6H4.08V119.64ZM5.08 109.7H7.24V110.86C7.24 114.34 5.6 117.56 2.04 118.74L0.7 116.62C3.76 115.62 5.08 113.2 5.08 110.86V109.7ZM5.64 109.7H7.78V110.86C7.78 113.02 9.04 115.32 11.96 116.3L10.66 118.38C7.22 117.24 5.64 114.16 5.64 110.86V109.7ZM1.42 108.52H11.38V110.62H1.42V108.52ZM19.5784 116.8H36.3384V118.88H19.5784V116.8ZM26.6184 114.82H29.2784V117.56H26.6184V114.82ZM21.6584 113.66H34.5584V115.68H21.6584V113.66ZM21.6584 107.72H34.4184V109.74H24.2984V114.8H21.6584V107.72ZM23.5584 110.72H33.9984V112.66H23.5584V110.72ZM27.9384 119.7C31.9984 119.7 34.3584 120.78 34.3584 122.74C34.3584 124.72 31.9984 125.78 27.9384 125.78C23.8584 125.78 21.4984 124.72 21.4984 122.74C21.4984 120.78 23.8584 119.7 27.9384 119.7ZM27.9384 121.66C25.3584 121.66 24.1784 121.98 24.1784 122.74C24.1784 123.52 25.3584 123.84 27.9384 123.84C30.4984 123.84 31.6784 123.52 31.6784 122.74C31.6784 121.98 30.4984 121.66 27.9384 121.66ZM39.1769 109.1H47.1569V111.2H39.1769V109.1ZM41.5569 114.4H44.1769V120.68H41.5569V114.4ZM46.0969 109.1H48.7169V110.6C48.7169 112.4 48.7169 114.64 48.2169 117.72L45.6169 117.48C46.0969 114.52 46.0969 112.38 46.0969 110.6V109.1ZM50.2969 107.26H52.9569V125.78H50.2969V107.26ZM52.1769 114.7H55.4369V116.9H52.1769V114.7ZM38.4769 122.04L38.2369 119.9C41.4969 119.9 45.8169 119.84 49.4569 119.38L49.5969 121.32C45.8569 121.96 41.6969 122.04 38.4769 122.04ZM66.7162 110.52H68.8562V111.2C68.8562 114.36 67.1962 117.16 63.6562 118.16L62.4162 116.1C65.4162 115.28 66.7162 113.24 66.7162 111.2V110.52ZM67.2162 110.52H69.3762V111.2C69.3762 113.1 70.6962 115 73.6762 115.78L72.4762 117.86C68.9162 116.92 67.2162 114.24 67.2162 111.2V110.52ZM63.0762 109.1H73.0162V111.18H63.0762V109.1ZM66.7162 107.2H69.3762V110H66.7162V107.2ZM72.5762 112.1H76.0962V114.24H72.5762V112.1ZM75.3962 107.26H78.0562V118.1H75.3962V107.26ZM65.7162 118.92H78.0562V125.58H65.7162V118.92ZM75.4562 121H68.3362V123.48H75.4562V121ZM93.2747 107.26H95.9347V120.64H93.2747V107.26ZM95.1747 112.3H98.3947V114.48H95.1747V112.3ZM82.0547 115.48H83.5947C87.6147 115.48 89.6147 115.4 91.8347 114.92L92.0947 117.02C89.8347 117.52 87.7147 117.62 83.5947 117.62H82.0547V115.48ZM82.0547 108.72H90.3347V110.86H84.6947V116.62H82.0547V108.72ZM83.9947 123.34H96.5947V125.46H83.9947V123.34ZM83.9947 119.24H86.6547V124.42H83.9947V119.24ZM112.853 107.24H115.533V125.82H112.853V107.24ZM105.553 108.54C108.353 108.54 110.413 111.1 110.413 115.14C110.413 119.22 108.353 121.78 105.553 121.78C102.753 121.78 100.693 119.22 100.693 115.14C100.693 111.1 102.753 108.54 105.553 108.54ZM105.553 110.96C104.173 110.96 103.233 112.42 103.233 115.14C103.233 117.9 104.173 119.38 105.553 119.38C106.933 119.38 107.853 117.9 107.853 115.14C107.853 112.42 106.933 110.96 105.553 110.96ZM124.852 108.78H133.672V117.72H124.852V108.78ZM131.052 110.88H127.472V115.62H131.052V110.88ZM136.232 107.26H138.892V120.76H136.232V107.26ZM138.132 112.6H141.352V114.78H138.132V112.6ZM126.952 123.34H139.552V125.46H126.952V123.34ZM126.952 119.44H129.612V124.4H126.952V119.44ZM156.931 114.26H160.191V116.44H156.931V114.26ZM154.951 107.24H157.631V125.76H154.951V107.24ZM143.671 109.02H146.331V120.52H143.671V109.02ZM143.671 119.04H145.271C147.911 119.04 150.771 118.86 153.751 118.26L154.031 120.44C150.971 121.08 147.991 121.24 145.271 121.24H143.671V119.04ZM163.989 112.26H176.829V114.36H163.989V112.26ZM161.909 116.28H178.689V118.4H161.909V116.28ZM163.989 107.92H166.629V113.3H163.989V107.92ZM163.809 123.26H176.929V125.38H163.809V123.26ZM163.809 119.88H166.469V123.82H163.809V119.88ZM188.029 115.52H201.049V117.64H188.029V115.52ZM186.089 121.52H202.849V123.7H186.089V121.52ZM193.109 116.48H195.769V122.22H193.109V116.48ZM188.029 108.52H200.909V110.66H190.689V116.44H188.029V108.52ZM209.387 108.68H211.547V111.38C211.547 116.14 209.907 120.44 206.227 122.14L204.647 119.94C207.867 118.54 209.387 114.98 209.387 111.38V108.68ZM209.907 108.68H212.067V111.38C212.067 114.8 213.527 118.2 216.687 119.56L215.127 121.7C211.547 120.06 209.907 115.94 209.907 111.38V108.68ZM217.567 107.24H220.247V125.82H217.567V107.24Z" fill="#D0D6DA"/>
<path fill-rule="evenodd" clip-rule="evenodd" d="M78.0612 351C78.0408 351 78.0204 351 78 351C73.5817 351 70 347.418 70 343C70 338.582 73.5817 335 78 335C78.7902 335 79.5536 335.115 80.2745 335.328C81.5066 329.43 86.7358 325 92.9997 325C94.1733 325 95.3106 325.155 96.392 325.447C99.1649 318.728 105.78 314 113.5 314C122.604 314 130.173 320.577 131.713 329.238C132.451 329.082 133.216 329 134 329C140.075 329 145 333.925 145 340C145 346.075 140.075 351 134 351C133.975 351 133.949 351 133.924 351H113.524C113.516 351 113.508 351 113.5 351C113.492 351 113.484 351 113.476 351H78.0612Z" fill="white"/>
<path fill-rule="evenodd" clip-rule="evenodd" d="M154.064 239.725C153.854 239.765 153.636 239.787 153.413 239.787C151.528 239.787 150 238.258 150 236.373C150 234.488 151.528 232.96 153.413 232.96C153.751 232.96 154.076 233.009 154.384 233.1C154.91 230.583 157.141 228.693 159.813 228.693C160.314 228.693 160.799 228.76 161.261 228.884C162.444 226.017 165.266 224 168.56 224C172.444 224 175.673 226.806 176.331 230.502C176.646 230.435 176.972 230.4 177.307 230.4C179.899 230.4 182 232.501 182 235.093C182 237.685 179.899 239.787 177.307 239.787C177.07 239.787 176.838 239.769 176.612 239.736C176.467 239.769 176.315 239.787 176.16 239.787H168.56H159.813H154.56C154.389 239.787 154.223 239.765 154.064 239.725Z" fill="#F1F1F1"/>
<path fill-rule="evenodd" clip-rule="evenodd" d="M113.684 253.782C113.768 253.785 113.853 253.787 113.938 253.787C117.494 253.787 120.378 250.903 120.378 247.346C120.378 243.789 117.494 240.906 113.938 240.906C113.301 240.906 112.687 240.998 112.106 241.17C111.114 236.422 106.905 232.856 101.862 232.856C100.917 232.856 100.001 232.981 99.1307 233.216C96.8984 227.807 91.5727 224 85.3578 224C78.0286 224 71.9359 229.294 70.6954 236.267C70.1017 236.142 69.4861 236.076 68.8551 236.076C63.9643 236.076 59.9996 240.04 59.9996 244.931C59.9996 249.822 63.9643 253.786 68.8551 253.786C68.9437 253.786 69.0319 253.785 69.1199 253.783C69.1609 253.785 69.2023 253.786 69.244 253.786H85.273C85.3013 253.787 85.3296 253.787 85.3578 253.787C85.3861 253.787 85.4144 253.787 85.4427 253.786H101.78C101.807 253.787 101.834 253.787 101.862 253.787C101.89 253.787 101.917 253.787 101.945 253.786H113.547C113.593 253.786 113.639 253.785 113.684 253.782Z" fill="#F1F1F1"/>
<rect x="28" y="380" width="233" height="12" rx="6" fill="#F1F1F1" stroke="white" stroke-width="6"/>
<rect x="102" y="273" width="84" height="10" rx="5" fill="#BBDEFF"/>
<rect x="102" y="294" width="84" height="10" rx="5" fill="#BBDEFF"/>
<rect x="140" y="285" width="7" height="7" rx="2" fill="#BBDEFF"/>
<rect x="129" y="285" width="7" height="7" rx="2" fill="#BBDEFF"/>
<rect x="162" y="285" width="7" height="7" rx="2" fill="#BBDEFF"/>
<rect x="118" y="285" width="7" height="7" rx="2" fill="#BBDEFF"/>
<rect x="151" y="285" width="7" height="7" rx="2" fill="#BBDEFF"/>
<path d="M88 360C88 357.239 90.2386 355 93 355H95C97.7614 355 100 357.239 100 360V375C100 376.105 99.1046 377 98 377H90C88.8954 377 88 376.105 88 375V360Z" fill="#D0D6DA"/>
<path d="M188 360C188 357.239 190.239 355 193 355H195C197.761 355 200 357.239 200 360V375C200 376.105 199.105 377 198 377H190C188.895 377 188 376.105 188 375V360Z" fill="#D0D6DA"/>
<path d="M116 306C113.791 306 112 307.791 112 310V362C112 363.105 112.895 364 114 364H118C119.105 364 120 363.105 120 362V310C120 307.791 118.209 306 116 306Z" fill="#BBDEFF"/>
<path d="M172 306C169.791 306 168 307.791 168 310V362C168 363.105 168.895 364 170 364H174C175.105 364 176 363.105 176 362V310C176 307.791 174.209 306 172 306Z" fill="#BBDEFF"/>
<rect x="104" y="366" width="24" height="11" rx="2" fill="#BBDEFF"/>
<rect x="160" y="366" width="24" height="11" rx="2" fill="#BBDEFF"/>
<path fill-rule="evenodd" clip-rule="evenodd" d="M43 261C41.8954 261 41 261.895 41 263V375C41 376.105 41.8954 377 43 377H76C77.1046 377 78 376.105 78 375V263C78 261.895 77.1046 261 76 261H43ZM48 270C48 268.895 48.8954 268 50 268H69C70.1046 268 71 268.895 71 270V272C71 273.105 70.1046 274 69 274H50C48.8954 274 48 273.105 48 272V270ZM48 282C48 280.895 48.8954 280 50 280H69C70.1046 280 71 280.895 71 282V284C71 285.105 70.1046 286 69 286H50C48.8954 286 48 285.105 48 284V282ZM48 294C48 292.895 48.8954 292 50 292H69C70.1046 292 71 292.895 71 294V296C71 297.105 70.1046 298 69 298H50C48.8954 298 48 297.105 48 296V294ZM50 304C48.8954 304 48 304.895 48 306V308C48 309.105 48.8954 310 50 310H69C70.1046 310 71 309.105 71 308V306C71 304.895 70.1046 304 69 304H50ZM50 316C48.8954 316 48 316.895 48 318V320C48 321.105 48.8954 322 50 322H69C70.1046 322 71 321.105 71 320V318C71 316.895 70.1046 316 69 316H50ZM50 352C48.8954 352 48 352.895 48 354V356C48 357.105 48.8954 358 50 358H69C70.1046 358 71 357.105 71 356V354C71 352.895 70.1046 352 69 352H50ZM50 340C48.8954 340 48 340.895 48 342V344C48 345.105 48.8954 346 50 346H69C70.1046 346 71 345.105 71 344V342C71 340.895 70.1046 340 69 340H50ZM50 328C48.8954 328 48 328.895 48 330V332C48 333.105 48.8954 334 50 334H69C70.1046 334 71 333.105 71 332V330C71 328.895 70.1046 328 69 328H50Z" fill="#D9D9D9"/>
<path fill-rule="evenodd" clip-rule="evenodd" d="M58 188.5C58 187.672 58.6716 187 59.5 187C60.3284 187 61 187.672 61 188.5V204H64C65.1046 204 66 204.895 66 206V228H68C69.1046 228 70 228.895 70 230V261H76C77.1046 261 78 261.895 78 263V375C78 376.105 77.1046 377 76 377H43C41.8954 377 41 376.105 41 375V263C41 261.895 41.8954 261 43 261H49V230C49 228.895 49.8954 228 51 228H53V206C53 204.895 53.8954 204 55 204H58V188.5ZM50 268C48.8954 268 48 268.895 48 270V272C48 273.105 48.8954 274 50 274H69C70.1046 274 71 273.105 71 272V270C71 268.895 70.1046 268 69 268H50ZM50 280C48.8954 280 48 280.895 48 282V284C48 285.105 48.8954 286 50 286H69C70.1046 286 71 285.105 71 284V282C71 280.895 70.1046 280 69 280H50ZM50 292C48.8954 292 48 292.895 48 294V296C48 297.105 48.8954 298 50 298H69C70.1046 298 71 297.105 71 296V294C71 292.895 70.1046 292 69 292H50ZM48 306C48 304.895 48.8954 304 50 304H69C70.1046 304 71 304.895 71 306V308C71 309.105 70.1046 310 69 310H50C48.8954 310 48 309.105 48 308V306ZM48 318C48 316.895 48.8954 316 50 316H69C70.1046 316 71 316.895 71 318V320C71 321.105 70.1046 322 69 322H50C48.8954 322 48 321.105 48 320V318ZM48 354C48 352.895 48.8954 352 50 352H69C70.1046 352 71 352.895 71 354V356C71 357.105 70.1046 358 69 358H50C48.8954 358 48 357.105 48 356V354ZM48 342C48 340.895 48.8954 340 50 340H69C70.1046 340 71 340.895 71 342V344C71 345.105 70.1046 346 69 346H50C48.8954 346 48 345.105 48 344V342ZM48 330C48 328.895 48.8954 328 50 328H69C70.1046 328 71 328.895 71 330V332C71 333.105 70.1046 334 69 334H50C48.8954 334 48 333.105 48 332V330Z" fill="#BBDEFF"/>
<path fill-rule="evenodd" clip-rule="evenodd" d="M213.586 253.414C213.211 253.789 213 254.298 213 254.828V375C213 376.104 213.895 377 215 377H246C247.105 377 248 376.104 248 375V223.828C248 222.046 245.846 221.154 244.586 222.414L213.586 253.414ZM220 263C218.895 263 218 263.895 218 265V268C218 269.105 218.895 270 220 270H223C224.105 270 225 269.105 225 268V265C225 263.895 224.105 263 223 263H220ZM220 274C218.895 274 218 274.895 218 276V279C218 280.105 218.895 281 220 281H223C224.105 281 225 280.105 225 279V276C225 274.895 224.105 274 223 274H220ZM218 287C218 285.895 218.895 285 220 285H223C224.105 285 225 285.895 225 287V290C225 291.105 224.105 292 223 292H220C218.895 292 218 291.105 218 290V287ZM220 296C218.895 296 218 296.895 218 298V301C218 302.105 218.895 303 220 303H223C224.105 303 225 302.105 225 301V298C225 296.895 224.105 296 223 296H220ZM218 309C218 307.895 218.895 307 220 307H223C224.105 307 225 307.895 225 309V312C225 313.105 224.105 314 223 314H220C218.895 314 218 313.105 218 312V309ZM220 318C218.895 318 218 318.895 218 320V323C218 324.105 218.895 325 220 325H223C224.105 325 225 324.105 225 323V320C225 318.895 224.105 318 223 318H220ZM218 331C218 329.895 218.895 329 220 329H223C224.105 329 225 329.895 225 331V334C225 335.105 224.105 336 223 336H220C218.895 336 218 335.105 218 334V331ZM220 340C218.895 340 218 340.895 218 342V345C218 346.105 218.895 347 220 347H223C224.105 347 225 346.105 225 345V342C225 340.895 224.105 340 223 340H220ZM218 353C218 351.895 218.895 351 220 351H223C224.105 351 225 351.895 225 353V356C225 357.105 224.105 358 223 358H220C218.895 358 218 357.105 218 356V353ZM220 362C218.895 362 218 362.895 218 364V367C218 368.105 218.895 369 220 369H223C224.105 369 225 368.105 225 367V364C225 362.895 224.105 362 223 362H220ZM236 265C236 263.895 236.895 263 238 263H241C242.105 263 243 263.895 243 265V268C243 269.105 242.105 270 241 270H238C236.895 270 236 269.105 236 268V265ZM238 274C236.895 274 236 274.895 236 276V279C236 280.105 236.895 281 238 281H241C242.105 281 243 280.105 243 279V276C243 274.895 242.105 274 241 274H238ZM236 287C236 285.895 236.895 285 238 285H241C242.105 285 243 285.895 243 287V290C243 291.105 242.105 292 241 292H238C236.895 292 236 291.105 236 290V287ZM238 296C236.895 296 236 296.895 236 298V301C236 302.105 236.895 303 238 303H241C242.105 303 243 302.105 243 301V298C243 296.895 242.105 296 241 296H238ZM236 309C236 307.895 236.895 307 238 307H241C242.105 307 243 307.895 243 309V312C243 313.105 242.105 314 241 314H238C236.895 314 236 313.105 236 312V309ZM238 318C236.895 318 236 318.895 236 320V323C236 324.105 236.895 325 238 325H241C242.105 325 243 324.105 243 323V320C243 318.895 242.105 318 241 318H238ZM236 331C236 329.895 236.895 329 238 329H241C242.105 329 243 329.895 243 331V334C243 335.105 242.105 336 241 336H238C236.895 336 236 335.105 236 334V331ZM238 340C236.895 340 236 340.895 236 342V345C236 346.105 236.895 347 238 347H241C242.105 347 243 346.105 243 345V342C243 340.895 242.105 340 241 340H238ZM236 353C236 351.895 236.895 351 238 351H241C242.105 351 243 351.895 243 353V356C243 357.105 242.105 358 241 358H238C236.895 358 236 357.105 236 356V353ZM238 362C236.895 362 236 362.895 236 364V367C236 368.105 236.895 369 238 369H241C242.105 369 243 368.105 243 367V364C243 362.895 242.105 362 241 362H238ZM227 265C227 263.895 227.895 263 229 263H232C233.105 263 234 263.895 234 265V268C234 269.105 233.105 270 232 270H229C227.895 270 227 269.105 227 268V265ZM229 274C227.895 274 227 274.895 227 276V279C227 280.105 227.895 281 229 281H232C233.105 281 234 280.105 234 279V276C234 274.895 233.105 274 232 274H229ZM227 287C227 285.895 227.895 285 229 285H232C233.105 285 234 285.895 234 287V290C234 291.105 233.105 292 232 292H229C227.895 292 227 291.105 227 290V287ZM229 296C227.895 296 227 296.895 227 298V301C227 302.105 227.895 303 229 303H232C233.105 303 234 302.105 234 301V298C234 296.895 233.105 296 232 296H229ZM227 309C227 307.895 227.895 307 229 307H232C233.105 307 234 307.895 234 309V312C234 313.105 233.105 314 232 314H229C227.895 314 227 313.105 227 312V309ZM229 318C227.895 318 227 318.895 227 320V323C227 324.105 227.895 325 229 325H232C233.105 325 234 324.105 234 323V320C234 318.895 233.105 318 232 318H229ZM227 331C227 329.895 227.895 329 229 329H232C233.105 329 234 329.895 234 331V334C234 335.105 233.105 336 232 336H229C227.895 336 227 335.105 227 334V331ZM229 340C227.895 340 227 340.895 227 342V345C227 346.105 227.895 347 229 347H232C233.105 347 234 346.105 234 345V342C234 340.895 233.105 340 232 340H229ZM227 353C227 351.895 227.895 351 229 351H232C233.105 351 234 351.895 234 353V356C234 357.105 233.105 358 232 358H229C227.895 358 227 357.105 227 356V353ZM229 362C227.895 362 227 362.895 227 364V367C227 368.105 227.895 369 229 369H232C233.105 369 234 368.105 234 367V364C234 362.895 233.105 362 232 362H229Z" fill="#BBDEFF"/>
<defs>
<linearGradient id="paint0_linear_2287_6585" x1="0" y1="0" x2="82.0099" y2="148.801" gradientUnits="userSpaceOnUse">
<stop stop-color="#D6EBFF"/>
<stop offset="1" stop-color="#C2C7FF"/>
</linearGradient>
</defs>
</svg>
