<svg width="46" height="46" viewBox="0 0 46 46" fill="none" xmlns="http://www.w3.org/2000/svg">
<circle cx="23" cy="23" r="22.5" fill="#C2C7FF" stroke="#D9D9D9"/>
<path fill-rule="evenodd" clip-rule="evenodd" d="M10 5.24991V40.7501C13.642 43.422 18.1367 45 23 45C27.8633 45 32.358 43.422 36 40.7501V5.24991C32.358 2.578 27.8633 1 23 1C18.1367 1 13.642 2.578 10 5.24991ZM23.7977 15.924C23.8595 16.0595 24.0289 16.0747 24.1096 15.9521L25.2263 14.2562C25.3308 14.0975 25.5579 14.1793 25.5579 14.3757V20.3302C25.5579 20.4865 25.7107 20.5841 25.8329 20.506L30.1575 17.7433C30.2971 17.6541 30.4654 17.7935 30.4274 17.9669L30.0486 19.6952C30.0225 19.8145 30.0974 19.932 30.2077 19.9448L31.6528 20.1131C31.7766 20.1276 31.8517 20.2715 31.8011 20.3974L31.2103 21.8663C31.1652 21.9785 31.2197 22.1089 31.3261 22.1435L32.8683 22.6447C33.023 22.695 33.0479 22.9259 32.9083 23.0151L25.6283 27.6657C25.5865 27.6924 25.5602 27.7407 25.558 27.7936V28.7314C25.558 28.8568 25.4563 28.9521 25.3445 28.9315L23.7242 28.6327V30.7971C23.7242 30.9091 23.6421 31 23.5408 31H22.0737C21.9724 31 21.8903 30.9091 21.8903 30.7971V28.6327L20.27 28.9315C20.1582 28.9521 20.0565 28.8568 20.0565 28.7314V27.7614L20.0563 27.7534V27.5814C20.0563 27.5089 20.0214 27.4419 19.9646 27.4057L13.0917 23.0151C12.9521 22.9259 12.977 22.695 13.1317 22.6447L14.6739 22.1435C14.7803 22.1089 14.8348 21.9785 14.7897 21.8663L14.1989 20.3974C14.1483 20.2715 14.2234 20.1276 14.3472 20.1131L15.7923 19.9448C15.9027 19.932 15.9775 19.8145 15.9514 19.6952L15.5726 17.9669C15.5346 17.7935 15.7029 17.6541 15.8425 17.7433L19.7812 20.2595C19.9035 20.3376 20.0563 20.24 20.0563 20.0838V14.3757C20.0563 14.1793 20.2834 14.0975 20.3879 14.2562L21.5046 15.9521C21.5854 16.0747 21.7547 16.0595 21.8165 15.924L22.6434 14.1115C22.7112 13.9629 22.903 13.9629 22.9708 14.1115L23.7977 15.924Z" fill="white"/>
</svg>
