<svg width="46" height="46" viewBox="0 0 46 46" fill="none" xmlns="http://www.w3.org/2000/svg">
<circle cx="23" cy="23" r="22.5" fill="white" stroke="#D9D9D9"/>
<path fill-rule="evenodd" clip-rule="evenodd" d="M43.5618 15C44.2666 16.8872 44.7294 18.9011 44.9103 21H23V15H43.5618Z" fill="#C2C7FF"/>
<path fill-rule="evenodd" clip-rule="evenodd" d="M41.4421 11H24V5H35.6523C37.9422 6.6125 39.9105 8.65089 41.4421 11Z" fill="#C2C7FF"/>
<path fill-rule="evenodd" clip-rule="evenodd" d="M2.49991 31C1.76291 29.1128 1.27899 27.0989 1.08984 25H44.9105C44.7213 27.0989 44.2374 29.1128 43.5004 31H2.49991Z" fill="#C2C7FF"/>
<path fill-rule="evenodd" clip-rule="evenodd" d="M10.3474 41C8.0576 39.3875 6.08926 37.3491 4.55762 35H41.4419C39.9102 37.3491 37.9419 39.3875 35.6521 41H10.3474Z" fill="#C2C7FF"/>
<path fill-rule="evenodd" clip-rule="evenodd" d="M25.8247 1.17963C25.9374 1.42995 26.0002 1.70766 26.0002 2V19C26.0002 20.1046 25.1047 21 24.0002 21H1.08984C1.2964 18.7078 1.85454 16.517 2.70992 14.4819L3.79282 15.2687C3.8629 15.3196 3.89224 15.4099 3.86546 15.4923L3.42703 16.8416C3.36717 17.0259 3.57806 17.1791 3.7348 17.0652L4.88263 16.2313C4.95273 16.1804 5.04764 16.1804 5.11774 16.2313L6.26556 17.0652C6.4223 17.1791 6.63319 17.0259 6.57332 16.8416L6.1349 15.4923C6.10812 15.4099 6.13745 15.3196 6.20755 15.2687L7.35538 14.4347C7.51212 14.3209 7.43156 14.0729 7.23781 14.0729H5.81903C5.73239 14.0729 5.65559 14.0172 5.62881 13.9347L5.1904 12.5854C5.13052 12.4011 4.86984 12.4011 4.80997 12.5854L4.37154 13.9347C4.34477 14.0172 4.26797 14.0729 4.18134 14.0729H2.88673C6.31029 6.37088 14.028 1 23.0002 1C23.9572 1 24.8999 1.0611 25.8247 1.17963ZM13.1904 3.5854C13.1305 3.40114 12.8698 3.40114 12.81 3.5854L12.3715 4.93474C12.3448 5.01715 12.268 5.07294 12.1813 5.07294H10.7625C10.5688 5.07294 10.4883 5.32086 10.645 5.43474L11.7928 6.26868C11.8629 6.31961 11.8922 6.40988 11.8655 6.49229L11.427 7.84163C11.3672 8.02589 11.5781 8.17912 11.7348 8.06525L12.8826 7.23129C12.9527 7.18037 13.0476 7.18037 13.1177 7.23129L14.2656 8.06525C14.4223 8.17912 14.6332 8.02589 14.5733 7.84163L14.1349 6.49229C14.1081 6.40988 14.1375 6.31961 14.2076 6.26868L15.3554 5.43474C15.5121 5.32086 15.4316 5.07294 15.2378 5.07294H13.819C13.7324 5.07294 13.6556 5.01715 13.6288 4.93474L13.1904 3.5854ZM21.1904 3.5854C21.1305 3.40114 20.8698 3.40114 20.81 3.5854L20.3715 4.93474C20.3448 5.01715 20.268 5.07294 20.1813 5.07294H18.7625C18.5688 5.07294 18.4883 5.32086 18.645 5.43474L19.7928 6.26868C19.8629 6.31961 19.8922 6.40988 19.8655 6.49229L19.427 7.84163C19.3672 8.02589 19.5781 8.17912 19.7348 8.06525L20.8826 7.23129C20.9527 7.18037 21.0476 7.18037 21.1177 7.23129L22.2656 8.06525C22.4223 8.17912 22.6332 8.02589 22.5733 7.84163L22.1349 6.49229C22.1081 6.40988 22.1375 6.31961 22.2076 6.26868L23.3554 5.43474C23.5121 5.32086 23.4315 5.07294 23.2378 5.07294H21.819C21.7324 5.07294 21.6556 5.01715 21.6288 4.93474L21.1904 3.5854ZM21.1904 12.5854C21.1305 12.4011 20.8698 12.4011 20.81 12.5854L20.3715 13.9347C20.3448 14.0172 20.268 14.0729 20.1813 14.0729H18.7625C18.5688 14.0729 18.4883 14.3209 18.645 14.4347L19.7928 15.2687C19.8629 15.3196 19.8922 15.4099 19.8655 15.4923L19.427 16.8416C19.3672 17.0259 19.5781 17.1791 19.7348 17.0652L20.8826 16.2313C20.9527 16.1804 21.0476 16.1804 21.1177 16.2313L22.2656 17.0652C22.4223 17.1791 22.6332 17.0259 22.5733 16.8416L22.1349 15.4923C22.1081 15.4099 22.1375 15.3196 22.2076 15.2687L23.3554 14.4347C23.5121 14.3209 23.4315 14.0729 23.2378 14.0729H21.819C21.7324 14.0729 21.6556 14.0172 21.6288 13.9347L21.1904 12.5854ZM12.81 12.5854C12.8698 12.4011 13.1305 12.4011 13.1904 12.5854L13.6288 13.9347C13.6556 14.0172 13.7324 14.0729 13.819 14.0729H15.2378C15.4316 14.0729 15.5121 14.3209 15.3554 14.4347L14.2076 15.2687C14.1375 15.3196 14.1081 15.4099 14.1349 15.4923L14.5733 16.8416C14.6332 17.0259 14.4223 17.1791 14.2656 17.0652L13.1177 16.2313C13.0476 16.1804 12.9527 16.1804 12.8826 16.2313L11.7348 17.0652C11.5781 17.1791 11.3672 17.0259 11.427 16.8416L11.8655 15.4923C11.8922 15.4099 11.8629 15.3196 11.7928 15.2687L10.645 14.4347C10.4883 14.3209 10.5688 14.0729 10.7625 14.0729H12.1813C12.268 14.0729 12.3448 14.0172 12.3715 13.9347L12.81 12.5854Z" fill="#C2C7FF"/>
</svg>
