<svg width="46" height="46" viewBox="0 0 46 46" fill="none" xmlns="http://www.w3.org/2000/svg">
<circle cx="23" cy="23" r="22.5" fill="#C2C7FF" stroke="#D9D9D9"/>
<path fill-rule="evenodd" clip-rule="evenodd" d="M15 43.5002C6.8053 40.3 1 32.3279 1 23C1 13.6721 6.8053 5.70003 15 2.49976V43.5002Z" fill="white"/>
<circle cx="14.5" cy="22.5" r="8" fill="#C2C7FF" stroke="white"/>
<mask id="path-4-inside-1_2139_6310" fill="white">
<path fill-rule="evenodd" clip-rule="evenodd" d="M18 18.2C18 18.0895 17.9105 18 17.8 18H11.2C11.0895 18 11 18.0895 11 18.2V23.5C11 25.433 12.567 27 14.5 27C16.433 27 18 25.433 18 23.5V18.2Z"/>
</mask>
<path d="M11.2 19H17.8V17H11.2V19ZM12 23.5V18.2H10V23.5H12ZM14.5 26C13.1193 26 12 24.8807 12 23.5H10C10 25.9853 12.0147 28 14.5 28V26ZM17 23.5C17 24.8807 15.8807 26 14.5 26V28C16.9853 28 19 25.9853 19 23.5H17ZM17 18.2V23.5H19V18.2H17ZM17.8 19C17.3582 19 17 18.6418 17 18.2H19C19 17.5373 18.4627 17 17.8 17V19ZM11.2 17C10.5373 17 10 17.5373 10 18.2H12C12 18.6418 11.6418 19 11.2 19V17Z" fill="white" mask="url(#path-4-inside-1_2139_6310)"/>
<rect x="13" y="20" width="3" height="4" rx="1.5" fill="white"/>
</svg>
