<svg width="48" height="48" viewBox="0 0 48 48" fill="none" xmlns="http://www.w3.org/2000/svg">
<circle cx="24" cy="24" r="22.5" fill="#C2C7FF" stroke="#D9D9D9"/>
<mask id="path-2-outside-1_2139_6332" maskUnits="userSpaceOnUse" x="0" y="0.137085" width="48" height="48" fill="black">
<rect fill="white" y="0.137085" width="48" height="48"/>
<path fill-rule="evenodd" clip-rule="evenodd" d="M17 3.13708C14.8291 3.86515 12.8093 4.92256 11 6.24995V21H2.20284C2.06909 21.9809 2 22.9824 2 24C2 25.0176 2.06909 26.0191 2.20284 27H11V41.7501C12.8093 43.0775 14.8291 44.1349 17 44.863V27H45.7972C45.9309 26.0191 46 25.0176 46 24C46 22.9824 45.9309 21.9809 45.7972 21H17V3.13708Z"/>
</mask>
<path d="M11 6.24995L9.81696 4.63737L9 5.23672V6.24995H11ZM17 3.13708H19V0.356824L16.364 1.24088L17 3.13708ZM11 21V23H13V21H11ZM2.20284 21V19H0.457032L0.221174 20.7298L2.20284 21ZM2.20284 27L0.221174 27.2702L0.457032 29H2.20284V27ZM11 27H13V25H11V27ZM11 41.7501H9V42.7633L9.81696 43.3627L11 41.7501ZM17 44.863L16.364 46.7592L19 47.6432V44.863H17ZM17 27V25H15V27H17ZM45.7972 27V29H47.543L47.7788 27.2702L45.7972 27ZM45.7972 21L47.7788 20.7298L47.543 19H45.7972V21ZM17 21H15V23H17V21ZM12.183 7.86253C13.8285 6.65537 15.6642 5.69457 17.636 5.03327L16.364 1.24088C13.9941 2.03573 11.7902 3.18975 9.81696 4.63737L12.183 7.86253ZM9 6.24995V21H13V6.24995H9ZM11 19H2.20284V23H11V19ZM4 24C4 23.073 4.06293 22.1618 4.1845 21.2702L0.221174 20.7298C0.0752513 21.8 0 22.8918 0 24H4ZM4.1845 26.7298C4.06293 25.8382 4 24.927 4 24H0C0 25.1083 0.0752513 26.2 0.221174 27.2702L4.1845 26.7298ZM2.20284 29H11V25H2.20284V29ZM9 27V41.7501H13V27H9ZM17.636 42.9668C15.6642 42.3055 13.8285 41.3447 12.183 40.1375L9.81696 43.3627C11.7902 44.8103 13.9941 45.9643 16.364 46.7592L17.636 42.9668ZM19 44.863V27H15V44.863H19ZM17 29H45.7972V25H17V29ZM44 24C44 24.927 43.9371 25.8382 43.8155 26.7298L47.7788 27.2702C47.9247 26.2 48 25.1083 48 24H44ZM43.8155 21.2702C43.9371 22.1618 44 23.073 44 24H48C48 22.8918 47.9247 21.8 47.7788 20.7298L43.8155 21.2702ZM45.7972 19H17V23H45.7972V19ZM19 21V3.13708H15V21H19Z" fill="white" mask="url(#path-2-outside-1_2139_6332)"/>
<circle cx="24" cy="24" r="22.5" stroke="#D9D9D9"/>
</svg>
