<svg width="46" height="46" viewBox="0 0 46 46" fill="none" xmlns="http://www.w3.org/2000/svg">
<circle cx="23" cy="23" r="22.5" fill="#C2C7FF" stroke="#D9D9D9"/>
<path fill-rule="evenodd" clip-rule="evenodd" d="M23.6864 1.0112C23.4511 1.00375 23.2148 1 22.9777 1C20.8976 1 18.8849 1.28868 16.9775 1.82817V7.72006L23.6864 1.0112ZM10.9775 4.55795C10.3709 4.9535 9.78496 5.37818 9.22174 5.82999L10.9775 7.58579V4.55795ZM7.71689 7.15357C7.11242 7.73583 6.54118 8.35236 6.0063 9.00003H9.56335L7.71689 7.15357ZM2.47743 15C1.62411 17.1851 1.11005 19.54 1 22H2.6976L9.69757 15H2.47743ZM5.52603 22H10.9775V16.5485L5.52603 22ZM16.9775 22H22.5633L16.9775 16.4142V22ZM25.3918 22H26.9777C27.53 22 27.9777 21.5523 27.9777 21V15H18.3918L25.3918 22ZM27.9777 9.00003H18.526L26.2799 1.24618C26.8533 1.3325 27.4196 1.44097 27.9777 1.57067V9.00003Z" fill="white"/>
<path d="M34.4049 18.2927C34.4348 18.2006 34.5652 18.2006 34.5951 18.2927L35.0388 19.6584C35.0522 19.6996 35.0906 19.7275 35.1339 19.7275H36.5699C36.6667 19.7275 36.707 19.8514 36.6287 19.9084L35.467 20.7524C35.4319 20.7778 35.4172 20.823 35.4306 20.8642L35.8744 22.2298C35.9043 22.322 35.7988 22.3986 35.7205 22.3416L34.5588 21.4976C34.5237 21.4722 34.4763 21.4722 34.4412 21.4976L33.2795 22.3416C33.2012 22.3986 33.0957 22.322 33.1256 22.2298L33.5694 20.8642C33.5828 20.823 33.5681 20.7778 33.533 20.7524L32.3713 19.9084C32.293 19.8514 32.3333 19.7275 32.4301 19.7275H33.8661C33.9094 19.7275 33.9478 19.6996 33.9612 19.6584L34.4049 18.2927Z" fill="white"/>
<path d="M34.4049 30.2927C34.4348 30.2006 34.5652 30.2006 34.5951 30.2927L35.0388 31.6584C35.0522 31.6996 35.0906 31.7275 35.1339 31.7275H36.5699C36.6667 31.7275 36.707 31.8514 36.6287 31.9084L35.467 32.7524C35.4319 32.7778 35.4172 32.823 35.4306 32.8642L35.8744 34.2298C35.9043 34.322 35.7988 34.3986 35.7205 34.3416L34.5588 33.4976C34.5237 33.4722 34.4763 33.4722 34.4412 33.4976L33.2795 34.3416C33.2012 34.3986 33.0957 34.322 33.1256 34.2298L33.5694 32.8642C33.5828 32.823 33.5681 32.7778 33.533 32.7524L32.3713 31.9084C32.293 31.8514 32.3333 31.7275 32.4301 31.7275H33.8661C33.9094 31.7275 33.9478 31.6996 33.9612 31.6584L34.4049 30.2927Z" fill="white"/>
<path d="M29.4049 24.2927C29.4348 24.2006 29.5652 24.2006 29.5951 24.2927L30.0388 25.6584C30.0522 25.6996 30.0906 25.7275 30.1339 25.7275H31.5699C31.6667 25.7275 31.707 25.8514 31.6287 25.9084L30.467 26.7524C30.4319 26.7778 30.4172 26.823 30.4306 26.8642L30.8744 28.2298C30.9043 28.322 30.7988 28.3986 30.7205 28.3416L29.5588 27.4976C29.5237 27.4722 29.4763 27.4722 29.4412 27.4976L28.2795 28.3416C28.2012 28.3986 28.0957 28.322 28.1256 28.2298L28.5694 26.8642C28.5828 26.823 28.5681 26.7778 28.533 26.7524L27.3713 25.9084C27.293 25.8514 27.3333 25.7275 27.4301 25.7275H28.8661C28.9094 25.7275 28.9478 25.6996 28.9612 25.6584L29.4049 24.2927Z" fill="white"/>
<path d="M40.4049 23.2927C40.4348 23.2006 40.5652 23.2006 40.5951 23.2927L41.0388 24.6584C41.0522 24.6996 41.0906 24.7275 41.1339 24.7275H42.5699C42.6667 24.7275 42.707 24.8514 42.6287 24.9084L41.467 25.7524C41.4319 25.7778 41.4172 25.823 41.4306 25.8642L41.8744 27.2298C41.9043 27.322 41.7988 27.3986 41.7205 27.3416L40.5588 26.4976C40.5237 26.4722 40.4763 26.4722 40.4412 26.4976L39.2795 27.3416C39.2012 27.3986 39.0957 27.322 39.1256 27.2298L39.5694 25.8642C39.5828 25.823 39.5681 25.7778 39.533 25.7524L38.3713 24.9084C38.293 24.8514 38.3333 24.7275 38.4301 24.7275H39.8661C39.9094 24.7275 39.9478 24.6996 39.9612 24.6584L40.4049 23.2927Z" fill="white"/>
<path d="M37.4049 27.2927C37.4348 27.2006 37.5652 27.2006 37.5951 27.2927L37.8143 27.9674C37.8277 28.0086 37.8661 28.0365 37.9094 28.0365H38.6188C38.7157 28.0365 38.756 28.1604 38.6776 28.2174L38.1037 28.6343C38.0686 28.6598 38.054 28.7049 38.0674 28.7461L38.2866 29.4208C38.3165 29.513 38.2111 29.5896 38.1327 29.5326L37.5588 29.1157C37.5237 29.0902 37.4763 29.0902 37.4412 29.1157L36.8673 29.5326C36.7889 29.5896 36.6835 29.513 36.7134 29.4208L36.9326 28.7461C36.946 28.7049 36.9314 28.6598 36.8963 28.6343L36.3224 28.2174C36.244 28.1604 36.2843 28.0365 36.3812 28.0365H37.0906C37.1339 28.0365 37.1723 28.0086 37.1857 27.9674L37.4049 27.2927Z" fill="white"/>
<path fill-rule="evenodd" clip-rule="evenodd" d="M16.4755 27.4636C16.3259 27.0029 15.6741 27.0029 15.5245 27.4636L15.0102 29.0464L13.6176 28.1028C13.2166 27.8311 12.7022 28.2313 12.8669 28.6867L13.3945 30.1459H11.8325C11.3481 30.1459 11.1467 30.7657 11.5386 31.0504L12.9132 32.0491L11.5999 33.0709C11.2175 33.3682 11.4391 33.9811 11.9232 33.9652L13.428 33.9158L12.9488 35.3906C12.7991 35.8513 13.3264 36.2343 13.7183 35.9496L15.1238 34.9283L15.7012 36.525C15.866 36.9805 16.5173 36.9591 16.6518 36.4938L17.0646 35.0653L18.2817 35.9496C18.6736 36.2343 19.2009 35.8513 19.0512 35.3906L18.5177 33.7488L20.2537 33.6918C20.7379 33.6759 20.9188 33.0498 20.5178 32.7781L19.2582 31.9246L20.4614 31.0504C20.8533 30.7657 20.6519 30.1459 20.1675 30.1459H18.4864L18.966 28.4865C19.1005 28.0212 18.5609 27.6556 18.1787 27.9531L16.9461 28.9119L16.4755 27.4636Z" fill="white"/>
</svg>
