<svg width="46" height="46" viewBox="0 0 46 46" fill="none" xmlns="http://www.w3.org/2000/svg">
<circle cx="23" cy="23" r="22.5" fill="#C2C7FF" stroke="#D9D9D9"/>
<path fill-rule="evenodd" clip-rule="evenodd" d="M31.7011 2.78768C31.8938 3.32092 32 3.90496 32 4.51724C32 7.03109 30.2091 9.06897 28 9.06897H13.5C12.6716 9.06897 12 9.83317 12 10.7759C12 11.7186 12.6716 12.4828 13.5 12.4828H15.5C18.5376 12.4828 21 15.2848 21 18.7414C21 22.1979 18.5376 25 15.5 25H1.08969C1.03033 24.3413 1 23.6742 1 23C1 10.8497 10.8497 1 23 1C26.0906 1 29.0324 1.63731 31.7011 2.78768Z" fill="white"/>
<path fill-rule="evenodd" clip-rule="evenodd" d="M42.0568 34C38.5449 40.5758 31.9808 45 24.4627 45C22.2378 45 20.0965 44.6125 18.0931 43.8965C18.0322 43.6083 18 43.3082 18 43C18 40.7909 19.6534 39 21.693 39H27.9376C27.499 38.4692 27.2324 37.7684 27.2324 37C27.2324 35.3431 28.4724 34 30.0021 34H42.0568Z" fill="white"/>
<rect x="25" y="20" width="9" height="6" rx="3" fill="white"/>
</svg>
