<svg width="46" height="46" viewBox="0 0 46 46" fill="none" xmlns="http://www.w3.org/2000/svg">
<circle cx="23" cy="23" r="22.5" fill="#C2C7FF" stroke="#D9D9D9"/>
<path d="M13.5245 17.4635C13.6741 17.0029 14.3259 17.0029 14.4755 17.4635L15.2348 19.8004C15.3018 20.0064 15.4937 20.1459 15.7104 20.1459H18.1675C18.6519 20.1459 18.8532 20.7657 18.4614 21.0504L16.4735 22.4947C16.2983 22.622 16.2249 22.8477 16.2919 23.0537L17.0512 25.3906C17.2009 25.8512 16.6736 26.2343 16.2818 25.9496L14.2939 24.5053C14.1186 24.378 13.8814 24.378 13.7061 24.5053L11.7182 25.9496C11.3264 26.2343 10.7991 25.8512 10.9488 25.3906L11.7081 23.0537C11.7751 22.8477 11.7017 22.622 11.5265 22.4947L9.53861 21.0504C9.14675 20.7657 9.34814 20.1459 9.8325 20.1459H12.2896C12.5063 20.1459 12.6982 20.0064 12.7652 19.8004L13.5245 17.4635Z" fill="white"/>
<path d="M19.8098 9.58541C19.8697 9.40115 20.1303 9.40115 20.1902 9.58541L20.6286 10.9348C20.6554 11.0172 20.7322 11.0729 20.8189 11.0729H22.2376C22.4314 11.0729 22.5119 11.3209 22.3552 11.4348L21.2074 12.2687C21.1373 12.3196 21.1079 12.4099 21.1347 12.4923L21.5731 13.8416C21.633 14.0259 21.4221 14.1791 21.2654 14.0652L20.1176 13.2313C20.0475 13.1804 19.9525 13.1804 19.8824 13.2313L18.7346 14.0652C18.5779 14.1791 18.367 14.0259 18.4269 13.8416L18.8653 12.4923C18.8921 12.4099 18.8627 12.3196 18.7926 12.2687L17.6448 11.4348C17.4881 11.3209 17.5686 11.0729 17.7624 11.0729H19.1811C19.2678 11.0729 19.3446 11.0172 19.3714 10.9348L19.8098 9.58541Z" fill="white"/>
<path d="M25.8098 15.5854C25.8697 15.4011 26.1303 15.4011 26.1902 15.5854L26.6286 16.9348C26.6554 17.0172 26.7322 17.0729 26.8189 17.0729H28.2376C28.4314 17.0729 28.5119 17.3209 28.3552 17.4348L27.2074 18.2687C27.1373 18.3196 27.1079 18.4099 27.1347 18.4923L27.5731 19.8416C27.633 20.0259 27.4221 20.1791 27.2654 20.0652L26.1176 19.2313C26.0475 19.1804 25.9525 19.1804 25.8824 19.2313L24.7346 20.0652C24.5779 20.1791 24.367 20.0259 24.4269 19.8416L24.8653 18.4923C24.8921 18.4099 24.8627 18.3196 24.7926 18.2687L23.6448 17.4348C23.4881 17.3209 23.5686 17.0729 23.7624 17.0729H25.1811C25.2678 17.0729 25.3446 17.0172 25.3714 16.9348L25.8098 15.5854Z" fill="white"/>
<path d="M25.8098 23.5854C25.8697 23.4011 26.1303 23.4011 26.1902 23.5854L26.6286 24.9348C26.6554 25.0172 26.7322 25.0729 26.8189 25.0729H28.2376C28.4314 25.0729 28.5119 25.3209 28.3552 25.4348L27.2074 26.2687C27.1373 26.3196 27.1079 26.4099 27.1347 26.4923L27.5731 27.8416C27.633 28.0259 27.4221 28.1791 27.2654 28.0652L26.1176 27.2313C26.0475 27.1804 25.9525 27.1804 25.8824 27.2313L24.7346 28.0652C24.5779 28.1791 24.367 28.0259 24.4269 27.8416L24.8653 26.4923C24.8921 26.4099 24.8627 26.3196 24.7926 26.2687L23.6448 25.4348C23.4881 25.3209 23.5686 25.0729 23.7624 25.0729H25.1811C25.2678 25.0729 25.3446 25.0172 25.3714 24.9348L25.8098 23.5854Z" fill="white"/>
<path d="M19.8098 29.5854C19.8697 29.4011 20.1303 29.4011 20.1902 29.5854L20.6286 30.9348C20.6554 31.0172 20.7322 31.0729 20.8189 31.0729H22.2376C22.4314 31.0729 22.5119 31.3209 22.3552 31.4348L21.2074 32.2687C21.1373 32.3196 21.1079 32.4099 21.1347 32.4923L21.5731 33.8416C21.633 34.0259 21.4221 34.1791 21.2654 34.0652L20.1176 33.2313C20.0475 33.1804 19.9525 33.1804 19.8824 33.2313L18.7346 34.0652C18.5779 34.1791 18.367 34.0259 18.4269 33.8416L18.8653 32.4923C18.8921 32.4099 18.8627 32.3196 18.7926 32.2687L17.6448 31.4348C17.4881 31.3209 17.5686 31.0729 17.7624 31.0729H19.1811C19.2678 31.0729 19.3446 31.0172 19.3714 30.9348L19.8098 29.5854Z" fill="white"/>
<path fill-rule="evenodd" clip-rule="evenodd" d="M41 23C41 13.0589 32.9411 5 23 5C13.0589 5 5 13.0589 5 23C5 32.9411 13.0589 41 23 41C32.9411 41 41 32.9411 41 23ZM39 23C39 14.1634 31.8366 7 23 7C14.1634 7 7 14.1634 7 23C7 31.8366 14.1634 39 23 39C31.8366 39 39 31.8366 39 23Z" fill="white"/>
</svg>
