<svg width="46" height="46" viewBox="0 0 46 46" fill="none" xmlns="http://www.w3.org/2000/svg">
<circle cx="23" cy="23" r="22.5" fill="#C2C7FF" stroke="#D9D9D9"/>
<circle cx="23" cy="23" r="22.5" fill="#C2C7FF" stroke="#D9D9D9"/>
<path fill-rule="evenodd" clip-rule="evenodd" d="M23.7089 1.01123C23.4735 1.00378 23.2372 1 23.0001 1C20.92 1 18.9073 1.2887 17 1.82819V7.72009L23.7089 1.01123ZM11 4.55792C10.3933 4.95349 9.80743 5.37817 9.2442 5.83002L11 7.58582V4.55792ZM7.73938 7.15356C7.13489 7.73584 6.5636 8.35236 6.02875 9H9.58582L7.73938 7.15356ZM2.49988 15C1.64655 17.1851 1.13251 19.54 1.02246 22H2.72009L9.72009 15H2.49988ZM5.54846 22H11V16.5485L5.54846 22ZM17 22H22.5858L17 16.4142V22ZM25.4142 22H27.0001C27.5524 22 28.0001 21.5523 28.0001 21V15H18.4142L25.4142 22ZM28.0001 9H18.5485L26.3022 1.24622C26.8757 1.33252 27.442 1.44098 28.0001 1.57068V9Z" fill="white"/>
<path d="M33.4049 20.2927C33.4348 20.2006 33.5652 20.2006 33.5951 20.2927L34.0388 21.6584C34.0522 21.6996 34.0906 21.7275 34.1339 21.7275H35.5699C35.6667 21.7275 35.707 21.8514 35.6287 21.9084L34.467 22.7524C34.4319 22.7778 34.4172 22.823 34.4306 22.8642L34.8744 24.2298C34.9043 24.322 34.7988 24.3986 34.7205 24.3416L33.5588 23.4976C33.5237 23.4722 33.4763 23.4722 33.4412 23.4976L32.2795 24.3416C32.2012 24.3986 32.0957 24.322 32.1256 24.2298L32.5694 22.8642C32.5828 22.823 32.5681 22.7778 32.533 22.7524L31.3713 21.9084C31.293 21.8514 31.3333 21.7275 31.4301 21.7275H32.8661C32.9094 21.7275 32.9478 21.6996 32.9612 21.6584L33.4049 20.2927Z" fill="white"/>
<path d="M33.4049 32.2927C33.4348 32.2006 33.5652 32.2006 33.5951 32.2927L34.0388 33.6584C34.0522 33.6996 34.0906 33.7275 34.1339 33.7275H35.5699C35.6667 33.7275 35.707 33.8514 35.6287 33.9084L34.467 34.7524C34.4319 34.7778 34.4172 34.823 34.4306 34.8642L34.8744 36.2298C34.9043 36.322 34.7988 36.3986 34.7205 36.3416L33.5588 35.4976C33.5237 35.4722 33.4763 35.4722 33.4412 35.4976L32.2795 36.3416C32.2012 36.3986 32.0957 36.322 32.1256 36.2298L32.5694 34.8642C32.5828 34.823 32.5681 34.7778 32.533 34.7524L31.3713 33.9084C31.293 33.8514 31.3333 33.7275 31.4301 33.7275H32.8661C32.9094 33.7275 32.9478 33.6996 32.9612 33.6584L33.4049 32.2927Z" fill="white"/>
<path d="M28.4049 26.2927C28.4348 26.2006 28.5652 26.2006 28.5951 26.2927L29.0388 27.6584C29.0522 27.6996 29.0906 27.7275 29.1339 27.7275H30.5699C30.6667 27.7275 30.707 27.8514 30.6287 27.9084L29.467 28.7524C29.4319 28.7778 29.4172 28.823 29.4306 28.8642L29.8744 30.2298C29.9043 30.322 29.7988 30.3986 29.7205 30.3416L28.5588 29.4976C28.5237 29.4722 28.4763 29.4722 28.4412 29.4976L27.2795 30.3416C27.2012 30.3986 27.0957 30.322 27.1256 30.2298L27.5694 28.8642C27.5828 28.823 27.5681 28.7778 27.533 28.7524L26.3713 27.9084C26.293 27.8514 26.3333 27.7275 26.4301 27.7275H27.8661C27.9094 27.7275 27.9478 27.6996 27.9612 27.6584L28.4049 26.2927Z" fill="white"/>
<path d="M38.4049 26.2927C38.4348 26.2006 38.5652 26.2006 38.5951 26.2927L39.0388 27.6584C39.0522 27.6996 39.0906 27.7275 39.1339 27.7275H40.5699C40.6667 27.7275 40.707 27.8514 40.6287 27.9084L39.467 28.7524C39.4319 28.7778 39.4172 28.823 39.4306 28.8642L39.8744 30.2298C39.9043 30.322 39.7988 30.3986 39.7205 30.3416L38.5588 29.4976C38.5237 29.4722 38.4763 29.4722 38.4412 29.4976L37.2795 30.3416C37.2012 30.3986 37.0957 30.322 37.1256 30.2298L37.5694 28.8642C37.5828 28.823 37.5681 28.7778 37.533 28.7524L36.3713 27.9084C36.293 27.8514 36.3333 27.7275 36.4301 27.7275H37.8661C37.9094 27.7275 37.9478 27.6996 37.9612 27.6584L38.4049 26.2927Z" fill="white"/>
</svg>
