<svg width="46" height="46" viewBox="0 0 46 46" fill="none" xmlns="http://www.w3.org/2000/svg">
<circle cx="23" cy="23" r="22.5" fill="#C2C7FF" stroke="#D9D9D9"/>
<path fill-rule="evenodd" clip-rule="evenodd" d="M43.5005 15H2.5C5.70027 6.8053 13.6723 1 23.0002 1C32.3282 1 40.3002 6.8053 43.5005 15Z" fill="white"/>
<path fill-rule="evenodd" clip-rule="evenodd" d="M41.4419 35C37.5165 41.0204 30.7229 45 22.9998 45C15.2766 45 8.48302 41.0204 4.55762 35H41.4419Z" fill="white"/>
<path d="M17.5 21C17.5 20.1716 16.8284 19.5 16 19.5H11C10.1716 19.5 9.5 20.1716 9.5 21V28.5714C9.5 30.7508 11.3006 32.5 13.5 32.5C15.6994 32.5 17.5 30.7508 17.5 28.5714V21Z" fill="#C2C7FF" stroke="white"/>
<path fill-rule="evenodd" clip-rule="evenodd" d="M13.5 19C13.2239 19 13 19.2239 13 19.5V25H9V26H13V32.5C13 32.7761 13.2239 33 13.5 33C13.7761 33 14 32.7761 14 32.5V26H18V25H14V19.5C14 19.2239 13.7761 19 13.5 19Z" fill="white"/>
<rect x="6" y="23" width="1" height="9" rx="0.5" fill="white"/>
<rect x="20" y="23" width="1" height="9" rx="0.5" fill="white"/>
<path d="M15.9498 19H11.0498C11.2814 17.8589 12.2903 17 13.4998 17C14.7093 17 15.7182 17.8589 15.9498 19Z" fill="white"/>
</svg>
