<svg width="46" height="46" viewBox="0 0 46 46" fill="none" xmlns="http://www.w3.org/2000/svg">
<circle cx="23" cy="23" r="22.5" fill="#C2C7FF" stroke="#D9D9D9"/>
<circle cx="23" cy="23" r="17" fill="#C2C7FF" stroke="white" stroke-width="2"/>
<path fill-rule="evenodd" clip-rule="evenodd" d="M19 7.50415C16.7761 8.07654 14.7393 9.11505 13 10.5093V20.0001H7.28079C7.09645 20.9718 7 21.9747 7 23.0001C7 24.0255 7.09645 25.0283 7.28079 26.0001H13V35.4908C14.7393 36.8851 16.7761 37.9236 19 38.496V26.0001H38.7192C38.9035 25.0283 39 24.0255 39 23.0001C39 21.9747 38.9035 20.9718 38.7192 20.0001H19V7.50415Z" fill="white"/>
<path fill-rule="evenodd" clip-rule="evenodd" d="M23 41C32.9411 41 41 32.9411 41 23C41 13.0589 32.9411 5 23 5C13.0589 5 5 13.0589 5 23C5 32.9411 13.0589 41 23 41ZM23 39C31.8366 39 39 31.8366 39 23C39 14.1634 31.8366 7 23 7C14.1634 7 7 14.1634 7 23C7 31.8366 14.1634 39 23 39Z" fill="white"/>
</svg>
